<?xml version="1.0" standalone="no"?>
<!DOCTYPE svg PUBLIC "-//W3C//DTD SVG 20010904//EN"
 "http://www.w3.org/TR/2001/REC-SVG-20010904/DTD/svg10.dtd">
<svg version="1.0" xmlns="http://www.w3.org/2000/svg"
 width="1122.000000pt" height="1182.000000pt" viewBox="0 0 1122.000000 1182.000000"
 preserveAspectRatio="xMidYMid meet">
<metadata>
Created by potrace 1.16, written by Peter Selinger 2001-2019
</metadata>
<g transform="translate(0.000000,1182.000000) scale(0.100000,-0.100000)"
fill="#000000" stroke="none">
<path d="M280 11648 l0 -168 -65 0 -65 0 2 -47 1 -48 4 43 4 42 70 0 c83 0 93
-18 12 -23 l-58 -3 57 -2 c54 -2 57 -3 61 -29 3 -20 4 -15 6 15 l1 42 83 2 82
2 -72 3 -73 4 0 167 0 168 -25 0 -25 0 0 -168z"/>
<path d="M8043 11683 c15 -4 17 -19 17 -139 l0 -135 -67 3 -68 3 -3 53 c-3 44
0 52 15 52 17 1 17 2 -1 15 -16 12 -17 18 -8 27 19 19 14 28 -18 28 -28 0 -30
-3 -30 -35 0 -24 5 -35 15 -35 12 0 15 -13 15 -55 l0 -55 -59 0 c-57 0 -60 1
-64 28 l-4 27 -2 -27 c-1 -28 -1 -28 -75 -28 -41 0 -78 5 -81 10 -3 6 -18 10
-33 9 -24 0 -25 -1 -7 -9 12 -5 -73 -10 -215 -11 -227 -3 -230 -3 -85 -9 l150
-5 3 -32 3 -33 -911 0 c-828 0 -912 1 -906 16 3 9 6 24 6 35 0 18 19 19 753
22 l752 2 -752 3 -753 2 -14 33 c-19 44 -56 76 -96 82 l-35 5 32 -10 c74 -24
120 -110 89 -170 l-14 -30 751 0 c414 0 915 -1 1115 -1 l362 -1 0 -774 0 -774
-352 2 -353 3 -3 698 -2 697 -480 0 -480 0 0 -27 c0 -16 0 -332 0 -703 l0
-675 332 3 c183 2 397 1 476 -3 l142 -7 0 -1144 0 -1144 -477 -2 -478 -3 -3
-697 -2 -698 480 0 479 0 4 -112 c1 -62 4 250 5 694 2 634 5 807 15 811 9 4 9
6 0 6 -10 1 -12 253 -13 1146 l0 1145 25 0 26 0 -2 -110 c-1 -61 1 -114 5
-117 3 -4 6 46 6 110 l0 116 321 1 c177 0 325 3 330 6 5 3 9 349 9 780 l0 774
39 0 c29 0 41 -5 44 -17 4 -17 5 -17 6 -1 1 16 74 17 1203 18 l1201 0 -2 75
-2 74 83 4 83 3 -85 0 -85 -1 -3 -32 -3 -33 -127 -2 -127 -2 125 -6 125 -5 3
-32 3 -33 -95 0 -95 0 -4 28 -4 27 -2 -27 -1 -28 -1010 0 -1010 0 0 35 0 35
983 3 982 2 -992 3 -993 2 0 140 c0 139 0 140 -22 139 -17 -1 -19 -2 -5 -6z
m-945 -1220 l2 -683 -470 0 -470 0 0 685 0 685 468 -2 467 -3 3 -682z m-8
-3698 l0 -685 -465 0 -465 0 0 685 0 685 465 0 465 0 0 -685z"/>
<path d="M6237 11082 l-47 -48 1 -574 1 -575 46 -40 47 -39 -42 45 -43 45 0
570 0 570 43 42 43 43 351 -3 c193 -2 349 0 346 5 -2 4 -160 7 -351 7 l-348 0
-47 -48z"/>
<path d="M6503 10352 l-183 -2 0 -115 0 -115 48 0 c299 -2 566 1 570 5 3 3
-17 5 -44 5 -28 0 -56 6 -63 13 -11 10 -13 9 -7 -1 6 -10 -44 -12 -243 -12
l-251 1 0 105 0 104 108 -2 c102 -2 103 -2 25 -5 -48 -2 -83 -8 -83 -14 0 -6
5 -7 11 -4 5 4 37 4 70 0 50 -6 59 -10 55 -24 -5 -14 -4 -13 8 2 11 14 29 17
103 17 58 0 93 -4 102 -12 10 -11 11 -10 6 5 -6 15 1 17 71 19 l79 2 -90 6
-90 7 118 -1 c64 -1 117 2 117 6 0 9 -206 14 -437 10z"/>
<path d="M6229 7423 l44 -4 -39 -42 -39 -42 46 43 45 42 387 0 386 -1 1 -606
0 -607 -47 -48 -47 -48 -339 0 -338 0 -49 46 -50 47 -3 571 -2 571 -3 -572 -2
-572 53 -50 52 -51 342 0 343 0 42 46 43 47 6 -44 c3 -24 7 254 7 619 l2 662
-442 -2 c-244 -1 -423 -3 -399 -5z"/>
<path d="M6257 7352 l-37 -38 0 -545 0 -546 42 -41 42 -42 326 0 327 0 21 23
c12 13 19 26 15 30 -3 4 -11 -3 -17 -16 l-12 -22 -328 -3 -329 -2 -38 37 -39
38 0 547 c0 509 1 548 18 560 20 15 57 58 51 58 -3 0 -22 -17 -42 -38z"/>
<path d="M6657 7023 c-4 -3 -7 -53 -7 -110 0 -62 -4 -103 -10 -103 -5 0 -10
-7 -10 -16 0 -8 -4 -13 -8 -10 -4 2 -8 -4 -8 -14 0 -10 4 -16 8 -14 4 3 8 -2
8 -10 0 -9 5 -16 10 -16 6 0 10 -11 10 -24 0 -15 7 -26 20 -29 11 -3 20 -12
20 -21 0 -13 -12 -16 -65 -16 -44 0 -65 4 -65 12 0 9 -3 9 -12 0 -7 -7 -43
-12 -90 -12 -43 0 -78 -3 -78 -7 0 -5 32 -6 71 -5 71 4 72 3 66 -20 -6 -21 -5
-22 7 -5 12 15 29 18 117 18 57 -1 136 3 174 8 l70 8 -87 2 c-87 1 -88 1 -103
31 -9 17 -19 28 -24 26 -4 -3 -9 23 -10 58 -2 54 2 70 24 101 14 21 25 32 26
24 1 -18 20 51 20 74 0 9 3 16 7 13 4 -2 16 0 27 5 16 7 15 8 -9 6 -24 -2 -31
-8 -38 -34 -5 -18 -20 -49 -33 -69 l-25 -37 0 92 0 91 56 0 c46 0 55 -3 50
-15 -3 -8 -1 -15 4 -15 6 0 10 7 10 15 0 12 22 15 113 18 89 2 77 3 -59 5 -94
1 -174 -1 -177 -5z"/>
<path d="M6365 6429 l-50 -6 42 -1 42 -2 -21 -37 c-20 -35 -20 -37 -2 -22 16
13 55 15 259 14 132 -1 244 1 248 3 5 2 -2 11 -15 21 -23 16 -23 16 27 22 l50
6 -50 2 c-149 5 -487 5 -530 0z"/>
<path d="M4510 11556 c0 -25 4 -36 15 -36 12 0 15 -13 15 -55 l0 -55 -352 -2
-353 -2 265 -6 265 -5 3 -32 3 -33 -1860 0 -1861 0 0 35 0 35 1068 3 1067 2
-1067 3 -1068 2 0 35 0 35 -87 -2 -88 -2 83 -3 83 -4 -2 -75 -2 -74 1596 0
1597 0 3 -2212 2 -2213 3 2213 2 2212 528 0 c290 0 636 0 769 0 l241 0 -15 31
c-13 25 -13 38 -4 69 16 52 39 78 86 95 35 12 36 14 13 15 -33 0 -86 -44 -105
-87 l-13 -33 -243 2 -242 3 -3 53 c-3 44 0 52 15 52 17 1 17 2 -1 15 -16 12
-17 18 -8 27 19 19 14 28 -18 28 -28 0 -30 -3 -30 -35 0 -24 5 -35 15 -35 12
0 15 -13 15 -55 l0 -55 -59 0 c-54 0 -60 2 -64 23 l-4 22 -2 -23 c-1 -22 -4
-23 -78 -20 l-78 3 -3 53 c-2 42 0 52 13 52 12 0 16 8 13 33 -3 28 -7 32 -35
35 -32 3 -33 2 -33 -32z m162 -178 c-4 -26 38 -24 45 2 5 17 14 20 59 20 59 0
80 -15 34 -25 -16 -4 -30 -11 -30 -16 0 -13 24 -11 38 3 6 6 15 8 19 3 5 -4 2
-10 -6 -13 -11 -4 -11 -6 0 -13 9 -6 -44 -8 -133 -7 -135 2 -148 4 -148 20 0
10 1 18 3 18 1 0 20 7 42 15 51 19 81 16 77 -7z m668 -4 c6 -14 10 -30 10 -35
0 -5 -69 -9 -165 -9 l-165 0 0 35 0 35 155 0 155 0 10 -26z"/>
<path d="M105 10455 c0 -511 1 -719 2 -462 2 258 2 676 0 930 -1 254 -2 44 -2
-468z"/>
<path d="M302 11358 c-2 -26 -5 -27 -59 -31 l-58 -3 58 -2 c31 -1 57 -6 57
-12 0 -5 -9 -10 -20 -10 -11 0 -20 -4 -20 -10 0 -5 5 -10 10 -10 6 0 10 -28
10 -65 0 -37 -4 -65 -10 -65 -6 0 -10 -50 -10 -130 0 -80 4 -130 10 -130 6 0
10 -57 10 -150 0 -93 -4 -150 -10 -150 -6 0 -10 -50 -10 -130 0 -80 4 -130 10
-130 6 0 10 -55 10 -145 0 -90 -4 -145 -10 -145 -6 0 -10 -52 -10 -135 0 -83
4 -135 10 -135 6 0 10 -30 10 -70 l0 -70 -65 0 -65 0 2 -52 2 -53 3 48 4 47
70 0 c83 0 93 -18 12 -23 l-58 -3 57 -2 c56 -2 57 -2 61 -34 3 -25 4 -21 5 15
l2 48 63 -2 c34 -1 63 1 65 4 1 4 2 383 2 842 l0 835 -64 0 -65 0 -4 43 c-2
23 -4 30 -5 15z m78 -493 l0 -275 -25 0 -25 0 0 275 0 275 25 0 25 0 0 -275z
m0 -810 l0 -275 -25 0 -25 0 0 275 0 275 25 0 25 0 0 -275z"/>
<path d="M10661 11343 l-1 -43 -65 0 -65 0 -2 -840 -3 -840 52 0 c74 0 83 -5
85 -54 1 -36 2 -37 5 -8 4 31 6 32 53 32 46 0 49 -2 53 -27 4 -26 4 -26 3 2
-1 29 -3 30 -53 33 -75 4 -66 22 11 22 l65 0 4 -47 3 -48 2 53 2 52 -55 0 -55
0 0 835 c0 736 -2 835 -15 835 -8 0 -15 5 -15 10 0 6 25 10 55 10 l55 0 -1 33
c-2 30 -2 30 -6 5 -4 -26 -8 -28 -53 -28 -45 0 -49 2 -53 28 -3 19 -4 14 -6
-15z m-24 -885 l2 -828 -29 0 -29 0 -1 831 0 830 28 -3 27 -3 2 -827z m53 571
c0 -95 -3 -114 -17 -125 -17 -13 -17 -13 0 -14 15 0 17 -14 17 -150 0 -143 -1
-150 -20 -150 -19 0 -20 7 -20 165 0 150 2 165 18 166 16 1 16 2 0 6 -16 4
-18 17 -18 94 0 78 2 89 18 90 16 1 16 2 0 6 -24 6 -23 23 2 23 19 0 20 -7 20
-111z m0 -845 c0 -104 -3 -144 -12 -148 -10 -5 -10 -7 0 -12 8 -4 12 -39 12
-125 0 -112 -1 -119 -20 -119 -25 0 -27 20 -2 21 16 1 16 2 0 6 -16 4 -18 17
-18 94 0 78 2 89 18 90 16 1 16 2 0 6 -16 4 -18 21 -18 168 0 158 1 164 20
162 19 -1 20 -8 20 -143z"/>
<path d="M10865 10455 c0 -511 1 -719 2 -462 2 258 2 676 0 930 -1 254 -2 44
-2 -468z"/>
<path d="M8783 10653 c-13 -2 -23 -11 -23 -19 0 -8 -4 -14 -10 -14 -5 0 -10
-18 -10 -40 l0 -40 98 0 97 0 2 40 c2 22 -2 40 -7 40 -6 0 -10 6 -10 14 0 20
-76 31 -137 19z"/>
<path d="M9035 10653 c-29 -8 -44 -34 -45 -75 l0 -38 98 0 98 0 2 38 c2 53
-15 71 -79 76 -30 3 -63 2 -74 -1z"/>
<path d="M9278 10653 c-16 -2 -28 -11 -28 -19 0 -8 -5 -14 -10 -14 -6 0 -9
-18 -8 -40 l3 -40 98 0 97 0 0 40 c0 22 -4 40 -10 40 -5 0 -10 6 -10 14 0 21
-60 30 -132 19z"/>
<path d="M9523 10653 c-13 -2 -23 -11 -23 -19 0 -8 -4 -14 -10 -14 -5 0 -10
-18 -10 -40 l0 -40 100 0 100 0 0 40 c0 22 -4 40 -10 40 -5 0 -10 6 -10 14 0
20 -76 31 -137 19z"/>
<path d="M1480 10501 c-18 -4 -7 -7 35 -11 59 -6 59 -6 31 -18 -21 -9 -37 -10
-59 -3 -30 11 -70 0 -48 -13 20 -13 11 -25 -21 -29 -24 -3 -17 -5 22 -7 30 -1
45 -5 33 -7 -13 -2 -23 -11 -23 -19 0 -13 12 -15 63 -12 46 2 61 0 60 -9 -2
-7 2 -13 7 -13 5 0 10 4 10 9 0 5 3 16 6 25 5 13 -3 16 -47 17 -41 0 -49 2
-33 9 12 5 25 13 29 19 10 17 35 13 35 -5 0 -12 6 -15 24 -10 14 3 36 2 49 -3
19 -8 27 -6 31 5 4 11 -4 14 -36 14 -34 0 -39 2 -29 14 10 12 8 13 -8 9 -15
-4 -21 -1 -21 11 0 28 -52 41 -110 27z"/>
<path d="M8740 10125 c0 -25 5 -45 10 -45 6 0 10 -7 10 -15 0 -12 15 -15 78
-15 73 0 78 2 89 26 6 14 9 41 6 59 l-6 35 -93 0 -94 0 0 -45z"/>
<path d="M8990 10125 c0 -25 5 -45 10 -45 6 0 10 -7 10 -15 0 -12 16 -15 80
-15 64 0 80 3 80 15 0 8 5 15 10 15 6 0 10 20 10 45 l0 45 -100 0 -100 0 0
-45z"/>
<path d="M9232 10125 c-1 -25 2 -45 8 -45 5 0 10 -7 10 -15 0 -12 16 -15 80
-15 64 0 80 3 80 15 0 8 5 15 10 15 6 0 10 20 10 45 l0 45 -97 0 -98 0 -3 -45z"/>
<path d="M9480 10125 c0 -25 5 -45 10 -45 6 0 10 -7 10 -15 0 -12 16 -15 80
-15 64 0 80 3 80 15 0 8 5 15 10 15 6 0 10 20 10 45 l0 45 -100 0 -100 0 0
-45z"/>
<path d="M105 6805 c0 -1496 1 -2107 2 -1357 2 750 2 1974 0 2720 -1 746 -2
133 -2 -1363z"/>
<path d="M302 9503 c-2 -19 -9 -22 -59 -26 l-58 -3 58 -2 c31 -1 57 -6 57 -12
0 -5 -4 -10 -10 -10 -7 0 -10 -283 -10 -830 l0 -830 -65 0 -65 0 2 -47 1 -48
4 43 4 42 70 0 c83 0 93 -18 12 -23 l-58 -3 57 -2 c54 -2 57 -3 61 -29 3 -20
4 -15 6 15 1 40 3 42 31 42 l30 0 0 -85 0 -85 -30 0 c-28 0 -30 2 -31 43 -2
28 -3 33 -6 15 -4 -25 -8 -27 -61 -31 l-57 -3 58 -2 c31 -1 57 -6 57 -12 0 -5
-4 -10 -10 -10 -6 0 -11 -295 -12 -840 -2 -667 0 -840 10 -840 6 0 12 -4 12
-10 0 -5 -26 -11 -57 -13 l-58 -3 57 -2 c54 -2 57 -3 61 -29 3 -20 4 -15 6 15
1 40 3 42 31 42 l30 0 0 -85 0 -85 -30 0 c-28 0 -30 2 -31 43 -2 28 -3 33 -6
15 -4 -25 -8 -27 -61 -31 l-57 -3 58 -2 c82 -3 71 -22 -12 -22 l-70 0 -4 43
-4 42 -1 -47 -2 -48 65 0 65 0 0 -825 0 -825 -65 0 c-36 0 -65 -4 -65 -10 0
-5 -35 -11 -77 -13 l-78 -3 79 -2 c73 -2 78 -3 73 -22 -3 -12 0 -20 8 -20 8 0
11 9 7 25 -4 25 -4 25 67 25 85 0 95 -17 14 -23 l-58 -3 58 -2 57 -2 0 -55 0
-54 -57 -4 -58 -3 58 -2 c82 -3 71 -22 -13 -22 -63 0 -70 2 -70 20 0 10 -10
24 -23 30 -20 10 -20 10 -5 -3 25 -20 22 -45 -4 -49 -16 -2 -24 -11 -26 -30
-3 -25 -7 -27 -55 -31 l-52 -3 53 -2 c28 -1 52 -6 52 -12 0 -5 -24 -11 -52
-12 -36 -1 -43 -2 -20 -5 l32 -4 0 -1370 0 -1369 -32 0 c-57 0 -23 -10 38 -11
32 -1 67 -3 76 -6 25 -6 11 -31 -20 -36 -15 -2 59 -4 163 -3 111 0 141 2 73 3
l-118 4 0 529 0 529 113 4 c84 2 68 3 -65 5 l-178 2 0 905 0 905 968 0 c532 0
1371 0 1865 0 l897 0 0 1022 c0 562 -2 1019 -5 1016 -3 -3 -5 -460 -5 -1017
l0 -1011 -1760 0 -1760 0 0 85 0 85 67 0 c64 0 83 8 30 12 l-27 2 0 828 0 828
38 1 c30 2 32 3 10 6 -25 4 -28 8 -28 44 0 24 -4 38 -10 34 -6 -3 -10 1 -10
10 0 9 5 13 10 10 6 -4 10 10 10 34 0 35 3 41 22 41 29 0 18 9 -15 12 l-27 2
0 823 c0 812 0 822 20 828 11 3 24 3 30 0 5 -3 10 -1 10 4 0 6 -9 11 -20 11
-17 0 -20 7 -20 41 0 24 -4 38 -10 34 -6 -3 -10 -1 -10 4 0 6 5 11 10 11 6 0
10 19 10 41 0 36 2 41 20 36 11 -3 23 -1 26 4 3 5 -11 9 -30 9 l-36 0 0 819
c0 810 0 820 20 826 11 3 24 3 30 0 5 -3 10 -1 10 4 0 7 -26 11 -64 11 l-65 0
-4 38 c-2 20 -4 27 -5 15z m68 -888 c0 -818 0 -825 -20 -825 -20 0 -20 7 -20
825 0 818 0 825 20 825 20 0 20 -7 20 -825z m-50 -1440 c0 -371 -2 -425 -15
-425 -13 0 -15 54 -15 425 0 371 2 425 15 425 13 0 15 -54 15 -425z m50 -405
c0 -823 0 -830 -20 -830 -20 0 -20 7 -20 830 0 823 0 830 20 830 20 0 20 -7
20 -830z m0 -1850 c0 -823 0 -830 -20 -830 -20 0 -20 7 -20 830 0 823 0 830
20 830 20 0 20 -7 20 -830z m-50 375 c-1 -366 -3 -425 -15 -425 -13 0 -15 59
-15 425 0 374 2 425 15 425 14 0 15 -51 15 -425z m-220 -2855 c0 -1211 -2
-1370 -15 -1370 -13 0 -15 159 -15 1370 0 1211 2 1370 15 1370 13 0 15 -159
15 -1370z m60 -865 l0 -505 -25 0 -25 0 0 505 0 505 25 0 25 0 0 -505z m70
-25 l0 -530 -24 0 c-21 0 -24 5 -29 53 -8 71 -8 889 -1 955 6 46 9 52 30 52
l24 0 0 -530z"/>
<path d="M10661 9488 c0 -23 -6 -38 -13 -38 -17 0 -14 -1673 2 -1678 5 -2 10
-19 10 -38 l0 -34 -1089 0 c-600 0 -1092 -3 -1094 -7 -3 -5 489 -7 1094 -5
l1099 2 0 30 c0 29 1 30 50 30 l50 0 0 -54 0 -55 -47 -4 -48 -3 53 -2 53 -2
-3 63 -3 62 -52 3 c-75 4 -66 22 12 22 l64 0 4 -92 3 -93 2 98 2 97 -65 0 -64
0 -7 34 c-3 19 -4 80 -2 135 1 56 0 101 -4 101 -4 0 -9 -55 -11 -122 l-3 -123
-2 134 c-2 103 1 132 11 128 9 -3 12 48 12 239 0 189 -3 244 -12 244 -7 0 -13
5 -13 11 0 6 6 9 13 6 9 -3 12 84 12 417 0 365 -2 422 -15 428 -12 5 -11 7 3
7 14 1 17 6 12 21 -6 18 -2 20 49 20 55 0 56 1 55 28 -2 23 -2 24 -6 5 -4 -20
-11 -23 -53 -23 -42 0 -49 3 -53 23 -3 13 -5 8 -6 -15z"/>
<path d="M10865 6805 c0 -1496 1 -2107 2 -1357 2 750 2 1974 0 2720 -1 746 -2
133 -2 -1363z"/>
<path d="M1503 8693 c-25 -10 -12 -23 23 -23 21 0 33 -4 29 -10 -3 -5 -24 -10
-47 -10 -32 0 -39 3 -34 15 3 8 1 15 -4 15 -6 0 -10 -4 -10 -10 0 -5 -7 -10
-16 -10 -14 0 -14 -3 -4 -15 20 -24 -2 -38 -54 -34 -42 4 -63 -4 -33 -12 24
-7 182 6 170 14 -7 5 -17 6 -22 2 -5 -3 -12 -1 -15 4 -6 9 82 14 96 5 5 -3 2
-12 -6 -20 -9 -9 -35 -14 -70 -14 -45 0 -56 -3 -56 -16 0 -14 9 -15 59 -9 38
4 61 3 65 -4 7 -11 -12 -14 -84 -12 -19 0 -28 -2 -20 -6 8 -3 20 -12 25 -19
11 -14 65 -8 65 7 0 5 6 9 14 9 12 0 28 40 27 67 0 5 6 18 14 29 13 20 12 21
-4 17 -12 -3 -20 2 -24 16 -3 14 -10 19 -21 15 -9 -3 -16 -1 -16 5 0 11 -25
14 -47 4z"/>
<path d="M10674 4100 c0 -18 7 -20 63 -20 l63 0 0 -85 0 -84 -157 -4 -158 -3
188 -2 187 -2 0 -90 0 -90 -40 0 -40 0 0 55 0 55 -227 2 -228 3 0 30 0 30 80
6 c44 3 -16 5 -135 5 -172 0 -190 -1 -91 -6 87 -3 126 -9 129 -17 3 -10 -26
-13 -122 -13 -77 0 -126 -4 -126 -10 0 -6 48 -10 125 -10 104 0 125 -2 125
-15 0 -13 32 -15 230 -15 147 0 230 -4 230 -10 0 -6 -55 -11 -142 -12 -79 -1
-112 -3 -75 -5 62 -4 67 -6 55 -20 -12 -15 -11 -15 10 -4 l22 12 0 -401 0
-401 -22 12 c-23 12 -23 12 -4 -10 20 -22 80 -30 91 -11 3 6 1 10 -4 10 -6 0
-11 9 -11 20 0 11 5 20 10 20 6 0 10 5 10 10 0 6 -13 10 -30 10 l-30 0 0 345
0 345 30 0 c17 0 30 5 30 10 0 6 -4 10 -10 10 -20 0 -9 28 13 34 49 13 57 8
57 -34 0 -27 5 -43 15 -46 13 -5 15 -59 15 -400 l0 -394 -157 -2 -158 -2 155
-6 155 -5 3 -322 3 -322 -158 -4 -158 -3 193 -2 192 -2 0 -90 0 -90 -45 0 -45
0 0 50 0 50 -152 0 c-83 0 -149 -3 -145 -6 3 -3 69 -5 146 -5 l141 2 0 -51 c0
-38 4 -50 15 -50 11 0 15 -11 15 -40 0 -22 -3 -40 -8 -40 -4 0 -41 34 -82 75
-41 41 -77 75 -81 75 -4 0 28 -34 70 -75 l76 -75 -106 0 c-99 0 -107 2 -128
24 -19 20 -22 33 -20 75 2 28 1 51 -3 51 -5 0 -8 -23 -8 -52 0 -39 5 -57 22
-75 l21 -23 -48 0 c-27 0 -45 -3 -42 -7 4 -3 27 -5 52 -5 37 2 50 -3 77 -28
l33 -29 -92 -1 -93 0 0 55 c0 51 12 72 23 43 3 -8 6 -6 6 5 1 11 -6 17 -19 17
-18 0 -20 -7 -20 -60 l0 -60 -66 0 -66 0 4 88 c2 74 1 88 -12 88 -9 0 -16 -8
-16 -18 0 -10 4 -18 8 -18 4 0 8 -31 8 -70 l0 -70 -117 -2 -118 -2 120 -6 120
-6 -120 -4 c-96 -2 -110 -5 -70 -10 l50 -7 -45 -1 -45 -2 0 -325 0 -325 163 0
c127 0 170 -3 195 -15 29 -14 30 -14 13 0 -19 14 -17 15 27 15 l47 0 0 298 0
297 40 23 c21 12 50 22 64 22 l26 0 0 -386 0 -386 -35 21 c-19 12 -51 31 -71
42 -19 12 -37 19 -39 17 -2 -2 24 -19 58 -38 l62 -35 -65 -5 -65 -4 75 -6 c64
-5 55 -7 -62 -8 l-138 -2 0 -75 0 -74 -152 -4 -153 -3 153 -2 152 -2 0 -40 0
-39 -152 -4 c-109 -2 -91 -3 62 -3 118 0 189 1 158 3 l-58 4 0 109 0 109 58 3
c31 2 193 2 360 0 l302 -3 0 -109 0 -110 -302 -3 -303 -2 308 -3 307 -2 0 121
c0 112 -1 121 -20 126 -19 5 -20 14 -20 237 l0 233 25 23 c14 13 25 27 25 32
0 5 -11 -4 -25 -19 l-24 -28 -1 74 0 74 23 -19 22 -19 -22 26 -23 25 0 1057 0
1057 24 0 c14 0 27 3 29 8 3 4 -51 6 -119 4 -80 -2 -124 0 -124 7 0 6 44 11
113 13 l112 3 1 28 c1 25 1 25 -3 2 -4 -25 -5 -25 -114 -25 l-109 0 0 30 c0
27 -3 30 -30 30 l-30 0 0 80 0 80 140 0 139 0 4 -77 3 -78 0 80 -1 80 -142 3
c-84 1 -143 7 -143 12 0 6 -26 10 -58 10 -32 0 -62 4 -68 10 -6 6 -10 3 -10
-10z m226 -1266 c0 -813 -2 -975 -13 -965 -11 9 -14 185 -16 976 -2 869 -1
965 13 965 14 0 16 -98 16 -976z m140 -71 l0 -1047 -60 59 -60 59 0 988 0 988
60 0 60 0 0 -1047z m-180 212 l0 -725 -25 0 -25 0 0 725 0 725 25 0 25 0 0
-725z m-231 -1027 c11 -10 13 -10 7 0 -5 7 -1 12 9 12 10 0 13 -5 9 -12 -5 -8
-3 -8 7 -2 16 10 84 15 117 8 20 -4 23 -10 21 -47 -2 -42 -3 -43 -40 -44 -31
-1 -37 1 -33 15 5 15 4 15 -6 0 -18 -29 -42 -21 -95 32 -40 40 -45 50 -29 50
11 0 26 -6 33 -12z m-339 -174 c0 -57 -3 -73 -12 -68 -10 6 -10 4 0 -8 11 -14
8 -20 -20 -43 l-33 -27 37 22 c21 12 43 18 50 14 7 -4 10 -4 6 1 -4 4 -3 14 3
21 7 8 6 14 -2 20 -8 5 -9 3 -4 -6 5 -9 4 -11 -3 -6 -8 4 -12 36 -12 82 l0 74
95 0 95 0 0 -315 0 -315 -45 0 c-26 0 -60 7 -78 17 -30 15 -31 15 -18 -1 13
-15 5 -16 -120 -14 l-134 3 -2 154 c-2 102 1 159 8 168 9 9 8 13 0 13 -8 0
-11 44 -11 145 l0 145 100 0 100 0 0 -76z m447 14 l63 -62 0 -323 0 -323 -55
0 c-42 0 -55 3 -55 15 0 8 5 15 10 15 6 0 10 5 10 10 0 6 -13 10 -30 10 l-30
0 0 360 c0 277 3 360 12 360 7 0 41 -28 75 -62z m303 -405 l0 -323 -60 0 -60
0 0 273 0 272 35 -37 c18 -21 39 -38 44 -38 6 0 -10 19 -34 41 l-45 42 0 104
0 105 60 -58 60 -59 0 -322z m-180 -25 l0 -298 -25 0 -25 0 0 322 0 321 25
-23 25 -23 0 -299z m40 -19 c0 -241 -2 -279 -15 -279 -13 0 -15 39 -15 291 0
258 2 290 15 279 13 -11 15 -56 15 -291z"/>
<path d="M7660 3808 c0 -57 0 -705 0 -1440 l-1 -1338 -212 -1 c-208 -1 -296
-5 -306 -14 -2 -3 8 -5 22 -5 22 0 27 -5 27 -25 0 -30 -36 -36 -43 -7 -4 13
-5 11 -6 -5 -1 -19 4 -23 29 -23 27 0 30 3 31 33 l1 32 8 -30 8 -30 2 30 c2
30 2 30 10 5 8 -24 8 -24 9 -2 l1 22 210 0 210 0 0 -105 0 -105 -260 0 c-167
0 -260 -4 -260 -10 0 -6 93 -10 260 -10 l260 0 3 -392 c2 -318 3 -280 5 195 2
514 4 587 17 587 11 0 15 -11 15 -40 0 -39 1 -40 35 -40 l35 0 2 -495 3 -495
708 0 c390 0 713 2 718 5 10 7 12 45 3 69 -5 13 -24 16 -100 16 -87 0 -94 1
-94 20 0 19 7 20 150 20 l150 0 2 -117 2 -118 3 103 4 102 27 0 c67 0 132 73
132 150 0 134 -148 198 -247 107 l-23 -20 0 186 0 187 423 3 422 2 -430 0
-430 0 -3 -283 -2 -282 -55 0 -55 0 2 302 3 303 33 3 c24 2 32 8 32 23 0 18
13 19 453 22 l452 2 -452 3 -453 2 0 525 0 525 25 0 25 0 0 -485 0 -485 428 2
c235 1 410 3 389 5 -29 3 -37 8 -33 19 3 8 1 14 -4 14 -6 0 -10 38 -10 89 l0
90 43 4 c23 2 -6 4 -65 5 l-108 2 1 151 c0 138 1 150 17 145 15 -6 15 -5 0 8
-16 12 -18 33 -18 170 l0 157 63 -1 c88 -2 155 1 133 7 -15 4 -16 7 -5 14 9 7
1 8 -26 4 -22 -3 -34 -2 -27 1 21 10 13 24 -14 24 -22 0 -25 -2 -14 -15 10
-12 10 -15 -3 -15 -8 0 -17 7 -21 15 -4 12 -24 15 -86 15 l-80 0 1 58 c1 31 4
45 6 30 l4 -28 142 2 142 2 -137 3 c-81 2 -138 8 -138 13 0 6 57 11 138 12
l137 2 -132 3 c-77 2 -133 8 -133 13 0 6 -9 10 -20 10 -18 0 -20 -7 -20 -60
l0 -60 -170 0 -170 0 0 60 0 60 -60 -7 -60 -6 0 432 0 431 85 0 c50 0 85 -4
85 -10 0 -6 35 -10 85 -10 70 0 85 -3 85 -16 0 -9 -5 -12 -12 -8 -10 6 -10 5
-1 -7 8 -10 9 -19 3 -27 -7 -9 -7 -9 2 -2 8 7 18 4 32 -8 21 -17 21 -17 4 4
-17 19 -17 21 0 39 16 18 16 18 0 6 -15 -11 -18 -11 -18 3 0 13 13 16 85 16
50 0 85 4 85 10 0 6 49 11 123 12 l122 2 -125 6 -125 6 125 5 125 5 -127 2
c-80 1 -128 -2 -128 -8 0 -5 -4 -10 -10 -10 -11 0 -13 99 -2 116 8 13 136 18
128 6 -3 -4 -1 -14 5 -22 7 -13 9 -12 9 3 0 18 15 23 24 8 4 -5 0 -12 -6 -14
-7 -3 1 -6 17 -6 20 0 26 2 16 8 -10 7 -11 10 -1 16 8 5 18 1 27 -10 12 -18
13 -18 13 2 0 12 8 24 18 26 9 3 -27 5 -80 6 l-98 1 0 310 0 310 86 -1 c47 0
88 2 92 5 3 3 -11 6 -31 6 l-37 0 0 44 c0 26 5 46 13 49 9 4 9 8 -2 15 -15 11
-6 19 37 32 25 8 24 8 -10 9 -34 1 -38 4 -38 26 0 23 4 25 40 25 22 0 40 5 40
10 0 7 -193 10 -560 10 -490 0 -560 2 -560 15 0 13 72 15 563 18 l562 2 -572
3 -573 2 0 -53 c0 -29 -5 -58 -12 -65 -17 -17 -54 -15 -72 4 -9 9 -16 11 -16
4 0 -8 -77 -11 -267 -10 -353 1 -367 1 -361 -6 3 -3 204 -5 447 -5 l441 0 0
-245 0 -244 -64 0 c-88 0 -96 4 -96 51 0 32 3 37 18 32 16 -6 16 -5 0 13 -17
19 -17 21 0 39 17 19 16 19 -4 2 -19 -16 -22 -16 -34 -2 -7 9 -15 13 -18 10
-3 -2 1 -11 8 -20 10 -12 10 -18 -1 -32 -13 -16 -12 -17 4 -4 16 12 17 10 17
-28 0 -32 -4 -41 -17 -41 -15 0 -16 -2 -3 -10 11 -7 2 -10 -32 -10 l-47 0 -3
43 c-3 42 -3 42 -43 42 -40 0 -40 0 -43 -42 -3 -39 -6 -43 -30 -43 -59 0 -72
10 -72 51 0 32 3 37 18 32 16 -6 16 -5 0 13 -17 19 -17 21 0 39 17 19 17 19
-5 1 -20 -17 -22 -17 -31 1 -6 10 -14 15 -18 11 -4 -4 -1 -14 6 -23 10 -12 10
-18 -1 -32 -13 -16 -12 -17 4 -4 16 12 17 10 17 -28 0 -26 -5 -41 -12 -41 -9
0 -8 -4 2 -10 18 -12 -304 -8 -335 4 -16 6 -17 6 -5 -3 12 -8 6 -11 -25 -12
-27 -1 -18 -4 30 -9 39 -4 79 -11 90 -15 16 -5 17 -5 5 4 -11 8 20 11 118 11
81 0 132 -4 132 -10 0 -5 -6 -10 -12 -10 -9 0 -8 -3 2 -10 8 -5 11 -12 7 -16
-3 -4 -14 -1 -22 6 -12 10 -19 10 -27 2 -9 -9 -4 -13 20 -18 35 -7 45 -39 15
-47 -17 -4 -17 -5 0 -6 14 -1 17 -11 17 -62 0 -53 -2 -60 -16 -55 -14 5 -15 4
-4 -9 10 -12 10 -18 -1 -32 -13 -16 -12 -17 3 -5 14 12 21 11 38 -1 l21 -15
-22 -16 c-17 -11 -26 -13 -36 -4 -16 13 -17 -4 -1 -20 8 -8 8 -15 -3 -29 -13
-17 -13 -17 4 -4 14 11 21 11 29 3 24 -24 30 -11 7 15 -13 14 -19 23 -12 19 6
-3 18 3 27 16 14 20 14 24 -1 40 -13 15 -14 20 -2 35 12 15 12 16 -4 10 -16
-6 -17 1 -16 77 1 76 3 83 20 79 10 -3 16 -10 12 -16 -4 -7 0 -8 11 -4 10 4
21 7 24 8 4 0 -9 6 -28 13 -26 10 -36 19 -38 39 -3 23 0 27 20 26 22 0 22 -1
3 -10 -17 -8 -17 -9 5 -4 14 3 35 8 48 11 21 6 22 4 22 -71 0 -55 4 -81 15
-91 8 -9 15 -11 15 -5 0 6 14 11 30 11 l30 0 0 80 0 80 50 0 c28 0 50 -4 50
-10 0 -5 -6 -10 -12 -10 -9 0 -8 -3 2 -10 8 -5 11 -12 7 -17 -4 -4 -17 -1 -29
6 -14 8 -24 9 -30 3 -7 -7 1 -13 25 -17 l35 -7 1 -85 c1 -76 0 -85 -15 -79
-14 5 -15 4 -4 -9 10 -12 10 -18 -1 -32 -13 -16 -12 -17 4 -4 14 11 21 11 29
3 17 -17 33 -15 18 3 -10 12 -10 18 1 32 12 15 12 16 -4 10 -16 -6 -18 0 -16
73 1 63 5 80 18 83 14 4 13 5 -1 6 -10 0 -18 9 -18 19 0 23 57 42 124 42 l46
0 0 255 0 255 -83 0 -84 0 5 30 4 30 109 0 109 0 0 -305 0 -305 -34 0 c-63 0
-61 4 -58 -159 3 -149 3 -149 -20 -154 -20 -4 -20 -4 5 -6 22 -1 27 -6 27 -26
0 -25 1 -25 85 -25 l85 0 0 -430 0 -430 -85 0 -85 0 0 -90 0 -90 -220 0 -220
0 0 95 0 95 -137 -2 -138 -2 130 -6 130 -5 -5 -600 -5 -600 -3 593 -2 592
-107 -2 -108 -2 103 -3 102 -4 0 -579 0 -580 -100 0 c-144 0 -129 -19 18 -22
l117 -2 -135 -6 -135 -5 140 -5 140 -5 -3 127 -3 127 219 0 219 0 6 -187 c4
-103 7 -280 7 -394 l0 -208 -447 -2 -448 -3 413 -2 c263 -2 412 -7 412 -13 0
-7 -199 -10 -565 -10 l-565 0 0 1285 c0 847 3 1285 10 1285 7 0 11 -436 12
-1272 l3 -1273 140 -1 140 0 -135 5 -135 6 -3 363 -2 362 215 0 214 0 4 -102
c1 -57 3 183 3 532 0 349 -2 576 -3 503 l-4 -132 -214 0 -215 0 0 427 c0 235
3 464 7 510 5 74 8 82 27 83 20 0 20 1 -1 9 -22 9 -23 14 -23 125 l0 115 112
0 111 0 -19 -22 -19 -22 27 20 c15 10 28 22 28 27 0 4 -54 7 -120 7 l-120 0
-2 38 c0 20 -2 63 -4 95 l-2 57 34 0 c27 0 34 4 34 20 0 18 8 20 98 23 53 1
21 3 -73 3 -93 0 -140 -1 -102 -3 50 -3 67 -8 67 -18 0 -12 -24 -15 -140 -15
l-140 0 0 61 c0 37 4 58 10 54 6 -3 10 1 10 9 0 13 14 16 81 16 56 0 78 -3 73
-11 -5 -8 -1 -8 13 0 14 7 24 7 33 -2 12 -10 12 -9 2 5 -9 10 -9 18 -3 22 6 4
19 -10 31 -31 11 -22 19 -29 18 -18 -2 14 7 25 29 36 18 9 28 20 24 27 -4 7
-12 8 -20 2 -9 -5 -19 -3 -28 6 -8 8 -19 14 -25 14 -6 0 0 -8 12 -18 13 -11
20 -24 16 -30 -11 -19 -20 -14 -39 18 -10 17 -15 30 -10 30 4 0 -6 9 -23 19
-18 11 -35 24 -38 30 -11 17 -24 13 -22 -6 2 -10 12 -19 23 -21 26 -4 57 -37
48 -52 -5 -8 -11 -7 -23 2 -12 10 -14 10 -8 0 6 -10 -12 -12 -82 -11 -83 1
-91 3 -96 23 -11 42 -6 93 11 107 9 8 14 9 10 3 -4 -7 0 -15 9 -18 24 -9 31
-7 14 4 -13 8 -13 10 -1 10 11 0 9 4 -5 15 -18 13 -18 14 6 9 19 -5 22 -3 10
5 -8 5 -25 8 -37 4 -22 -5 -23 -2 -23 52 0 35 4 54 10 50 6 -3 10 1 10 9 0 13
15 16 86 16 79 0 85 -1 73 -17 -13 -15 -12 -15 7 -3 12 7 27 22 34 34 12 19
12 20 -3 7 -14 -11 -20 -11 -34 0 -12 10 -15 10 -9 1 6 -9 -12 -12 -77 -11
-96 1 -97 1 -97 92 l0 47 139 0 c137 0 140 0 144 -22 4 -20 4 -19 6 5 l1 27
100 0 c60 0 100 4 100 10 0 6 -90 10 -250 10 -214 0 -250 2 -250 15 0 12 37
15 253 18 l252 2 -257 3 -258 2 0 -102z m2300 17 l0 -25 -405 0 -405 0 0 25 0
25 405 0 405 0 0 -25z m-730 -310 l0 -275 -40 0 -40 0 0 275 0 275 40 0 40 0
0 -275z m50 -110 c0 -378 0 -385 -20 -385 -20 0 -20 7 -20 385 0 378 0 385 20
385 20 0 20 -7 20 -385z m670 370 c10 -12 10 -15 -1 -15 -10 0 -10 -3 -1 -12
7 -7 12 -31 12 -54 l0 -41 -227 4 c-243 6 -229 3 -320 61 -13 8 -23 12 -23 9
0 -4 21 -19 47 -34 l48 -28 -40 -7 c-22 -4 -57 -7 -77 -7 l-38 -1 0 -64 c0
-36 -4 -68 -10 -71 -6 -4 -10 -83 -10 -206 0 -126 4 -199 10 -199 6 0 10 -20
10 -45 0 -38 -3 -45 -20 -45 -20 0 -20 7 -20 380 l0 381 23 -12 c20 -11 21
-11 8 4 -12 16 9 17 302 17 267 0 316 -2 327 -15z m-530 -426 c0 -266 -2 -293
-17 -305 -17 -13 -17 -14 0 -8 9 3 17 1 17 -4 0 -6 -18 -10 -40 -10 l-40 0 0
44 c0 42 1 44 30 44 l30 0 -2 203 -3 202 -2 -197 -3 -198 -25 0 -25 0 0 260 0
260 40 0 40 0 0 -291z m133 276 c29 -14 30 -14 13 0 -18 14 -7 15 127 15 l147
0 0 -85 c0 -59 -4 -85 -12 -85 -9 0 -9 -3 0 -12 7 -7 12 -40 12 -78 0 -38 -5
-71 -12 -78 -9 -9 -9 -12 0 -12 9 0 12 -37 12 -135 l0 -135 -100 0 -100 0 0
75 c0 78 -1 76 55 121 11 8 0 5 -25 -8 -25 -13 -54 -31 -64 -40 -19 -17 -19
-17 2 -13 21 4 22 0 22 -66 l0 -69 -95 0 c-85 0 -95 2 -95 18 0 10 6 24 13 31
10 11 10 13 0 7 -10 -6 -13 53 -13 278 l0 286 40 0 c23 0 55 -7 73 -15z
m-1663 -490 c0 -50 -4 -85 -10 -85 -6 0 -10 32 -10 75 l0 75 -90 0 -90 0 2
-252 3 -253 80 -6 80 -5 -92 -2 -93 -2 0 270 0 270 110 0 110 0 0 -85z m-56
49 c12 -5 16 -21 16 -75 0 -62 2 -69 20 -69 19 0 20 -7 20 -120 0 -98 -3 -122
-15 -126 -10 -4 -15 -20 -15 -45 l0 -39 -75 0 -75 0 0 240 0 240 54 0 c30 0
61 -3 70 -6z m1396 -134 l0 -140 -40 0 -40 0 0 140 0 140 40 0 40 0 0 -140z
m44 -75 c-4 -9 0 -15 9 -15 8 0 20 7 27 15 9 11 34 15 94 15 l81 0 3 -55 3
-55 -124 0 -125 0 1 55 c1 45 4 55 19 55 11 0 15 -5 12 -15z m6 -535 c0 -423
0 -430 -20 -430 -20 0 -20 7 -20 430 0 423 0 430 20 430 20 0 20 -7 20 -430z
m-1505 -560 l0 -775 -32 -3 c-32 -3 -33 -2 -33 33 0 28 -5 38 -20 42 -20 5
-20 14 -20 745 l0 739 53 -3 52 -3 0 -775z m66 58 c1 -392 5 -948 8 -1236 l6
-523 510 1 c281 0 581 -3 668 -6 l157 -7 0 -29 0 -28 -700 0 -700 0 0 1270 0
1270 25 0 25 0 1 -712z m16 -441 c-1 -210 -2 -38 -2 383 0 421 1 593 2 382 2
-210 2 -554 0 -765z m1273 -44 c0 -296 3 -548 6 -560 6 -20 3 -23 -25 -23
l-31 0 0 553 c0 305 3 557 7 560 3 4 15 7 25 7 17 0 18 -23 18 -537z m100 412
c0 -14 27 -20 75 -17 15 2 17 0 6 -7 -9 -6 -10 -11 -2 -15 8 -5 11 -100 11
-312 l0 -304 106 0 c100 0 106 -1 93 -17 -13 -17 -13 -17 13 0 24 15 55 17
228 17 l200 0 0 -90 c0 -65 -3 -90 -12 -91 -10 0 -10 -2 0 -6 46 -18 -24 -23
-355 -23 -338 0 -365 1 -347 16 17 14 16 14 -8 0 l-28 -16 0 440 c0 287 3 440
10 440 6 0 10 -7 10 -15z m587 -249 c1 -153 -1 -234 -9 -243 -7 -9 -7 -13 1
-13 8 0 11 -21 9 -67 l-3 -68 -114 -3 c-107 -3 -113 -2 -100 15 13 16 13 16
-11 0 -19 -14 -47 -17 -137 -17 l-113 0 0 296 c0 233 3 294 13 288 10 -6 10
-4 0 7 -35 37 -21 39 225 37 l237 -3 2 -229z m-1709 102 l3 -38 -105 0 -106 0
0 33 c0 19 3 37 7 41 4 4 50 5 103 4 l95 -3 3 -37z m222 2 l0 -40 -105 0 -105
0 0 33 c0 19 3 37 7 40 3 4 51 7 105 7 l98 0 0 -40z m730 -50 c0 -6 -12 -15
-27 -20 -38 -14 -75 -33 -50 -25 70 20 69 21 65 -21 l-3 -39 -89 -3 c-49 -2
-93 1 -98 6 -4 4 17 16 48 26 31 10 54 20 51 22 -2 2 -63 -17 -136 -42 -72
-26 -130 -48 -128 -50 2 -2 24 3 50 12 25 8 54 14 65 12 17 -3 18 -6 5 -35
l-13 -33 -80 0 c-81 0 -98 8 -57 28 20 11 20 11 -7 5 -56 -12 -22 21 48 46 76
27 84 38 11 16 -71 -22 -75 -21 -75 25 l0 40 100 0 c97 0 119 -8 83 -29 -26
-15 -4 -12 37 5 19 8 25 12 13 10 -13 -2 -23 1 -23 6 0 6 12 8 29 5 19 -4 55
3 98 18 80 28 83 28 83 15z m-730 -35 l0 -35 -77 -2 -78 -2 75 -5 75 -6 3 -37
3 -38 -78 -2 -78 -2 75 -5 75 -6 3 -37 3 -38 -105 0 -106 0 0 40 c0 37 2 40
28 41 l27 2 -27 4 c-25 4 -28 8 -28 44 0 36 2 39 28 40 l27 2 -27 4 c-24 4
-28 9 -28 39 l0 34 105 0 105 0 0 -35z m-222 -87 l3 -38 -105 0 c-105 0 -106
0 -106 24 0 55 5 57 109 54 l96 -3 3 -37z m0 -90 l3 -38 -101 0 c-109 0 -118
5 -106 55 7 26 7 26 104 23 l97 -3 3 -37z m695 6 c34 -6 37 -9 37 -40 l0 -34
-100 0 -100 0 0 40 0 40 63 0 c34 0 79 -3 100 -6z m247 -34 l0 -40 -100 0
-100 0 0 34 c0 40 6 42 128 45 l72 1 0 -40z m-940 -60 l0 -41 -102 3 c-99 3
-103 4 -106 26 -7 48 1 52 108 52 l100 0 0 -40z m220 0 l0 -40 -105 0 -105 0
0 40 0 40 105 0 105 0 0 -40z m508 -27 l-3 -38 -97 -3 -98 -3 0 41 0 40 101 0
100 0 -3 -37z m210 0 l-3 -38 -97 -3 -98 -3 0 41 0 40 101 0 100 0 -3 -37z
m-718 -58 l0 -35 -77 -2 -78 -2 75 -5 75 -6 3 -37 3 -38 -78 -2 -78 -2 75 -5
75 -6 3 -37 3 -38 -78 -2 c-63 -1 -67 -2 -23 -5 93 -5 100 -9 100 -48 l0 -35
-105 0 -105 0 12 28 c7 15 17 34 24 42 15 20 7 40 -17 40 -14 0 -19 7 -19 30
0 26 4 30 28 31 l27 2 -27 4 c-25 4 -28 8 -28 44 0 36 2 39 28 40 l27 2 -27 4
c-24 4 -28 9 -28 39 l0 34 105 0 105 0 0 -35z m508 -32 l-3 -38 -97 -3 -98 -3
0 41 0 40 101 0 100 0 -3 -37z m210 0 l-3 -38 -97 -3 -98 -3 0 41 0 40 101 0
100 0 -3 -37z m-940 -55 l3 -38 -105 0 c-105 0 -106 0 -106 24 0 55 5 57 109
54 l96 -3 3 -37z m0 -80 c3 -24 0 -28 -22 -28 -14 0 -26 -4 -26 -10 0 -6 -33
-10 -80 -10 -78 0 -80 1 -80 24 0 55 5 57 109 54 l96 -3 3 -27z m730 -35 l-3
-38 -97 -3 -98 -3 0 41 0 40 101 0 100 0 -3 -37z m212 -3 l0 -41 -97 3 -98 3
-3 38 -3 37 100 0 101 0 0 -40z m351 -605 c117 -61 74 -265 -56 -265 -18 0
-25 5 -25 20 0 17 -7 20 -47 21 -27 1 -50 1 -53 1 -11 -1 -11 157 0 178 29 53
120 76 181 45z"/>
<path d="M8400 3900 c124 -3 226 -7 228 -8 1 -1 2 -6 2 -12 0 -6 -80 -10 -220
-10 -140 0 -220 -4 -220 -10 0 -10 124 -15 294 -10 62 1 86 -1 82 -9 -4 -6 0
-11 8 -11 9 0 16 5 16 10 0 6 41 10 104 10 91 0 105 -2 109 -17 3 -10 5 3 6
30 l1 47 -317 -2 -318 -2 225 -6z"/>
<path d="M10252 3660 l-183 -5 -2 -323 c-1 -209 2 -322 8 -323 6 -1 22 0 37 1
22 1 29 -4 34 -24 6 -26 26 -37 23 -13 -4 33 2 37 60 37 l58 0 -1 -52 -1 -53
-67 2 c-58 2 -68 -1 -69 -15 0 -10 -3 -12 -6 -4 -3 7 -21 11 -46 11 l-42 -2
40 -7 40 -6 -40 -6 -40 -5 38 -1 c23 -1 36 -6 32 -12 -4 -6 25 -10 79 -10 71
0 86 -3 86 -16 0 -9 -5 -12 -12 -8 -10 6 -10 5 -1 -7 10 -12 10 -18 0 -29 -10
-12 -9 -12 4 -2 10 8 19 8 27 2 9 -7 9 -7 2 2 -6 8 -5 17 3 27 9 12 9 13 0 7
-8 -4 -13 -1 -13 8 0 13 15 16 84 16 l84 0 4 30 c3 17 1 30 -4 30 -4 0 -8 -7
-8 -15 0 -8 -4 -15 -10 -15 -5 0 -10 25 -10 55 0 41 4 55 14 55 8 0 17 6 20
13 5 10 7 10 12 0 3 -7 23 -13 45 -13 30 0 39 -4 39 -17 0 -23 13 -7 15 18 1
14 -10 27 -37 42 l-38 22 0 301 0 302 -37 3 c-21 2 -120 2 -221 -1z m112 -35
c-17 -14 -16 -14 13 0 18 8 50 15 73 15 l40 0 0 -310 0 -310 -95 0 -95 0 0 69
c0 67 1 69 23 64 l22 -6 -21 19 c-23 22 -60 44 -71 44 -5 0 1 -7 12 -16 16
-12 21 -29 24 -94 l3 -80 -101 0 -101 0 0 135 c0 98 3 135 12 135 9 0 9 3 0
12 -7 7 -12 40 -12 78 0 38 5 71 12 78 9 9 9 12 0 12 -8 0 -12 26 -12 85 l0
85 147 0 c134 0 145 -1 127 -15z"/>
<path d="M2170 2020 l0 -1000 -105 0 -105 0 0 539 0 540 -29 -10 c-20 -7 -48
-7 -87 0 -39 8 -61 8 -68 1 -5 -5 -26 -10 -46 -10 -36 0 -36 -1 -31 -32 3 -22
6 -27 9 -14 3 16 8 14 38 -15 32 -31 47 -58 24 -44 -5 3 -7 0 -4 -9 9 -24 -5
-39 -24 -24 -14 12 -14 10 1 -12 9 -14 16 -28 17 -32 0 -4 3 -15 6 -23 4 -8 1
-22 -6 -30 -10 -12 -16 -13 -29 -3 -14 12 -15 11 -2 -5 13 -17 16 -16 44 10
17 15 27 23 23 16 -3 -6 -3 -14 2 -17 4 -2 8 8 7 23 0 17 -5 27 -11 24 -6 -2
-17 3 -24 12 -11 14 -10 19 8 38 l22 21 65 -64 c36 -35 65 -67 65 -71 0 -3
-10 -11 -22 -17 l-23 -11 25 -1 c25 -1 25 -1 5 -18 -11 -9 -27 -26 -35 -37
-14 -19 -14 -19 6 -2 11 9 29 17 40 17 14 0 16 2 6 9 -11 7 -11 9 2 14 14 6
16 -8 16 -113 l0 -120 -77 0 c-65 0 -80 3 -100 22 l-23 22 47 50 48 51 -47
-44 c-39 -37 -48 -42 -54 -28 -3 10 -1 23 5 31 9 10 8 15 -4 20 -11 4 -19 -3
-25 -20 -13 -32 -12 -43 0 -24 8 12 10 9 10 -12 0 -27 -19 -51 -21 -26 -1 7
-4 0 -8 -17 -10 -43 -2 -78 14 -65 7 6 23 9 36 8 16 -2 24 2 23 12 -1 13 14
14 88 12 l89 -3 -3 -122 -3 -122 -30 3 c-33 4 -25 -13 10 -20 19 -3 20 -12 23
-126 l3 -122 -120 0 -120 0 -4 28 c-4 25 -4 25 -6 -5 l-1 -33 -60 0 -60 0 0
220 c0 213 -1 220 -20 220 -16 0 -20 7 -20 31 0 29 2 30 18 18 15 -13 16 -12
3 4 -14 18 -18 35 -20 100 -1 26 -5 37 -17 37 -13 0 -15 14 -11 103 3 56 5
107 5 112 0 6 -1 55 -2 110 l-1 100 49 5 c44 4 47 7 33 19 -11 9 -17 10 -17 2
0 -8 -152 -12 -552 -13 -304 -1 -498 -4 -430 -5 l122 -4 0 -214 c0 -118 -3
-215 -7 -215 -5 0 -7 -40 -5 -90 l3 -90 34 0 33 0 1 -225 1 -224 -153 -4 c-83
-1 223 -4 681 -5 l832 -2 0 -95 0 -95 -612 -3 -613 -2 615 0 615 0 3 98 c4
132 22 125 22 -8 l0 -105 -625 0 c-410 0 -625 -3 -625 -10 0 -14 1846 -14
1855 0 4 7 -96 10 -293 10 l-299 0 -2 105 -1 105 225 0 225 0 0 -40 0 -40 48
2 47 1 -42 4 c-42 4 -43 5 -43 39 0 31 2 34 30 34 25 0 30 -4 30 -25 0 -18 -5
-25 -19 -25 -11 0 -22 6 -24 13 -3 7 -6 4 -6 -6 -1 -14 5 -18 27 -15 22 2 28
9 31 33 4 30 4 30 11 5 l8 -25 2 25 c1 23 2 23 10 5 7 -17 9 -17 9 -2 1 9 8
17 16 17 22 0 18 17 -5 23 -11 3 -20 2 -20 -2 0 -7 -542 -2 -550 6 -6 6 -9
1908 -3 1946 l5 27 644 0 c428 0 643 -3 639 -10 -4 -7 53 -10 165 -10 112 0
169 3 165 10 -3 6 1 10 9 10 14 0 16 -100 16 -993 l0 -993 -227 3 c-126 2
-245 5 -265 6 -21 1 -38 0 -38 -3 0 -4 -115 -4 -255 -2 -183 3 -255 1 -255 -7
0 -8 57 -11 188 -12 103 -1 197 -1 210 -1 18 1 22 -4 22 -28 0 -26 4 -30 29
-30 26 0 30 4 34 33 4 31 4 31 5 -5 2 -38 2 -38 -37 -38 -29 0 -41 5 -44 17
-3 13 -5 12 -6 -5 -1 -21 2 -23 47 -20 47 3 47 3 53 43 5 39 5 39 11 10 l5
-30 2 28 1 27 209 0 210 0 4 -37 4 -38 1 38 c2 44 29 52 34 10 2 -22 9 -29 31
-31 23 -3 27 0 26 20 -1 17 -3 18 -6 5 -2 -9 -13 -17 -24 -17 -14 0 -19 7 -19
26 0 22 4 25 28 22 16 -2 30 -11 34 -23 5 -18 6 -17 8 5 2 21 4 19 10 -10 l7
-35 2 33 1 32 210 0 210 0 1 -27 1 -28 8 30 8 30 2 -35 3 -35 7 35 7 35 2 -32
c1 -31 3 -33 34 -32 30 2 30 2 5 6 -22 3 -28 10 -28 29 0 22 4 25 27 22 19 -2
29 -10 34 -28 l7 -25 1 28 1 27 220 0 c203 0 220 -1 221 -17 0 -15 2 -15 9 2
8 18 9 18 10 -5 l2 -25 8 25 c8 24 8 23 9 -7 1 -30 4 -33 31 -33 22 0 30 5 29
18 0 10 -3 12 -6 5 -2 -7 -13 -13 -24 -13 -14 0 -19 7 -19 25 l0 24 255 1
c199 0 255 -2 255 -12 0 -9 3 -8 10 2 9 13 10 13 10 0 0 -13 2 -13 9 -1 7 11
10 9 14 -10 4 -23 4 -23 6 -1 0 12 7 22 14 22 8 0 8 3 -2 9 -8 5 -370 9 -820
9 l-806 0 -3 48 c-2 31 1 50 10 55 10 7 10 9 1 9 -10 0 -13 195 -13 940 l0
940 -835 0 -835 0 0 -1000z m-1280 -45 l0 -105 -25 0 c-20 0 -25 5 -25 25 0
16 -6 25 -15 25 -12 0 -15 15 -15 73 0 41 3 77 7 80 3 4 21 7 40 7 l33 0 0
-105z m90 0 l0 -105 -32 -2 -33 -1 33 -4 32 -4 0 -105 0 -104 -40 0 -40 0 0
215 0 215 40 0 40 0 0 -105z m90 0 l0 -105 -40 0 -40 0 0 105 0 105 40 0 40 0
0 -105z m170 -1 l0 -105 -37 3 -38 3 -3 89 c-2 49 -1 95 2 103 3 7 21 13 41
13 l35 0 0 -106z m90 0 l0 -105 -37 3 -38 3 -3 89 c-2 49 -1 95 2 103 3 7 21
13 41 13 l35 0 0 -106z m90 1 l0 -105 -40 0 -40 0 0 105 0 105 40 0 40 0 0
-105z m530 -28 l0 -122 -80 80 c-73 73 -79 83 -80 120 l0 41 80 1 80 2 0 -122z
m-1060 -192 l0 -105 -40 0 -40 0 0 80 c0 64 3 80 15 80 9 0 15 9 15 25 0 20 5
25 25 25 l25 0 0 -105z m180 0 l0 -105 -40 0 -40 0 0 105 0 105 40 0 40 0 0
-105z m170 0 l0 -105 -40 0 -40 0 0 98 c0 54 3 102 7 105 3 4 21 7 40 7 l33 0
0 -105z m90 0 l0 -105 -40 0 -40 0 0 98 c0 54 3 102 7 105 3 4 21 7 40 7 l33
0 0 -105z m90 0 l0 -105 -40 0 -40 0 0 105 0 105 40 0 40 0 0 -105z m110 -197
l0 -83 -405 3 -405 2 0 75 0 75 403 3 c221 1 403 3 405 5 1 1 2 -35 2 -80z
m-580 -213 l0 -105 -40 0 -40 0 0 105 0 105 40 0 40 0 0 -105z m90 0 l0 -105
-40 0 -40 0 0 105 0 105 40 0 40 0 0 -105z m90 0 l0 -105 -40 0 -40 0 0 105 0
105 40 0 40 0 0 -105z m163 90 c-2 -6 20 -81 49 -166 l53 -154 3 58 c3 53 5
57 27 57 20 0 25 -5 25 -25 0 -16 6 -25 15 -25 12 0 15 -16 15 -81 0 -77 -1
-80 -22 -77 -15 2 -25 15 -36 46 -8 24 -16 41 -18 39 -2 -2 2 -23 11 -46 13
-39 13 -42 -2 -39 -12 2 -36 62 -85 208 -37 112 -68 208 -68 212 0 4 9 6 19 5
10 0 17 -6 14 -12z m187 -65 c0 -64 -3 -80 -15 -80 -9 0 -15 -9 -15 -25 0 -20
-5 -25 -25 -25 l-25 0 0 105 0 105 40 0 40 0 0 -80z m90 -20 c0 -55 -3 -100
-7 -100 -4 0 -22 5 -40 12 l-33 12 0 88 0 88 40 0 40 0 0 -100z m-620 -225 l0
-105 -40 0 -40 0 0 105 0 105 40 0 40 0 0 -105z m90 0 l0 -105 -40 0 -40 0 0
105 0 105 40 0 40 0 0 -105z m90 0 l0 -105 -40 0 -40 0 0 105 0 105 40 0 40 0
0 -105z m440 0 l0 -105 -40 0 -40 0 0 89 0 88 38 16 c20 8 38 15 40 16 1 1 2
-46 2 -104z"/>
<path d="M5503 1023 c-10 -3 -9 -8 2 -20 21 -20 19 -60 -2 -66 -13 -3 -11 -5
6 -6 22 -1 23 2 18 39 l-5 40 241 -1 c171 -1 244 -4 249 -12 6 -9 8 -9 8 1 0
20 50 15 51 -5 0 -16 1 -16 7 -1 6 14 33 16 245 17 l237 1 0 -40 0 -40 45 0
c25 0 45 3 45 8 0 4 -18 6 -41 4 l-40 -4 3 33 c2 29 7 35 31 37 23 3 27 0 27
-24 0 -23 -3 -26 -25 -22 -14 3 -25 1 -25 -4 0 -5 12 -8 27 -6 22 2 29 10 34
33 5 20 7 23 9 10 l1 -20 9 20 c6 13 9 15 9 5 1 -12 3 -12 10 -2 6 10 55 13
224 11 121 -1 216 2 214 7 -2 9 -1591 16 -1614 7z"/>
<path d="M2790 790 c0 -7 178 -10 514 -10 333 0 517 4 521 10 4 7 -170 10
-514 10 -341 0 -521 -3 -521 -10z"/>
<path d="M3840 790 c0 -7 278 -10 814 -10 533 0 817 3 821 10 4 7 -270 10
-814 10 -541 0 -821 -3 -821 -10z"/>
<path d="M5490 790 c0 -7 278 -10 814 -10 533 0 817 3 821 10 4 7 -270 10
-814 10 -541 0 -821 -3 -821 -10z"/>
</g>
</svg>
