<?xml version="1.0" standalone="no"?>
<!DOCTYPE svg PUBLIC "-//W3C//DTD SVG 20010904//EN"
 "http://www.w3.org/TR/2001/REC-SVG-20010904/DTD/svg10.dtd">
<svg version="1.0" xmlns="http://www.w3.org/2000/svg"
 width="300.000000pt" height="316.000000pt" viewBox="0 0 300.000000 316.000000"
 preserveAspectRatio="xMidYMid meet">
<metadata>
Created by potrace 1.10, written by Peter Selinger 2001-2011
</metadata>
<g transform="translate(0.000000,316.000000) scale(0.100000,-0.100000)"
fill="#ffffff" stroke="none">
<path d="M22 2133 c-1 -814 -5 -1032 -15 -1036 -6 -3 5 -6 25 -6 38 -1 54 -13
42 -32 -5 -8 -10 -6 -16 5 -10 18 -28 22 -28 5 0 -5 6 -7 13 -4 6 4 1 -4 -13
-17 l-25 -23 3 -362 c1 -231 6 -363 12 -363 6 0 10 119 10 330 0 235 3 330 11
330 8 0 10 -56 8 -192 -3 -122 0 -193 6 -195 6 -2 9 -59 7 -153 l-3 -150 253
0 253 0 -3 145 c-3 134 -4 145 -22 145 -10 0 -21 6 -23 13 -4 9 -6 9 -6 0 -1
-7 -9 -13 -18 -13 -15 0 -16 2 -3 10 10 6 11 10 3 10 -7 0 -14 12 -14 28 -2
26 -2 26 -6 2 -8 -48 -10 -51 -37 -38 l-26 11 3 214 2 213 -32 0 c-17 0 -34 6
-36 13 -4 9 -6 9 -6 0 -1 -9 -23 -13 -74 -13 -45 0 -78 5 -86 13 -10 10 -11 9
-6 -6 6 -14 21 -17 84 -18 42 -1 91 0 109 1 l32 2 0 -56 c0 -33 -4 -56 -11
-56 -6 0 -9 10 -7 23 1 13 -7 32 -20 45 -12 12 -22 18 -22 13 0 -6 10 -17 22
-25 22 -16 22 -16 -10 -16 -24 0 -32 -4 -31 -17 0 -11 3 -13 6 -5 7 17 43 15
43 -3 0 -10 -11 -15 -35 -15 -28 0 -35 4 -35 20 0 16 -7 20 -30 20 -23 0 -30
-4 -30 -20 0 -32 -17 -23 -24 12 -12 63 -77 98 -75 41 2 -24 2 -25 6 -5 5 26
16 28 37 6 25 -24 19 -34 -19 -34 -19 0 -35 4 -35 8 0 13 -39 52 -52 52 -6 0
1 -9 16 -21 34 -27 33 -44 -4 -44 -26 0 -30 4 -30 27 0 14 -3 34 -7 44 -5 13
-3 16 9 12 8 -4 21 -2 29 3 10 7 6 9 -16 7 -21 -2 -31 -10 -36 -28 -6 -21 -7
-20 -8 12 l-1 37 490 1 c422 0 490 -2 490 -14 0 -23 16 -27 31 -9 12 15 12 16
-5 10 -14 -6 -17 -4 -12 10 4 9 7 155 7 324 l-1 308 23 4 22 4 -22 2 -23 1 0
670 0 670 201 0 c126 0 208 -4 221 -11 13 -7 18 -7 14 -1 -5 8 92 11 309 12
l315 0 0 -77 0 -78 -95 0 -95 0 0 63 0 62 -130 0 c-71 0 -130 -3 -130 -7 0 -5
-40 -6 -90 -5 l-90 4 0 -201 c0 -122 -4 -201 -10 -201 -5 0 -14 -9 -20 -20
-15 -29 22 -65 51 -50 30 17 34 38 10 64 -11 12 -21 25 -21 29 0 4 43 7 95 7
l95 0 -1 -32 -1 -33 -8 30 -8 30 -1 -33 -1 -32 120 2 119 2 -6 25 c-8 36 -13
39 -13 8 0 -17 -5 -27 -15 -27 -8 0 -15 9 -15 20 0 21 -33 29 -44 11 -4 -5 3
-7 14 -4 11 3 20 0 20 -6 0 -6 -8 -11 -17 -12 -10 0 -33 -1 -51 -2 -28 -2 -32
1 -33 23 -2 22 -2 22 -6 4 -2 -12 -13 -24 -24 -27 -16 -4 -19 0 -19 24 l0 29
120 0 120 0 0 -25 c0 -14 -3 -25 -7 -25 -5 0 -7 -74 -6 -165 l2 -165 -170 0
-169 0 0 70 0 70 160 0 c90 0 160 4 160 9 0 5 -38 9 -85 8 -62 -2 -85 1 -85
11 0 19 -38 14 -43 -5 -4 -17 -5 -17 -6 0 -1 10 -9 17 -20 17 -11 0 -22 -8
-24 -17 -4 -17 -5 -17 -6 0 -1 21 -41 24 -41 2 0 -8 -4 -15 -10 -15 -6 0 -10
-32 -10 -75 0 -63 4 -80 21 -98 19 -20 21 -21 33 -5 11 15 13 15 24 0 10 -16
12 -16 25 1 16 19 47 23 47 6 0 -6 -7 -8 -17 -4 -15 5 -16 4 -5 -7 11 -11 16
-10 26 5 11 14 29 17 104 17 l91 0 4 -77 3 -78 2 78 c2 61 5 77 17 77 12 0 15
16 15 80 0 64 -3 80 -15 80 -12 0 -15 16 -15 80 0 64 3 80 15 80 10 0 15 11
15 35 l0 35 80 0 80 0 0 185 c0 158 2 185 15 185 8 0 15 5 15 10 0 6 -7 10
-15 10 -8 0 -15 5 -15 10 0 6 125 10 355 10 l355 0 0 -225 c0 -143 4 -225 10
-225 6 0 10 82 10 226 0 124 3 223 8 221 5 -4 8 -361 3 -464 -1 -19 -7 -23
-36 -23 -39 0 -48 21 -17 40 15 9 14 10 -7 8 -18 -2 -25 -10 -28 -30 -3 -26
-1 -28 32 -28 l35 0 0 -230 0 -230 -27 1 -28 1 25 8 c19 6 20 9 8 11 -37 5
-43 4 -40 -9 1 -7 -8 -12 -23 -12 l-25 0 -3 478 -2 477 -3 -477 -2 -478 -220
0 -220 0 0 -245 0 -245 -174 0 c-173 0 -175 0 -178 23 -3 20 -4 20 -9 -5 l-6
-28 186 0 186 0 0 -222 -1 -223 3 218 3 217 161 0 c125 0 159 -3 153 -12 -6
-10 -4 -10 7 0 7 6 33 12 56 12 l44 0 -3 -224 c-2 -123 0 -222 5 -219 4 2 7
-1 7 -6 0 -13 -112 -15 -125 -2 -6 5 -75 12 -154 14 -80 3 -139 2 -132 -2 7
-5 33 -6 57 -3 29 3 44 1 44 -7 0 -7 -25 -11 -70 -11 -63 0 -70 -2 -70 -20 0
-19 -7 -20 -100 -20 -105 0 -107 -1 -101 -47 1 -7 -3 -13 -9 -13 -7 0 -8 -6 0
-19 13 -25 13 -61 0 -61 -7 0 -5 -11 3 -27 7 -16 11 -38 9 -50 l-3 -23 -735 0
-734 0 -2 -272 -3 -273 -275 -2 c-151 -1 -269 1 -263 4 10 3 12 42 11 151 l-2
147 -3 -141 c-3 -136 -4 -142 -23 -137 -12 3 -20 0 -20 -6 0 -7 4 -9 10 -6 5
3 10 -1 10 -9 0 -14 32 -16 274 -16 233 0 275 -2 280 -15 5 -13 -33 -15 -287
-18 l-292 -2 375 -3 c206 -1 667 -3 1024 -5 l650 -2 2 -49 c3 -47 3 -48 -16
-31 -24 22 -58 11 -66 -21 -12 -47 31 -70 69 -37 20 18 20 17 14 -24 -3 -24
-1 -43 3 -43 5 0 8 65 7 145 -1 80 1 145 5 145 4 0 9 -60 10 -132 l3 -133 189
-3 c116 -1 193 1 199 7 7 7 4 12 -9 16 -10 4 -27 11 -36 16 -10 5 -61 9 -113
9 -88 0 -95 1 -95 20 0 25 17 26 23 3 4 -14 5 -12 6 5 1 16 -5 22 -19 22 -11
0 -20 -4 -20 -9 0 -6 -17 -12 -37 -14 l-38 -4 38 -1 c53 -3 46 -22 -7 -22
l-45 0 1 105 c1 102 1 105 24 105 12 0 25 -6 28 -12 5 -11 7 -11 12 0 9 19 44
15 45 -5 4 -59 3 -58 47 -61 l42 -3 0 35 0 36 55 0 55 0 0 -105 0 -105 33 0
c30 0 33 -3 32 -28 -2 -17 -1 -19 2 -5 2 12 13 25 23 28 10 3 22 15 26 27 8
28 -27 64 -53 53 -16 -7 -15 -8 7 -14 18 -5 25 -14 25 -31 0 -13 -4 -25 -10
-27 -23 -7 -36 17 -42 80 l-6 67 254 0 254 0 -3 405 c-3 286 -1 405 7 405 8 0
10 307 9 1073 l-3 1072 -2 -1032 -3 -1033 -30 0 -30 0 -3 1033 -2 1032 -3
-1032 c-2 -1026 -2 -1033 -22 -1033 -19 0 -20 7 -20 215 0 184 2 215 15 215
10 0 15 10 15 30 0 20 -5 30 -15 30 -13 0 -15 31 -15 220 0 189 2 220 15 220
10 0 15 10 15 30 0 17 -5 30 -10 30 -6 0 -8 -11 -4 -25 4 -15 2 -25 -5 -25 -6
0 -11 3 -11 8 0 22 -1 540 0 741 0 203 2 232 15 227 11 -4 15 2 15 24 0 20 -5
30 -15 30 -11 0 -15 12 -15 45 0 25 -5 45 -11 45 -6 0 -9 -17 -7 -42 l3 -43
-48 -3 c-27 -2 -45 -7 -42 -13 4 -5 -109 -9 -295 -9 -281 0 -301 1 -299 18 4
39 -2 62 -15 62 -21 0 -66 -40 -65 -58 0 -11 2 -12 6 -4 7 17 23 15 23 -3 0
-11 -11 -15 -36 -15 -34 0 -36 2 -30 25 5 18 2 25 -9 25 -9 0 -14 -8 -12 -22
l2 -23 -254 -3 c-247 -2 -255 -2 -277 19 -18 17 -26 19 -43 10 -12 -7 -21 -16
-21 -21 0 -6 -20 -10 -45 -10 l-45 0 0 40 c0 27 -4 40 -14 40 -21 0 -66 -40
-65 -58 0 -11 2 -12 6 -4 7 17 23 15 23 -3 0 -11 -11 -15 -36 -15 -34 0 -36 2
-30 25 5 19 2 25 -9 25 -11 0 -14 -6 -9 -25 l6 -25 -522 0 c-345 0 -519 3
-515 10 4 6 -12 10 -39 10 l-46 0 0 45 c0 25 -4 45 -10 45 -5 0 -10 -20 -10
-45 0 -33 -4 -45 -15 -45 -10 0 -15 -10 -15 -31 0 -24 4 -30 15 -25 13 5 15
-24 15 -219 0 -195 -2 -224 -15 -219 -11 5 -15 -1 -15 -25 0 -21 5 -31 15 -31
13 0 15 -31 15 -220 0 -191 -2 -219 -15 -214 -11 5 -15 -1 -15 -25 0 -21 5
-31 15 -31 13 0 15 -31 15 -217 0 -120 3 -228 6 -240 5 -17 2 -23 -11 -23 -12
0 -15 5 -10 20 4 11 2 20 -4 20 -6 0 -11 -13 -11 -30 0 -20 5 -30 15 -30 13 0
15 -30 15 -211 0 -118 4 -208 9 -205 5 3 9 107 9 232 0 124 3 228 6 232 3 3 6
-8 6 -24 0 -16 1 -136 2 -267 2 -130 0 -237 -4 -237 -5 0 -8 11 -8 25 0 21 -5
25 -30 25 l-30 0 -3 1033 -2 1032 -3 -1032z m1308 952 c0 -25 -4 -35 -16 -35
-12 0 -15 6 -10 25 4 17 2 25 -6 25 -9 0 -8 3 2 10 25 16 30 12 30 -25z m820
0 c0 -25 -4 -35 -16 -35 -12 0 -15 6 -10 25 4 17 2 25 -6 26 -10 0 10 13 30
18 1 1 2 -15 2 -34z m-660 -19 c0 -2 3 -11 6 -19 5 -13 -7 -15 -73 -14 -43 0
-59 2 -36 4 23 2 47 11 53 19 11 12 50 20 50 10z m-1410 -21 c0 -8 -7 -15 -15
-15 -16 0 -20 12 -8 23 11 12 23 8 23 -8z m88 -2 c2 -8 -5 -13 -16 -13 -53 0
-52 4 -52 -236 0 -143 4 -224 10 -224 6 0 10 82 10 225 l0 225 450 0 450 0 0
-170 0 -170 -49 0 c-34 0 -55 -6 -67 -17 -10 -10 -20 -17 -23 -15 -3 1 -6 -5
-6 -15 0 -9 6 -18 13 -20 6 -3 12 2 12 11 0 8 4 18 10 21 6 3 7 -1 4 -9 -4 -9
-1 -16 6 -16 8 0 11 9 8 25 -5 24 -3 25 43 25 l49 0 0 -305 0 -305 -227 -2
c-126 -1 -189 -4 -140 -5 l87 -4 2 -237 3 -237 2 238 3 237 135 0 135 0 0
-100 c0 -110 5 -102 -70 -102 l-35 0 34 -6 34 -7 0 -127 c-1 -124 0 -128 21
-128 19 -1 19 -2 4 -11 -22 -12 -24 -39 -3 -39 13 0 15 -32 15 -224 0 -123 -3
-231 -6 -240 -5 -14 -34 -16 -219 -16 -162 0 -214 3 -218 13 -3 10 -9 9 -26 0
-15 -9 -79 -13 -225 -13 l-203 0 -7 38 c-3 20 -6 124 -6 230 0 190 0 192 21
192 26 0 48 26 49 58 0 19 -5 22 -35 22 l-35 0 0 220 0 220 35 0 c30 0 35 3
35 24 0 30 -9 36 -35 25 -17 -6 -17 -8 -2 -8 27 -1 21 -31 -7 -31 l-25 0 -1
240 -1 240 36 0 c31 0 35 3 35 25 0 25 -24 44 -38 30 -4 -4 -1 -10 6 -12 20
-7 14 -33 -8 -33 -12 0 -20 7 -21 18 -1 16 -2 16 -6 0 -6 -25 -23 -22 -25 5
-4 67 -5 447 -1 475 5 31 8 33 41 30 20 -2 37 -9 40 -15z m2712 2 c0 -18 -30
-20 -31 -2 0 10 -2 10 -6 0 -5 -14 -83 -18 -83 -5 0 17 15 22 67 22 40 0 53
-4 53 -15z m-1962 -12 c-137 -2 -359 -2 -496 0 -136 1 -24 2 248 2 272 0 384
-1 248 -2z m350 0 c-10 -2 -26 -2 -35 0 -10 3 -2 5 17 5 19 0 27 -2 18 -5z
m65 0 c-7 -2 -19 -2 -25 0 -7 3 -2 5 12 5 14 0 19 -2 13 -5z m540 0 c-68 -2
-178 -2 -245 0 -68 1 -13 3 122 3 135 0 190 -2 123 -3z m194 1 c-3 -3 -12 -4
-19 -1 -8 3 -5 6 6 6 11 1 17 -2 13 -5z m86 -1 c-7 -2 -19 -2 -25 0 -7 3 -2 5
12 5 14 0 19 -2 13 -5z m420 0 c-72 -2 -194 -2 -270 0 -76 1 -16 3 132 3 149
0 211 -2 138 -3z m170 0 c-7 -2 -19 -2 -25 0 -7 3 -2 5 12 5 14 0 19 -2 13 -5z
m-855 -237 l3 -175 -121 0 c-120 0 -121 1 -113 22 9 28 11 275 1 303 -3 12 -5
24 -3 25 2 2 54 3 117 2 l113 -2 3 -175z m-248 -6 l0 -170 -85 0 -85 0 1 105
1 105 34 0 c40 0 43 -12 9 -45 -13 -14 -20 -25 -15 -25 12 0 50 50 50 66 0 10
-13 14 -40 14 l-40 0 0 60 0 60 85 0 85 0 0 -170z m440 -55 l0 -115 -90 0 -90
0 0 115 0 115 90 0 90 0 0 -115z m-153 -172 c-3 -10 -5 -4 -5 12 0 17 2 24 5
18 2 -7 2 -21 0 -30z m-438 -1 c12 -23 -1 -45 -25 -40 -23 4 -31 37 -12 49 19
13 26 11 37 -9z m-1409 -18 c0 -17 -22 -14 -28 4 -2 7 3 12 12 12 9 0 16 -7
16 -16z m17 -386 c-1 -68 -3 -13 -3 122 0 135 2 190 3 123 2 -68 2 -178 0
-245z m2740 30 c-1 -62 -3 -12 -3 112 0 124 2 174 3 113 2 -62 2 -164 0 -225z
m-1237 202 c0 -5 -4 -10 -10 -10 -5 0 -10 5 -10 10 0 6 5 10 10 10 6 0 10 -4
10 -10z m50 0 c0 -5 -4 -10 -10 -10 -5 0 -10 5 -10 10 0 6 5 10 10 10 6 0 10
-4 10 -10z m50 0 c0 -5 -4 -10 -10 -10 -5 0 -10 5 -10 10 0 6 5 10 10 10 6 0
10 -4 10 -10z m230 -90 c0 -40 -4 -70 -10 -70 -6 0 -10 30 -10 70 0 40 4 70
10 70 6 0 10 -30 10 -70z m-330 -90 c0 -5 -4 -10 -10 -10 -5 0 -10 5 -10 10 0
6 5 10 10 10 6 0 10 -4 10 -10z m50 0 c0 -5 -4 -10 -10 -10 -5 0 -10 5 -10 10
0 6 5 10 10 10 6 0 10 -4 10 -10z m-1570 -156 c0 -17 -22 -14 -28 4 -2 7 3 12
12 12 9 0 16 -7 16 -16z m2725 -14 l-50 -7 47 -1 48 -2 -1 -220 -1 -220 -48 0
c-44 0 -47 -2 -46 -25 2 -34 16 -44 16 -12 0 22 5 27 25 27 20 0 25 -5 25 -25
0 -18 -5 -25 -20 -25 -11 0 -20 -4 -20 -10 0 -5 9 -10 20 -10 19 0 20 -7 20
-209 0 -204 -1 -209 -20 -204 -29 8 -51 -3 -43 -22 3 -9 9 -12 12 -7 3 6 17
12 31 13 l25 4 2 243 c1 134 4 247 8 250 3 4 10 0 15 -8 7 -11 10 -12 10 -2 0
7 5 10 10 7 15 -9 12 -23 -6 -27 -13 -3 -15 -33 -16 -233 0 -207 1 -230 16
-227 10 2 16 -4 16 -18 0 -21 -19 -29 -21 -7 0 9 -2 10 -6 0 -3 -10 -62 -13
-244 -13 -208 0 -238 -2 -233 -15 4 -8 1 -15 -5 -15 -6 0 -11 9 -11 20 0 11 5
20 12 20 6 0 9 3 5 6 -3 3 -15 0 -26 -8 -27 -19 -91 -12 -91 11 0 14 2 14 10
1 5 -8 10 -10 10 -4 0 17 251 19 261 2 7 -10 9 -10 9 0 0 17 147 17 153 0 2
-7 6 -11 8 -8 2 3 2 226 -1 495 -3 297 -6 396 -8 250 l-2 -240 -215 0 -215 0
0 243 0 242 293 -2 c160 0 270 -4 242 -8z m-2705 -232 c0 -122 -3 -218 -7
-215 -3 4 -6 103 -5 220 1 243 1 217 7 217 3 0 5 -100 5 -222z m917 26 c-3 -3
-12 -4 -19 -1 -8 3 -5 6 6 6 11 1 17 -2 13 -5z m3 -44 c0 -20 -5 -30 -15 -30
-10 0 -15 10 -15 30 0 20 5 30 15 30 10 0 15 -10 15 -30z m0 -75 c0 -24 -5
-35 -15 -35 -15 0 -22 50 -8 63 15 15 23 5 23 -28z m0 -85 c0 -26 -4 -40 -13
-40 -8 0 -14 15 -15 40 -2 30 1 40 13 40 11 0 15 -11 15 -40z m-860 -75 c0
-20 -5 -25 -25 -25 -20 0 -25 5 -25 25 0 20 5 25 25 25 20 0 25 -5 25 -25z
m860 -5 c0 -5 -4 -10 -10 -10 -5 0 -10 5 -10 10 0 6 5 10 10 10 6 0 10 -4 10
-10z m1513 -457 c-23 -2 -64 -2 -90 0 -26 2 -7 3 42 3 50 0 71 -1 48 -3z m427
-33 c0 -24 -4 -30 -21 -30 -24 0 -49 22 -49 44 0 12 10 16 35 16 32 0 35 -2
35 -30z m-60 -42 c0 -20 -1 -20 -12 -5 -9 11 -32 17 -73 20 l-60 3 73 2 c68 2
72 1 72 -20z m-780 -9 c0 -21 -20 -27 -21 -6 0 10 -2 10 -6 0 -7 -19 -33 -15
-33 5 0 12 9 17 30 18 23 1 30 -3 30 -17z m109 16 c-3 -2 -14 -6 -25 -8 -10
-1 -23 -5 -29 -8 -24 -14 -45 -18 -45 -9 0 6 10 10 23 11 21 1 21 1 -3 9 -19
6 -13 8 29 9 30 1 52 -1 50 -4z m66 -5 c3 -5 14 -10 23 -10 15 0 15 2 2 10
-12 8 -11 10 8 10 12 0 22 -4 22 -10 0 -5 16 -10 35 -10 l34 0 4 -67 3 -68 2
72 c2 67 1 72 -20 76 -20 4 -19 4 5 6 l27 1 0 -80 c0 -47 -4 -80 -10 -80 -5 0
-10 -18 -10 -40 0 -48 -25 -56 -32 -10 -3 17 -1 30 3 30 4 0 6 8 5 17 -3 20
-26 30 -26 11 -1 -7 -8 3 -17 22 -10 23 -17 30 -21 21 -3 -8 0 -17 7 -19 6 -2
11 -13 11 -25 0 -13 -3 -17 -8 -11 -10 15 -57 30 -48 15 4 -6 1 -11 -6 -12
-10 0 -10 -2 1 -6 10 -4 10 -7 1 -13 -8 -5 -7 -9 5 -13 9 -4 13 -3 10 3 -3 6
-1 10 5 10 6 0 8 5 4 13 -6 9 -5 9 7 0 8 -7 26 -10 40 -7 13 2 18 1 10 -2 -10
-5 -11 -8 -1 -14 7 -4 9 -13 5 -20 -6 -10 -11 -8 -22 6 -13 18 -15 18 -24 2
-5 -10 -16 -15 -24 -12 -9 4 -15 0 -15 -10 0 -9 -4 -16 -10 -16 -9 0 -16 56
-11 90 8 51 8 70 1 70 -5 0 -11 17 -13 38 -3 22 -5 12 -5 -28 0 -36 -1 -69 -1
-75 -1 -5 -16 -10 -33 -10 -19 1 -32 6 -31 12 2 7 -6 15 -17 18 -11 4 -20 10
-20 15 0 6 -11 5 -26 0 -49 -19 -64 -13 -61 23 2 29 5 32 37 32 26 0 37 -5 42
-20 5 -17 6 -16 7 6 1 21 9 28 42 39 22 8 42 17 45 22 7 11 52 10 59 -2z m318
3 c-29 -2 -78 -2 -110 0 -32 2 -8 3 52 3 61 0 87 -1 58 -3z m120 0 c-13 -2
-33 -2 -45 0 -13 2 -3 4 22 4 25 0 35 -2 23 -4z m105 -40 c2 -21 -2 -40 -10
-44 -10 -7 -10 -9 0 -9 9 0 12 -19 11 -64 -1 -49 -5 -63 -15 -59 -9 3 -14 30
-16 91 l-3 86 -67 -3 c-55 -2 -68 0 -68 13 0 12 15 16 68 19 37 2 74 4 82 5
12 1 17 -8 18 -35z m42 -83 l0 -120 -175 0 c-110 0 -175 -4 -175 -10 0 -5 9
-10 20 -10 18 0 25 -11 21 -33 -1 -5 3 -6 8 -2 6 3 8 12 4 20 -5 15 1 17 82
17 81 0 83 -1 78 -22 -3 -11 0 -20 6 -20 6 0 10 3 10 8 -3 20 3 30 24 34 22 4
22 3 22 -113 0 -64 -3 -115 -7 -112 -5 2 -8 0 -8 -6 0 -5 10 -12 23 -14 13 -3
8 -5 -15 -6 -34 -1 -38 2 -39 24 -2 38 -3 43 -13 52 -5 5 -6 -10 -2 -34 l6
-43 -72 2 c-70 2 -71 2 -15 5 76 5 74 23 -3 23 -47 0 -60 -3 -60 -15 0 -11
-11 -15 -40 -15 -29 0 -40 4 -40 15 0 11 -12 15 -50 15 -47 0 -50 -2 -50 -25
0 -19 -6 -25 -22 -26 l-23 -2 23 -4 c21 -4 32 -33 13 -33 -5 0 -17 -3 -26 -6
-11 -5 -16 -2 -15 7 5 31 -1 39 -30 39 -26 0 -30 4 -30 28 0 25 -2 27 -42 26
-41 -1 -43 -3 -43 -33 0 -31 0 -31 -55 -31 l-55 0 2 117 c1 65 2 139 2 166 1
43 3 47 26 47 17 0 25 -5 25 -17 0 -14 -2 -15 -9 -5 -6 10 -10 10 -20 -2 -20
-24 -3 -41 20 -20 30 27 25 54 -11 54 -23 0 -30 4 -30 20 0 18 7 20 70 20 l70
0 0 -40 c0 -34 3 -40 21 -40 11 0 29 10 40 23 l19 22 19 -22 c11 -13 29 -23
40 -23 12 0 21 -4 21 -10 0 -5 11 -9 25 -8 27 2 35 18 10 18 -10 0 -15 11 -15
35 0 24 5 35 15 35 8 0 15 5 15 10 0 6 -4 10 -10 10 -6 0 -9 30 -8 73 l2 72 5
-70 5 -70 6 70 6 70 2 -92 c2 -109 22 -129 22 -23 0 39 3 70 8 70 4 0 6 -35 5
-77 -2 -69 -4 -78 -22 -81 -12 -2 -21 4 -24 15 -3 12 -5 8 -6 -10 l-1 -27 206
0 c154 1 204 4 195 13 -15 15 -15 189 1 205 7 7 13 12 15 12 2 0 3 -54 3 -120z
m60 -145 l5 270 3 -278 c1 -184 -1 -276 -8 -272 -6 3 -10 -4 -10 -17 0 -18 2
-20 10 -8 7 10 10 -13 10 -76 0 -74 -3 -91 -15 -91 -13 0 -15 47 -13 371 l3
371 5 -270 5 -270 5 270z m-280 240 c0 -12 -14 -15 -64 -15 -36 0 -68 5 -71
10 -3 6 -12 10 -18 10 -7 0 -6 -4 3 -10 13 -8 12 -10 -2 -10 -18 0 -23 11 -11
23 3 4 42 7 85 7 63 0 78 -3 78 -15z m238 -197 c-1 -139 -3 -172 -8 -118 l-6
75 -2 -77 -2 -78 -30 0 -30 0 0 80 0 80 28 1 c15 1 30 1 35 0 4 0 7 51 7 114
0 63 2 115 5 115 3 0 4 -87 3 -192z m-338 147 c0 -28 27 -45 40 -25 15 25 30
-2 30 -56 0 -51 -1 -54 -25 -54 -32 0 -34 31 -2 54 12 10 1 6 -25 -9 l-48 -26
0 71 c0 56 3 70 15 70 9 0 15 -9 15 -25z m70 2 c0 -16 -3 -18 -12 -9 -15 15
-32 16 -23 2 3 -5 -1 -10 -9 -10 -8 0 -14 8 -13 19 1 13 9 18 29 19 22 0 28
-4 28 -21z m31 -4 l2 -28 4 28 c9 55 21 25 22 -53 1 -79 0 -80 -24 -80 -24 0
-25 1 -24 80 0 44 5 80 10 80 5 0 10 -12 10 -27z m98 24 c-2 -2 -16 -11 -31
-20 -27 -17 -28 -17 -28 3 0 16 7 20 32 20 17 0 29 -1 27 -3z m41 -68 l0 -70
-30 17 c-19 12 -25 21 -18 25 6 4 -1 6 -15 6 -25 -2 -25 -2 -6 -20 10 -10 19
-23 19 -30 0 -9 2 -9 8 0 6 10 12 10 28 -2 17 -13 15 -14 -33 -15 l-53 0 0 54
c0 50 2 55 38 79 57 40 62 37 62 -44z m-2590 -101 l0 -118 -35 0 -35 0 0 118
0 117 35 0 35 0 0 -117z m80 107 c0 -8 -9 -15 -20 -15 -11 0 -20 7 -20 15 0 8
9 15 20 15 11 0 20 -7 20 -15z m-160 -110 l0 -115 -35 0 -35 0 0 115 0 115 35
0 35 0 0 -115z m1961 93 c0 -10 2 -10 6 0 7 17 23 15 23 -3 0 -10 -10 -15 -30
-15 -29 0 -38 9 -23 23 10 11 23 8 24 -5z m59 0 c0 7 5 10 11 6 8 -4 7 -9 -2
-15 -15 -9 -29 -3 -29 14 0 7 4 6 10 -3 7 -11 10 -11 10 -2z m-1910 -18 c0 -5
-4 -10 -10 -10 -5 0 -10 5 -10 10 0 6 5 10 10 10 6 0 10 -4 10 -10z m80 -10
c0 -16 7 -20 30 -20 23 0 30 4 30 20 0 11 5 20 10 20 6 0 10 -33 10 -80 l0
-80 -75 0 -75 0 0 80 0 80 35 0 c28 0 35 -4 35 -20z m50 5 c0 -8 -9 -15 -20
-15 -11 0 -20 7 -20 15 0 8 9 15 20 15 11 0 20 -7 20 -15z m1722 -76 c3 -67 2
-70 -18 -62 -20 7 -20 123 0 123 10 0 15 -17 18 -61z m478 36 c0 -9 -9 -15
-22 -15 -22 1 -23 1 -4 15 25 19 26 19 26 0z m-2333 -41 c-3 -47 -15 -43 -13
5 0 22 4 37 8 35 4 -3 7 -21 5 -40z m1870 -21 c-3 -10 -5 -2 -5 17 0 19 2 27
5 18 2 -10 2 -26 0 -35z m-1089 -202 c2 -171 -1 -237 -9 -242 -7 -4 -99 -7
-206 -7 -107 0 -197 -2 -200 -6 -3 -3 89 -5 205 -3 l212 2 -1 -25 c-1 -14 -3
-18 -5 -10 -4 12 -21 15 -74 15 -55 0 -70 -3 -71 -15 -1 -13 -2 -13 -5 0 -4
12 -21 15 -74 15 -55 0 -70 -3 -71 -15 -1 -13 -2 -13 -6 1 -3 12 -15 14 -63
11 l-60 -4 0 261 0 261 213 -2 212 -3 3 -234z m92 231 c0 -5 -6 -17 -14 -27
-12 -17 -16 -18 -32 -5 -16 14 -16 13 -5 -8 12 -23 14 -23 32 -7 10 10 21 26
24 36 6 17 19 19 155 19 l148 0 0 -76 c0 -41 3 -78 6 -81 3 -4 6 30 6 75 0 59
4 82 13 82 9 0 12 -53 10 -237 0 -131 -2 -241 -2 -244 -1 -4 -89 -7 -196 -7
-108 1 -198 -2 -202 -5 -3 -4 156 -6 353 -6 521 0 496 0 488 -12 -4 -7 -29
-10 -65 -7 -48 4 -59 1 -60 -11 0 -14 -1 -14 -7 -1 -5 11 -24 15 -75 15 -53 0
-67 -3 -68 -15 0 -13 -1 -13 -7 0 -5 11 -24 15 -75 15 -53 0 -67 -3 -68 -15 0
-13 -1 -13 -7 0 -5 11 -24 15 -75 15 -52 0 -67 -3 -68 -15 -1 -13 -2 -13 -5 0
-4 12 -21 15 -74 15 -55 0 -70 -3 -71 -15 -1 -13 -2 -13 -5 0 -4 12 -18 14
-69 12 l-64 -4 -1 261 -1 261 41 0 c22 0 40 -4 40 -8z m389 -9 c-3 -36 4 -157
8 -125 3 19 10 32 19 32 9 0 14 10 14 28 0 15 6 40 13 55 l12 27 244 0 244 0
-8 -72 c-4 -40 -7 -90 -6 -110 2 -34 -1 -38 -23 -38 -13 0 -27 6 -29 13 -3 6
-6 1 -6 -13 -1 -14 10 -38 24 -54 19 -22 22 -32 14 -43 -16 -18 -22 -16 -15 5
5 14 4 14 -9 -2 -21 -27 -19 -58 5 -88 19 -25 19 -26 0 -43 -11 -10 -20 -23
-20 -30 0 -9 -64 -11 -247 -11 l-248 1 -5 238 c-3 131 -3 241 -1 243 10 10 22
2 20 -13z m51 4 c0 -14 -20 -37 -32 -37 -4 0 -8 11 -8 25 0 18 5 25 20 25 11
0 20 -6 20 -13z m-1310 -57 c0 -5 -4 -10 -10 -10 -5 0 -10 5 -10 10 0 6 5 10
10 10 6 0 10 -4 10 -10z m1283 -15 c-3 -9 -8 -14 -10 -11 -3 3 -2 9 2 15 9 16
15 13 8 -4z m-1233 -20 c0 -18 -36 -20 -43 -2 -3 7 -6 5 -6 -5 -1 -13 7 -18
29 -18 23 0 30 4 30 20 0 11 5 20 10 20 6 0 10 -9 10 -20 0 -16 7 -20 30 -20
23 0 30 4 30 20 0 11 5 20 10 20 6 0 10 -28 10 -65 l0 -65 -176 0 -176 0 6 23
c3 12 6 32 6 45 0 18 6 22 30 22 37 0 38 -12 4 -39 -15 -12 -22 -21 -15 -21
14 0 51 36 51 50 0 6 16 10 35 10 36 0 46 -15 23 -38 -19 -19 -36 -14 -41 11
-3 16 -5 13 -6 -10 -1 -27 2 -31 17 -26 31 11 52 35 58 69 6 31 10 34 40 34
24 0 34 -5 34 -15z m80 0 c0 -8 -9 -15 -20 -15 -11 0 -20 7 -20 15 0 8 9 15
20 15 11 0 20 -7 20 -15z m1721 -95 c-1 -58 1 -207 5 -331 l7 -227 174 0 c96
0 177 -3 181 -6 3 -3 -81 -6 -186 -6 l-190 0 -1 131 c-1 101 -5 134 -16 146
-12 12 -15 50 -15 209 0 194 0 195 21 192 21 -3 22 -8 20 -108z m815 -96 c-2
-11 -11 -20 -22 -22 -16 -3 -17 -1 -4 7 12 9 11 11 -7 11 -12 0 -25 5 -29 12
-4 6 -3 8 4 4 6 -3 13 -2 17 4 4 6 -5 10 -19 10 -16 0 -26 6 -26 15 0 18 21
20 40 3 12 -11 12 -10 1 5 -11 14 -11 17 3 17 9 0 17 -7 17 -15 3 -29 4 -33
13 -42 5 -5 6 2 3 17 -4 14 -7 31 -7 38 0 7 -16 13 -42 14 l-43 1 45 6 45 6 7
-36 c4 -20 5 -45 4 -55z m-2481 36 c4 -17 17 -38 29 -47 20 -16 21 -19 9 -44
-8 -16 -11 -39 -7 -53 8 -32 31 -53 45 -39 7 7 4 15 -8 24 -17 13 -17 13 -3
-5 13 -17 13 -19 0 -14 -8 2 -16 14 -18 26 -3 18 2 22 22 22 21 0 26 -5 26
-24 0 -14 -5 -28 -11 -32 -8 -4 -8 -9 0 -17 6 -6 11 -21 11 -34 0 -18 -6 -23
-24 -23 -14 0 -28 5 -32 12 -4 6 -3 8 3 5 6 -4 18 2 27 12 13 14 14 21 5 27
-12 7 -42 -21 -52 -49 -9 -25 -20 5 -19 53 0 28 -3 50 -7 50 -5 0 -6 -11 -3
-25 2 -15 0 -25 -7 -25 -22 0 -12 50 12 60 20 8 21 9 2 10 -20 1 -20 1 0 10
17 7 17 9 3 9 -15 1 -18 11 -18 66 l0 64 -117 4 -118 3 122 2 121 2 7 -30z
m1613 -4 l-1 -33 -23 26 c-24 29 -23 41 6 41 16 0 19 -7 18 -34z m-1588 8 c0
-8 4 -13 9 -10 5 3 9 -6 9 -19 0 -32 -4 -31 -23 5 -18 34 -18 40 -5 40 6 0 10
-7 10 -16z m-263 -74 c-4 -49 -3 -80 3 -80 6 0 10 -25 10 -55 l0 -55 -65 0
-65 0 0 135 0 135 61 0 62 0 -6 -80z m20 48 c-3 -7 -5 -2 -5 12 0 14 2 19 5
13 2 -7 2 -19 0 -25z m53 -23 c0 -48 -2 -55 -20 -55 -15 0 -20 7 -20 25 0 17
6 25 18 25 16 1 16 1 0 11 -25 14 -23 49 2 49 18 0 20 -7 20 -55z m17 -27 c-2
-18 -4 -6 -4 27 0 33 2 48 4 33 2 -15 2 -42 0 -60z m53 27 c0 -33 -4 -55 -11
-55 -6 0 -10 12 -9 28 4 58 -4 74 -10 22 l-7 -55 -1 58 c-2 51 0 57 18 57 18
0 20 -7 20 -55z m17 -27 c-2 -18 -4 -6 -4 27 0 33 2 48 4 33 2 -15 2 -42 0
-60z m52 55 l-1 -28 -8 25 c-8 24 -8 24 -9 3 -1 -31 -21 -29 -21 2 0 18 5 25
20 25 15 0 20 -6 19 -27z m116 4 c-2 -28 -12 -47 -27 -47 -6 0 -8 3 -5 7 4 3
2 12 -4 20 -14 17 2 17 21 1 8 -7 7 -4 -3 8 -22 26 -21 34 1 34 12 0 17 -7 17
-23z m35 -112 c0 -83 -4 -135 -10 -135 -6 0 -10 52 -10 135 0 83 4 135 10 135
6 0 10 -52 10 -135z m1744 84 c8 -41 8 -173 0 -233 -6 -40 -10 -46 -30 -46
l-24 0 0 155 0 155 24 0 c18 0 25 -7 30 -31z m143 -186 c-1 -43 -3 -10 -3 72
0 83 2 118 3 78 2 -40 2 -107 0 -150z m68 207 c4 -6 -5 -10 -19 -10 -14 0 -26
-4 -26 -10 0 -5 7 -10 15 -10 12 0 15 -16 15 -84 0 -80 1 -85 23 -88 21 -3 20
-4 -8 -20 -16 -10 -25 -17 -20 -18 6 0 24 9 40 20 20 13 47 20 83 20 49 0 52
-1 52 -25 l0 -26 -92 3 -93 3 -6 105 -5 105 -2 -112 -2 -113 145 0 c90 0 145
4 145 10 0 6 5 10 10 10 6 0 10 -7 10 -15 0 -13 -24 -15 -160 -15 l-160 0 0
133 c0 74 3 137 7 140 10 10 41 8 48 -3z m-2298 -67 c-3 -10 -5 -4 -5 12 0 17
2 24 5 18 2 -7 2 -21 0 -30z m173 12 c0 -14 -4 -25 -10 -25 -5 0 -10 11 -10
25 0 14 5 25 10 25 6 0 10 -11 10 -25z m17 -12 c-3 -10 -5 -4 -5 12 0 17 2 24
5 18 2 -7 2 -21 0 -30z m1643 17 c0 -22 -34 -28 -46 -8 -4 6 -3 8 3 5 6 -4 16
0 23 8 16 20 20 19 20 -5z m580 -15 l0 -35 -25 16 c-14 9 -25 24 -25 33 0 13
-2 13 -9 2 -7 -10 -14 -11 -32 -2 l-24 12 23 -17 c12 -9 22 -23 22 -30 0 -8 5
-14 11 -14 5 0 7 5 4 10 -9 15 2 12 30 -6 20 -13 25 -25 25 -55 0 -33 -3 -39
-22 -39 -21 0 -21 0 -2 16 17 15 17 15 -8 0 -15 -9 -41 -16 -58 -16 l-30 0 0
80 0 80 60 0 60 0 0 -35z m69 -45 c0 -44 -4 -80 -9 -80 -4 0 -8 32 -9 71 0 40
-3 74 -6 77 -3 3 -5 -13 -5 -36 0 -33 -3 -40 -15 -36 -10 4 -15 20 -15 45 0
37 2 39 30 39 l29 0 0 -80z m61 68 c0 -16 -9 -29 -32 -47 -16 -12 -18 -10 -18
23 0 32 3 36 25 36 14 0 25 -6 25 -12z m50 7 c0 -2 -9 -9 -20 -15 -16 -9 -20
-8 -20 5 0 8 9 15 20 15 11 0 20 -2 20 -5z m77 -17 c20 -19 23 -31 23 -100 0
-70 -2 -78 -19 -78 -26 0 -31 19 -31 111 0 70 -2 78 -17 72 -11 -4 -12 -8 -5
-11 17 -5 16 -92 0 -92 -9 0 -10 -3 -2 -8 6 -4 13 -22 16 -39 l5 -33 -54 0
c-29 0 -53 -4 -53 -10 0 -5 -16 -10 -35 -10 -31 0 -35 3 -35 25 0 24 3 25 59
25 33 0 63 -4 66 -10 3 -5 12 -10 18 -9 7 0 8 2 2 5 -6 2 -9 40 -7 94 3 84 5
90 25 90 11 0 31 -10 44 -22z m-518 5 c-6 -35 2 -45 31 -41 17 3 30 1 30 -4 0
-4 -10 -9 -22 -9 l-23 -2 23 -4 c17 -3 22 -11 22 -34 0 -24 -4 -29 -25 -29
-17 0 -25 6 -26 18 -1 16 -2 16 -6 0 -3 -11 -14 -18 -29 -18 -20 0 -24 5 -24
30 0 20 5 30 15 30 22 0 30 -4 28 -12 -2 -5 4 -8 12 -8 9 0 12 6 9 15 -6 15
-16 19 -46 16 -14 -2 -18 5 -18 28 0 26 4 31 25 31 14 0 24 -3 24 -7z m-1869
-18 c-7 -9 -15 -13 -17 -11 -7 7 7 26 19 26 6 0 6 -6 -2 -15z m30 -10 c0 -20
-5 -25 -27 -25 l-26 0 23 25 c13 14 25 25 27 25 2 0 3 -11 3 -25z m1700 14 c0
-5 -22 -9 -50 -9 -27 0 -50 4 -50 9 0 5 23 9 50 9 28 1 50 -3 50 -9z m580 -58
l0 -68 -50 -2 c-38 0 -50 3 -50 14 0 18 12 19 28 3 6 -6 15 -9 18 -5 4 3 -5
12 -20 18 -14 7 -26 20 -26 30 0 21 28 39 49 31 8 -3 11 0 7 6 -5 8 28 42 41
42 2 0 3 -31 3 -69z m-762 10 c-2 -31 -21 -32 -38 -1 -11 20 -4 30 22 30 14 0
18 -7 16 -29z m160 22 c-15 -2 -42 -2 -60 0 -18 2 -6 4 27 4 33 0 48 -2 33 -4z
m-1798 -18 c0 -12 -18 -15 -100 -15 -82 0 -100 3 -100 15 0 12 18 15 100 15
82 0 100 -3 100 -15z m1820 -15 c0 -17 -7 -20 -53 -20 -46 0 -53 3 -53 20 0
17 7 20 53 20 46 0 53 -3 53 -20z m434 -16 c11 -28 6 -54 -9 -54 -10 0 -14 10
-13 35 1 37 12 46 22 19z m-2424 -49 c0 -30 -4 -55 -9 -55 -9 0 -12 88 -4 103
10 17 13 4 13 -48z m17 -27 c-2 -18 -4 -6 -4 27 0 33 2 48 4 33 2 -15 2 -42 0
-60z m20 0 c-2 -18 -4 -6 -4 27 0 33 2 48 4 33 2 -15 2 -42 0 -60z m33 27 c0
-30 -4 -55 -10 -55 -5 0 -10 25 -10 55 0 30 5 55 10 55 6 0 10 -25 10 -55z
m17 -27 c-2 -18 -4 -6 -4 27 0 33 2 48 4 33 2 -15 2 -42 0 -60z m54 55 l1 -28
8 30 c6 24 8 17 8 -30 0 -33 -2 -51 -5 -40 -7 28 -19 39 -28 24 -5 -7 -4 -10
1 -6 5 3 10 -3 10 -14 0 -24 -16 -25 -17 -1 0 14 -2 14 -9 -3 -8 -19 -9 -19
-9 2 -1 12 5 24 12 27 10 5 10 7 0 12 -7 3 -12 15 -12 27 1 17 2 18 6 5 2 -10
8 -18 13 -18 4 0 6 9 3 20 -3 11 0 20 6 20 6 0 12 -12 12 -27z m1671 -43 l3
-35 -62 0 c-47 0 -63 -4 -67 -15 -2 -8 -4 -4 -5 10 -1 24 1 25 61 23 35 -1 56
0 48 4 -25 10 -30 27 -13 46 20 22 30 12 35 -33z m156 43 c-15 -2 -42 -2 -60
0 -18 2 -6 4 27 4 33 0 48 -2 33 -4z m0 -20 c-15 -2 -42 -2 -60 0 -18 2 -6 4
27 4 33 0 48 -2 33 -4z m200 -10 c-15 -2 -42 -2 -60 0 -18 2 -6 4 27 4 33 0
48 -2 33 -4z m-1908 -18 c-7 -9 -15 -13 -17 -11 -7 7 7 26 19 26 6 0 6 -6 -2
-15z m1730 4 c0 -5 -25 -9 -56 -9 -30 0 -53 4 -50 9 8 12 106 12 106 0z
m-1800 -19 c0 -11 -4 -20 -10 -20 -5 0 -10 9 -10 20 0 11 5 20 10 20 6 0 10
-9 10 -20z m1940 0 c0 -15 -7 -20 -25 -20 -18 0 -25 5 -25 20 0 15 7 20 25 20
18 0 25 -5 25 -20z m60 0 c0 -15 -7 -20 -25 -20 -18 0 -25 5 -25 20 0 15 7 20
25 20 18 0 25 -5 25 -20z m-217 -7 c-18 -2 -48 -2 -65 0 -18 2 -4 4 32 4 36 0
50 -2 33 -4z m726 -19 c24 -5 31 -12 31 -30 0 -23 -2 -24 -90 -24 l-90 0 0 30
c0 30 0 30 59 30 32 0 73 -3 90 -6z m-2229 -19 c0 -8 7 -15 15 -15 8 0 15 7
15 15 0 12 13 15 60 15 47 0 60 -3 60 -15 0 -8 7 -15 15 -15 8 0 15 7 15 15 0
12 13 15 60 15 47 0 60 -3 60 -15 0 -8 7 -15 15 -15 8 0 15 7 15 15 0 12 13
15 60 15 47 0 60 -3 60 -15 0 -8 7 -15 15 -15 8 0 15 7 15 15 0 12 13 15 60
15 47 0 60 -3 60 -15 0 -8 7 -15 15 -15 8 0 15 7 15 15 0 12 13 15 60 15 47 0
60 -3 60 -15 0 -8 7 -15 15 -15 8 0 15 7 15 15 0 12 13 15 60 15 47 0 60 -3
60 -15 0 -8 7 -15 15 -15 8 0 15 7 15 15 0 12 13 15 60 15 47 0 60 -3 60 -15
0 -8 7 -15 15 -15 8 0 15 7 15 15 0 12 13 15 60 15 47 0 60 -3 60 -15 0 -8 7
-15 15 -15 8 0 15 7 15 15 0 12 13 15 60 15 60 0 66 -4 54 -34 -6 -14 -72 -16
-650 -16 -508 0 -644 3 -645 13 0 10 -2 10 -6 0 -3 -9 -29 -13 -79 -13 -72 0
-74 1 -74 25 0 24 3 25 55 25 42 0 55 -3 55 -15z m2070 -25 c0 -6 -60 -10
-161 -10 l-161 0 4 -75 c2 -55 0 -75 -9 -75 -9 0 -13 23 -13 79 0 54 4 81 13
84 24 10 327 7 327 -3z m-732 -132 c5 -25 -33 -42 -52 -23 -8 9 -13 22 -9 31
8 20 57 14 61 -8z"/>
<path d="M243 2960 c0 -25 2 -35 4 -22 2 12 2 32 0 45 -2 12 -4 2 -4 -23z"/>
<path d="M744 2780 c0 -124 2 -174 3 -112 2 61 2 163 0 225 -1 61 -3 11 -3
-113z"/>
<path d="M230 2880 c0 -15 -7 -20 -25 -20 -24 0 -25 -2 -25 -75 0 -72 1 -75
24 -75 16 0 26 -7 29 -21 9 -33 41 -20 45 19 3 31 -10 43 -23 22 -3 -5 -19
-10 -36 -10 -26 0 -29 3 -29 30 0 33 16 39 50 18 15 -10 22 -10 32 0 6 6 22
12 35 12 19 0 23 -5 23 -29 0 -23 -5 -31 -22 -34 -13 -2 -2 -5 23 -6 38 -1 48
-5 52 -22 9 -32 41 -20 45 16 3 26 0 30 -24 32 -19 1 -23 -1 -13 -8 10 -6 4
-9 -18 -9 -30 0 -33 3 -33 30 0 32 8 37 29 18 11 -10 13 -10 7 0 -4 6 -2 12 3
12 6 0 11 -4 11 -10 0 -13 46 -13 71 0 17 10 19 7 19 -19 0 -23 -5 -31 -22
-34 -13 -2 -2 -5 23 -6 38 -1 48 -5 52 -21 3 -12 14 -20 25 -20 23 0 38 17 27
28 -4 4 -10 1 -12 -5 -3 -7 -12 -13 -21 -13 -14 0 -14 2 -3 9 11 7 11 9 0 14
-8 3 -4 6 9 6 13 1 22 7 22 17 0 13 -3 14 -14 5 -11 -9 -15 -9 -19 1 -4 9 -6
8 -6 -3 -1 -12 -8 -15 -26 -11 -20 3 -25 10 -25 33 0 24 4 29 23 29 13 0 28
-5 35 -12 9 -9 15 -9 24 0 7 7 22 12 35 12 19 0 23 -5 23 -29 0 -23 -5 -31
-22 -34 -20 -4 -19 -4 5 -6 l27 -1 0 75 0 75 -27 -1 c-24 -2 -25 -2 -5 -6 17
-3 22 -11 22 -34 0 -24 -4 -29 -25 -29 -14 0 -25 5 -25 10 0 6 -9 10 -20 10
-11 0 -20 -4 -20 -10 0 -5 -11 -10 -25 -10 -21 0 -25 5 -25 29 0 23 5 31 23
34 12 2 0 4 -28 4 -27 0 -40 -2 -27 -4 17 -3 22 -11 22 -34 0 -21 -5 -29 -17
-29 -14 0 -15 2 -5 9 11 6 10 10 -4 15 -9 3 -19 4 -22 1 -3 -3 -1 -5 4 -5 5 0
10 -9 10 -20 0 -11 -3 -20 -7 -20 -4 0 -9 9 -12 20 -5 20 -47 29 -47 10 0 -5
-5 -10 -11 -10 -5 0 -7 6 -3 13 5 8 2 8 -9 -2 -15 -12 -17 -10 -17 18 0 28 3
31 33 31 18 0 38 -5 45 -12 9 -9 12 -4 12 25 0 33 -3 37 -25 37 -18 0 -25 -5
-25 -20 0 -17 -7 -20 -50 -20 -43 0 -50 3 -50 20 0 15 -7 20 -25 20 -18 0 -25
-5 -25 -20z m40 -5 c0 -8 -7 -15 -15 -15 -8 0 -15 7 -15 15 0 8 7 15 15 15 8
0 15 -7 15 -15z m150 0 c0 -8 -7 -15 -15 -15 -8 0 -15 7 -15 15 0 8 7 15 15
15 8 0 15 -7 15 -15z m-152 -37 c9 -9 12 -9 12 0 0 7 11 12 25 12 21 0 25 -5
25 -30 0 -25 -4 -30 -23 -30 -13 0 -29 6 -35 12 -10 10 -17 10 -32 0 -34 -21
-50 -15 -50 18 0 27 3 30 33 30 18 0 38 -5 45 -12z m2 -143 c0 -8 -7 -15 -15
-15 -8 0 -15 7 -15 15 0 8 7 15 15 15 8 0 15 -7 15 -15z m150 0 c0 -8 -7 -15
-15 -15 -8 0 -15 7 -15 15 0 8 7 15 15 15 8 0 15 -7 15 -15z"/>
<path d="M537 2893 c-10 -10 -8 -23 4 -23 5 0 7 5 4 10 -3 6 0 10 9 10 8 0 16
-6 19 -12 2 -7 8 -10 12 -6 4 4 4 11 0 17 -7 12 -38 15 -48 4z"/>
<path d="M541 2857 c2 -1 12 -9 22 -16 14 -12 17 -11 17 3 0 10 -8 16 -22 16
-12 0 -19 -1 -17 -3z"/>
<path d="M784 2736 c-10 -22 -9 -24 20 -22 28 1 32 -3 37 -34 6 -28 7 -24 6
20 -2 51 -4 55 -27 58 -18 2 -28 -4 -36 -22z m56 4 c0 -5 -9 -10 -20 -10 -11
0 -20 5 -20 10 0 6 9 10 20 10 11 0 20 -4 20 -10z"/>
<path d="M881 2731 c-8 -6 -11 -16 -7 -27 4 -10 1 -21 -6 -25 -7 -4 -10 -10
-8 -13 3 -2 18 7 35 20 26 21 28 25 15 38 -10 10 -20 12 -29 7z m29 -21 c0 -5
-8 -10 -17 -10 -15 0 -16 2 -3 10 19 12 20 12 20 0z"/>
<path d="M777 2693 c-11 -10 -8 -71 3 -78 6 -4 8 -11 5 -16 -4 -5 9 -9 27 -8
30 1 31 2 8 8 l-25 7 28 6 27 5 0 -128 0 -129 -25 0 c-18 0 -25 5 -25 20 0 12
5 17 14 14 8 -3 17 -1 20 4 3 5 -6 9 -21 8 l-26 -1 1 90 c0 50 -2 82 -4 73 -5
-15 -21 -18 -112 -21 l-107 -3 106 -2 105 -2 -4 -70 c-2 -45 1 -70 7 -70 6 0
11 -11 11 -25 0 -22 4 -25 35 -25 32 0 35 3 35 28 l0 27 75 -3 c47 -2 75 0 75
7 0 6 -28 9 -72 8 l-73 -2 3 89 c3 118 1 125 -46 119 l-38 -5 4 41 c4 40 2 47
-11 34z"/>
<path d="M243 2610 c0 -30 2 -43 4 -27 2 15 2 39 0 55 -2 15 -4 2 -4 -28z"/>
<path d="M927 2593 c-4 -3 -7 -14 -7 -24 0 -10 -8 -19 -17 -22 -15 -3 -14 -4
2 -4 39 -1 43 -3 41 -20 0 -10 7 -19 17 -21 12 -2 17 3 17 17 0 12 -5 21 -11
21 -8 0 -8 5 1 15 20 24 -21 61 -43 38z m38 -24 c0 -7 -8 -15 -17 -17 -18 -3
-25 18 -11 32 10 10 28 1 28 -15z m5 -49 c0 -5 -4 -10 -10 -10 -5 0 -10 5 -10
10 0 6 5 10 10 10 6 0 10 -4 10 -10z"/>
<path d="M348 2581 c8 -4 31 -7 53 -6 25 1 39 -2 39 -10 0 -7 -16 -11 -41 -11
-22 1 -46 -2 -52 -6 -12 -8 7 -11 48 -9 20 1 20 1 0 -8 -14 -7 -16 -10 -4 -10
8 -1 20 4 27 11 6 6 15 8 19 4 14 -14 -22 -27 -59 -21 -22 3 -38 1 -38 -4 0
-6 45 -10 105 -10 69 0 105 3 105 10 0 7 -10 9 -25 5 -29 -7 -75 2 -75 15 0 5
17 7 39 5 21 -2 45 0 52 5 16 10 12 10 -48 12 -25 0 -43 6 -43 12 0 14 82 14
92 0 5 -6 8 -2 8 8 0 15 -12 17 -107 17 -63 0 -102 -4 -95 -9z"/>
<path d="M388 2563 c7 -3 16 -2 19 1 4 3 -2 6 -13 5 -11 0 -14 -3 -6 -6z"/>
<path d="M488 2563 c7 -3 16 -2 19 1 4 3 -2 6 -13 5 -11 0 -14 -3 -6 -6z"/>
<path d="M212 2543 c25 -4 27 -8 31 -61 l3 -57 2 57 2 57 38 4 c20 2 6 4 -33
4 -38 0 -58 -2 -43 -4z"/>
<path d="M488 2523 c7 -3 16 -2 19 1 4 3 -2 6 -13 5 -11 0 -14 -3 -6 -6z"/>
<path d="M744 2300 c0 -129 2 -182 3 -117 2 64 2 170 0 235 -1 64 -3 11 -3
-118z"/>
<path d="M890 2469 c-14 -26 3 -49 36 -49 28 0 31 16 8 48 -19 27 -30 28 -44
1z m50 -29 c0 -8 -37 -6 -46 3 -4 4 -1 14 7 23 12 14 14 14 26 -2 7 -10 13
-21 13 -24z"/>
<path d="M235 2408 c-7 -18 -1 -55 10 -65 4 -5 5 -2 0 6 -6 11 -3 13 14 8 20
-5 22 -2 19 26 -3 33 -33 51 -43 25z m35 -13 c0 -8 -7 -15 -15 -15 -8 0 -15 7
-15 15 0 8 7 15 15 15 8 0 15 -7 15 -15z"/>
<path d="M386 2411 c-3 -5 -5 -20 -4 -32 1 -18 8 -24 25 -24 19 0 23 5 23 33
0 25 -4 32 -19 32 -11 0 -22 -4 -25 -9z m34 -16 c0 -8 -7 -15 -15 -15 -8 0
-15 7 -15 15 0 8 7 15 15 15 8 0 15 -7 15 -15z"/>
<path d="M535 2408 c-3 -7 -1 -26 4 -43 5 -16 10 -24 10 -16 1 7 7 11 15 8 15
-6 31 36 21 53 -9 14 -45 12 -50 -2z m35 -13 c0 -8 -8 -15 -17 -14 -13 0 -14
2 -4 6 11 5 11 7 0 14 -11 7 -10 9 4 9 9 0 17 -7 17 -15z"/>
<path d="M180 2305 c0 -73 1 -75 25 -75 18 0 25 -5 25 -20 0 -15 7 -20 25 -20
18 0 25 5 25 20 0 17 7 20 50 20 43 0 50 -3 50 -20 0 -13 6 -20 18 -19 10 0
12 3 5 6 -18 7 -16 33 1 33 8 0 17 -10 19 -22 2 -14 5 -7 6 17 1 30 -2 36 -11
27 -7 -7 -17 -12 -23 -12 -5 0 -3 5 5 10 9 6 10 10 3 10 -6 0 -15 -4 -18 -10
-3 -5 -15 -10 -26 -10 -14 0 -19 7 -19 29 0 25 4 29 23 28 12 -1 27 -8 33 -15
9 -12 13 -11 29 4 13 14 20 15 23 6 3 -10 7 -10 18 -1 11 9 14 6 14 -19 0 -24
-5 -32 -22 -35 -13 -2 0 -4 27 -4 28 0 40 2 28 4 -18 3 -23 11 -23 34 0 24 4
29 25 29 14 0 25 -4 25 -10 0 -5 9 -10 20 -10 11 0 20 5 20 10 0 6 11 10 25
10 21 0 25 -5 25 -29 0 -23 -5 -31 -22 -34 -20 -4 -19 -4 5 -6 l27 -1 0 75 c0
71 -1 75 -22 74 -17 -1 -19 -2 -5 -6 11 -3 17 -14 17 -34 0 -24 -4 -29 -23
-29 -13 0 -28 5 -35 12 -9 9 -15 9 -24 0 -7 -7 -22 -12 -34 -12 -18 0 -24 7
-27 33 l-4 32 -1 -33 c-2 -29 -5 -32 -27 -29 -13 1 -27 6 -31 10 -15 15 -26 6
-13 -10 13 -17 13 -17 -7 0 -11 9 -27 17 -35 17 -12 0 -11 -2 1 -10 12 -8 11
-10 -7 -10 -19 0 -23 6 -23 29 0 18 6 31 15 34 11 4 10 4 -2 3 -13 -1 -19 -11
-21 -34 -3 -27 -7 -32 -31 -32 -15 0 -32 5 -39 12 -9 9 -15 9 -24 0 -7 -7 -20
-12 -30 -12 -25 0 -25 57 0 63 13 4 11 5 -5 6 -22 1 -23 -3 -23 -74z m58 -17
c10 -10 17 -10 32 0 11 6 29 12 40 12 16 0 20 -7 20 -30 0 -25 -4 -30 -25 -30
-14 0 -25 5 -25 12 0 9 -3 9 -12 0 -15 -15 -32 -16 -23 -2 3 6 1 10 -4 10 -6
0 -11 -4 -11 -10 0 -5 -9 -10 -20 -10 -16 0 -20 7 -20 30 0 32 25 41 48 18z
m32 -73 c0 -8 -7 -15 -15 -15 -8 0 -15 7 -15 15 0 8 7 15 15 15 8 0 15 -7 15
-15z"/>
<path d="M440 2330 c8 -5 20 -10 25 -10 6 0 3 5 -5 10 -8 5 -19 10 -25 10 -5
0 -3 -5 5 -10z"/>
<path d="M124 2220 c0 -52 1 -74 3 -47 2 26 2 68 0 95 -2 26 -3 4 -3 -48z"/>
<path d="M571 2253 c-1 -7 -7 -13 -15 -13 -16 0 -29 -27 -20 -41 7 -11 41 -12
48 -1 3 5 1 22 -4 38 -4 16 -9 23 -9 17z m-1 -38 c0 -8 -7 -15 -15 -15 -16 0
-20 12 -8 23 11 12 23 8 23 -8z"/>
<path d="M243 2115 c0 -27 2 -38 4 -22 2 15 2 37 0 50 -2 12 -4 0 -4 -28z"/>
<path d="M340 2083 c0 -10 3 -14 8 -8 10 14 92 14 92 0 0 -6 -18 -12 -42 -12
-61 -2 -65 -2 -49 -12 7 -5 31 -7 52 -5 23 2 39 -1 39 -7 0 -6 -13 -8 -32 -5
-27 5 -29 4 -13 -4 16 -8 12 -9 -17 -5 -21 3 -38 2 -38 -3 0 -5 47 -9 105 -9
58 1 105 5 105 9 0 5 -17 6 -37 3 -30 -4 -34 -3 -18 5 16 8 14 9 -12 4 -20 -3
-33 -1 -33 5 0 6 16 9 39 7 21 -2 45 0 52 5 16 10 12 10 -48 12 -25 0 -43 6
-43 12 0 14 82 14 92 0 5 -6 8 -2 8 8 0 15 -12 17 -105 17 -93 0 -105 -2 -105
-17z"/>
<path d="M388 2073 c7 -3 16 -2 19 1 4 3 -2 6 -13 5 -11 0 -14 -3 -6 -6z"/>
<path d="M488 2073 c7 -3 16 -2 19 1 4 3 -2 6 -13 5 -11 0 -14 -3 -6 -6z"/>
<path d="M217 2053 c18 -2 50 -2 70 0 21 2 7 4 -32 4 -38 0 -55 -2 -38 -4z"/>
<path d="M243 1985 c0 -33 2 -45 4 -27 2 18 2 45 0 60 -2 15 -4 0 -4 -33z"/>
<path d="M230 1900 c0 -15 -7 -20 -25 -20 -24 0 -25 -2 -25 -75 0 -73 1 -75
25 -75 18 0 25 -5 25 -20 0 -15 7 -20 25 -20 22 0 25 4 25 35 0 34 -12 46 -25
25 -3 -5 -19 -10 -36 -10 -26 0 -29 3 -29 30 0 33 16 39 50 18 15 -10 22 -10
32 0 6 6 22 12 35 12 19 0 23 -5 23 -29 0 -23 -5 -31 -22 -34 -13 -2 -2 -5 23
-6 38 -1 48 -5 52 -21 3 -12 14 -20 26 -20 18 0 21 6 21 37 0 29 -3 34 -12 25
-7 -7 -27 -12 -45 -12 -30 0 -33 3 -33 30 0 32 8 37 29 18 11 -10 13 -10 7 0
-4 6 -2 12 3 12 6 0 11 -4 11 -10 0 -13 46 -13 71 0 17 10 19 7 19 -19 0 -23
-5 -31 -22 -34 -13 -2 -2 -5 23 -6 38 -1 48 -5 52 -21 3 -12 14 -20 25 -20 23
0 38 17 27 28 -4 4 -10 1 -12 -5 -3 -7 -12 -13 -21 -12 -12 0 -13 2 -3 6 11 5
11 7 0 14 -10 6 -8 9 9 9 14 0 22 6 22 16 0 13 -3 14 -14 5 -11 -9 -15 -9 -19
1 -4 9 -6 8 -6 -3 -1 -12 -8 -15 -26 -11 -20 3 -25 10 -25 33 0 24 4 29 23 29
13 0 28 -5 35 -12 9 -9 15 -9 24 0 7 7 22 12 35 12 19 0 23 -5 23 -29 0 -23
-5 -31 -22 -34 -20 -4 -19 -4 5 -6 l27 -1 0 75 0 75 -27 -1 c-24 -2 -25 -2 -5
-6 17 -3 22 -11 22 -34 0 -24 -4 -29 -25 -29 -14 0 -25 5 -25 10 0 6 -9 10
-20 10 -11 0 -20 -4 -20 -10 0 -5 -11 -10 -25 -10 -21 0 -25 5 -25 29 0 23 5
31 23 34 12 2 0 4 -28 4 -27 0 -40 -2 -27 -4 17 -3 22 -11 22 -35 0 -28 -2
-30 -27 -23 -46 12 -73 14 -73 4 0 -5 -5 -9 -11 -9 -5 0 -7 6 -3 13 5 8 2 8
-9 -2 -15 -12 -17 -10 -17 18 0 28 3 31 33 31 18 0 38 -5 45 -12 9 -9 12 -4
12 25 0 33 -3 37 -25 37 -18 0 -25 -5 -25 -20 0 -17 -7 -20 -50 -20 -43 0 -50
3 -50 20 0 15 -7 20 -25 20 -18 0 -25 -5 -25 -20z m40 -5 c0 -8 -7 -15 -15
-15 -8 0 -15 7 -15 15 0 8 7 15 15 15 8 0 15 -7 15 -15z m150 0 c0 -8 -7 -15
-15 -15 -8 0 -15 7 -15 15 0 8 7 15 15 15 8 0 15 -7 15 -15z m-152 -37 c9 -9
12 -9 12 0 0 7 11 12 25 12 21 0 25 -5 25 -30 0 -25 -4 -30 -23 -30 -13 0 -29
6 -35 12 -10 10 -17 10 -32 0 -34 -21 -50 -15 -50 18 0 27 3 30 33 30 18 0 38
-5 45 -12z m177 -58 c3 -5 1 -10 -4 -10 -6 0 -11 5 -11 10 0 6 2 10 4 10 3 0
8 -4 11 -10z m-175 -85 c0 -8 -7 -15 -15 -15 -8 0 -15 7 -15 15 0 8 7 15 15
15 8 0 15 -7 15 -15z m150 0 c0 -8 -7 -15 -15 -15 -8 0 -15 7 -15 15 0 8 7 15
15 15 8 0 15 -7 15 -15z"/>
<path d="M537 1913 c-10 -10 -8 -23 4 -23 5 0 7 5 4 10 -3 6 1 10 9 10 9 0 16
-7 16 -15 0 -8 -8 -15 -17 -15 -15 0 -14 -2 3 -14 17 -13 20 -12 26 11 4 15 5
30 2 35 -6 10 -38 11 -47 1z"/>
<path d="M780 1893 c0 -11 -5 -24 -12 -31 -9 -9 -9 -12 0 -12 9 0 9 -6 1 -24
-7 -14 -9 -40 -5 -60 6 -29 11 -36 29 -35 21 0 21 1 2 10 -20 9 -20 9 0 6 15
-2 21 -11 23 -40 3 -35 1 -38 -20 -37 -35 3 -44 1 -30 -9 8 -4 16 -27 19 -49
l6 -41 -114 -4 -114 -3 113 -2 112 -2 0 -30 c0 -26 3 -30 29 -30 38 0 40 15
35 210 l-4 155 -30 -3 c-25 -3 -30 0 -30 17 0 16 6 21 24 21 13 0 27 -5 29
-10 3 -6 4 -5 3 2 -1 7 -17 14 -34 16 -26 3 -32 0 -32 -15z m58 -135 l-2 -93
-3 88 c-2 48 -8 87 -13 87 -6 0 -10 -4 -10 -10 0 -5 -7 -10 -15 -10 -21 0 -19
18 3 23 42 11 42 10 40 -85z m-18 32 c0 -25 -4 -30 -25 -30 -34 0 -36 46 -2
53 12 2 23 5 25 6 1 0 2 -12 2 -29z m0 -140 l-25 -8 28 -1 c26 -1 27 -3 27
-51 0 -47 -2 -50 -25 -50 -23 0 -25 4 -25 44 0 24 -3 51 -6 60 -5 12 0 16 22
15 l29 -1 -25 -8z m20 -130 c0 -5 -9 -10 -20 -10 -11 0 -20 5 -20 10 0 6 9 10
20 10 11 0 20 -4 20 -10z"/>
<path d="M869 1894 c-13 -16 -12 -17 9 -12 15 4 22 3 19 -5 -3 -7 -10 -11 -16
-9 -6 1 -11 -2 -11 -8 0 -15 16 -12 30 6 11 12 11 18 -2 30 -13 13 -16 13 -29
-2z"/>
<path d="M440 1830 c8 -5 20 -10 25 -10 6 0 3 5 -5 10 -8 5 -19 10 -25 10 -5
0 -3 -5 5 -10z"/>
<path d="M896 1828 c5 -8 2 -9 -10 -5 -14 5 -17 2 -14 -15 2 -12 9 -23 16 -24
7 -1 8 0 2 3 -5 2 -10 9 -10 14 0 6 5 7 10 4 6 -3 10 -1 10 4 0 6 4 11 10 11
5 0 7 -8 3 -17 -5 -15 -3 -16 7 -6 11 10 11 15 0 28 -15 18 -35 21 -24 3z"/>
<path d="M122 1800 c0 -14 2 -19 5 -12 2 6 2 18 0 25 -3 6 -5 1 -5 -13z"/>
<path d="M123 1700 c0 -41 2 -58 4 -37 2 20 2 54 0 75 -2 20 -4 3 -4 -38z"/>
<path d="M901 1736 c-17 -20 -2 -48 23 -44 24 3 34 37 14 49 -18 12 -24 11
-37 -5z m39 -22 c0 -17 -26 -19 -36 -3 -7 12 15 31 28 23 4 -3 8 -12 8 -20z"/>
<path d="M243 1625 c0 -27 2 -38 4 -22 2 15 2 37 0 50 -2 12 -4 0 -4 -28z"/>
<path d="M880 1595 c-17 -20 -3 -55 22 -55 11 0 32 12 45 26 14 15 18 24 11
21 -8 -2 -22 1 -33 9 -24 18 -30 17 -45 -1z m41 -8 c12 -9 13 -15 5 -22 -19
-16 -34 -16 -40 1 -5 12 -1 14 17 9 21 -6 21 -6 3 9 -23 19 -9 21 15 3z"/>
<path d="M348 1593 c7 -3 16 -2 19 1 4 3 -2 6 -13 5 -11 0 -14 -3 -6 -6z"/>
<path d="M375 1580 c-43 -21 -42 -21 23 -23 25 -1 42 -6 42 -13 0 -7 -15 -10
-39 -9 -22 1 -45 -2 -53 -6 -7 -5 33 -9 97 -9 64 0 104 4 97 9 -8 4 -31 7 -53
6 -25 -1 -39 2 -39 10 0 7 16 11 41 11 22 -1 46 2 52 6 8 5 6 8 -5 8 -23 0
-23 17 -1 22 9 2 -15 4 -53 5 -50 1 -80 -3 -109 -17z m65 2 c0 -5 -15 -9 -32
-9 -27 -1 -29 1 -13 7 27 11 45 12 45 2z m55 -2 c17 -7 15 -9 -12 -9 -18 -1
-33 4 -33 9 0 12 17 12 45 0z"/>
<path d="M203 1563 c9 -2 25 -2 35 0 9 3 1 5 -18 5 -19 0 -27 -2 -17 -5z"/>
<path d="M273 1563 c9 -2 25 -2 35 0 9 3 1 5 -18 5 -19 0 -27 -2 -17 -5z"/>
<path d="M243 1485 c0 -38 2 -53 4 -32 2 20 2 52 0 70 -2 17 -4 1 -4 -38z"/>
<path d="M388 1543 c7 -3 16 -2 19 1 4 3 -2 6 -13 5 -11 0 -14 -3 -6 -6z"/>
<path d="M488 1543 c7 -3 16 -2 19 1 4 3 -2 6 -13 5 -11 0 -14 -3 -6 -6z"/>
<path d="M743 1480 c0 -41 2 -58 4 -37 2 20 2 54 0 75 -2 20 -4 3 -4 -38z"/>
<path d="M230 1390 c0 -15 -7 -20 -25 -20 -24 0 -25 -2 -25 -75 0 -73 1 -75
25 -75 18 0 25 -5 25 -20 0 -15 7 -20 25 -20 18 0 25 5 25 20 0 17 7 20 50 20
43 0 50 -3 50 -20 0 -15 7 -20 25 -20 22 0 25 4 25 37 0 29 -3 34 -12 25 -7
-7 -27 -12 -45 -12 -28 0 -33 4 -33 24 0 19 -5 24 -24 22 -25 -1 -26 -16 0
-16 8 0 14 -7 14 -15 0 -9 -9 -15 -25 -15 -14 0 -25 5 -25 12 0 9 -3 9 -12 0
-7 -7 -27 -12 -45 -12 -30 0 -33 3 -33 30 0 33 16 39 50 18 15 -10 22 -10 32
0 16 16 60 15 77 0 11 -10 13 -10 7 0 -5 7 -1 12 9 12 9 0 14 -4 11 -8 -2 -4
6 -9 19 -10 13 -1 27 3 30 8 3 6 17 10 31 10 20 0 24 -5 24 -29 0 -23 -5 -31
-22 -34 -13 -2 -2 -5 25 -6 40 -1 47 -4 47 -21 0 -15 7 -20 25 -20 22 0 25 4
25 37 0 29 -3 34 -12 25 -7 -7 -27 -12 -45 -12 -30 0 -33 3 -33 30 0 25 4 30
25 30 14 0 25 -4 25 -10 0 -5 13 -8 29 -7 16 1 27 5 24 10 -2 4 5 7 16 7 32 0
30 -57 -1 -63 -13 -2 -2 -5 23 -6 38 -1 48 -5 52 -22 4 -14 12 -20 27 -17 11
2 21 6 20 11 0 4 0 19 0 33 0 22 -3 24 -14 15 -11 -9 -15 -9 -19 1 -4 10 -6
10 -6 1 -1 -7 -12 -13 -26 -13 -18 0 -25 5 -25 20 0 13 7 20 20 20 11 0 20 5
20 11 0 8 5 7 15 -1 12 -10 19 -10 27 -2 7 7 22 12 35 12 19 0 23 -5 23 -29 0
-23 -5 -31 -22 -34 -20 -4 -19 -4 5 -6 l27 -1 0 75 0 75 -27 -1 c-24 -2 -25
-2 -5 -6 17 -3 22 -11 22 -34 0 -24 -4 -29 -23 -29 -13 0 -28 5 -35 12 -9 9
-15 9 -24 0 -15 -15 -29 -16 -26 -1 2 6 -3 14 -10 16 -8 3 -10 -1 -5 -13 4
-12 3 -15 -5 -10 -7 4 -12 18 -12 32 0 19 5 24 24 24 13 0 27 -6 29 -12 4 -10
6 -9 6 1 1 11 4 11 16 1 13 -11 15 -8 15 14 0 14 1 29 3 34 1 4 -8 8 -21 10
-17 3 -25 -2 -29 -17 -4 -17 -14 -21 -52 -22 -25 -1 -36 -4 -23 -6 17 -3 22
-11 22 -34 0 -16 -5 -29 -11 -29 -6 0 -9 6 -6 14 4 10 0 12 -15 8 -15 -4 -17
-7 -6 -13 21 -14 0 -10 -23 4 -17 10 -23 10 -26 0 -3 -7 -16 -13 -29 -13 -20
0 -24 5 -24 30 0 27 3 30 33 30 22 0 28 -3 18 -9 -10 -7 -7 -9 12 -8 23 2 27
6 27 35 0 28 -3 32 -25 32 -18 0 -25 -5 -25 -20 0 -17 -7 -20 -50 -20 -43 0
-50 3 -50 20 0 15 -7 20 -25 20 -18 0 -25 -5 -25 -20 0 -17 -7 -20 -50 -20
-43 0 -50 3 -50 20 0 15 -7 20 -25 20 -18 0 -25 -5 -25 -20z m40 -5 c0 -8 -7
-15 -15 -15 -8 0 -15 7 -15 15 0 8 7 15 15 15 8 0 15 -7 15 -15z m150 0 c0 -8
-7 -15 -15 -15 -8 0 -15 7 -15 15 0 8 7 15 15 15 8 0 15 -7 15 -15z m150 0 c0
-8 -7 -15 -15 -15 -8 0 -15 7 -15 15 0 8 7 15 15 15 8 0 15 -7 15 -15z m150 0
c0 -8 -7 -15 -15 -15 -8 0 -15 7 -15 15 0 8 7 15 15 15 8 0 15 -7 15 -15z
m-461 -37 c11 -10 14 -10 18 0 3 6 15 12 28 12 19 0 24 -5 23 -28 -1 -32 -18
-38 -56 -19 -17 8 -25 8 -34 -1 -7 -7 -20 -12 -30 -12 -13 0 -18 8 -18 30 0
26 4 30 28 30 15 0 34 -6 41 -12z m152 2 c13 -7 19 -7 19 0 0 5 11 10 25 10
21 0 25 -5 25 -30 0 -25 -4 -30 -24 -30 -14 0 -28 5 -31 10 -9 15 -33 12 -37
-5 -3 -14 -5 -14 -25 0 -32 23 -30 55 3 55 14 0 34 -5 45 -10z m256 -66 c-3
-3 -12 -4 -19 -1 -8 3 -5 6 6 6 11 1 17 -2 13 -5z m-397 -79 c0 -8 -7 -15 -15
-15 -8 0 -15 7 -15 15 0 8 7 15 15 15 8 0 15 -7 15 -15z m150 0 c0 -8 -7 -15
-15 -15 -8 0 -15 7 -15 15 0 8 7 15 15 15 8 0 15 -7 15 -15z m150 0 c0 -8 -7
-15 -15 -15 -8 0 -15 7 -15 15 0 8 7 15 15 15 8 0 15 -7 15 -15z m150 0 c0 -8
-7 -15 -15 -15 -8 0 -15 7 -15 15 0 8 7 15 15 15 8 0 15 -7 15 -15z"/>
<path d="M288 1313 c7 -3 16 -2 19 1 4 3 -2 6 -13 5 -11 0 -14 -3 -6 -6z"/>
<path d="M350 1326 c0 -2 7 -7 16 -10 8 -3 12 -2 9 4 -6 10 -25 14 -25 6z"/>
<path d="M122 1270 c0 -19 2 -27 5 -17 2 9 2 25 0 35 -3 9 -5 1 -5 -18z"/>
<path d="M121 1214 c0 -11 3 -14 6 -6 3 7 2 16 -1 19 -3 4 -6 -2 -5 -13z"/>
<path d="M122 1160 c0 -19 2 -27 5 -17 2 9 2 25 0 35 -3 9 -5 1 -5 -18z"/>
<path d="M743 1120 c0 -36 2 -50 4 -32 2 17 2 47 0 65 -2 17 -4 3 -4 -33z"/>
<path d="M243 1115 c0 -27 2 -38 4 -22 2 15 2 37 0 50 -2 12 -4 0 -4 -28z"/>
<path d="M130 1090 c0 -5 6 -10 14 -10 8 0 16 -6 19 -12 2 -7 8 -10 12 -6 13
12 -4 38 -25 38 -11 0 -20 -4 -20 -10z"/>
<path d="M1670 2953 c0 -2 11 -21 25 -43 24 -38 24 -40 5 -40 -17 0 -20 -7
-20 -49 0 -28 4 -52 8 -55 12 -7 8 -78 -6 -104 -17 -30 -6 -34 98 -30 l84 3
-3 68 c-1 42 2 67 8 67 6 0 11 21 11 49 l0 49 -72 0 c-74 0 -81 4 -109 55 -8
14 -5 17 18 16 25 0 26 -1 8 -9 -14 -6 1 -9 48 -9 67 -1 68 -1 57 -23 l-11
-23 17 23 c9 12 24 22 33 22 13 0 13 2 2 9 -7 5 -22 6 -32 4 -10 -3 -26 3 -36
13 -17 17 -18 17 -21 0 -3 -12 -7 -14 -15 -8 -11 9 -97 22 -97 15z m109 -119
c4 3 7 -4 7 -14 0 -11 -6 -16 -14 -13 -15 6 -13 -18 3 -30 6 -4 -1 -5 -15 -3
-14 3 -34 5 -45 5 -18 1 -20 6 -17 36 5 39 25 46 49 18 8 -10 12 -12 8 -5 -3
6 -3 18 2 25 5 9 8 7 11 -6 2 -9 7 -15 11 -13z m91 -13 c0 -37 -1 -39 -37 -43
-21 -3 -38 -5 -39 -4 -1 1 1 18 3 38 5 33 9 37 37 41 17 2 32 5 34 5 1 1 2
-16 2 -37z m-59 -92 c9 -17 6 -19 -33 -20 -24 0 -51 -2 -60 -4 -11 -2 -15 2
-11 11 3 8 9 12 13 9 5 -3 12 -1 15 5 4 6 1 9 -6 8 -6 -2 -13 2 -15 7 -3 6 14
9 41 7 32 -3 48 -10 56 -23z m39 6 c0 -30 -15 -33 -30 -6 -14 27 -13 31 10 31
15 0 20 -7 20 -25z m-3 -65 l2 -30 -70 0 c-68 0 -70 1 -65 23 l6 22 -11 -22
c-7 -13 -16 -23 -22 -23 -5 0 -3 10 5 23 12 17 26 23 69 25 47 2 84 7 84 11 0
0 1 -13 2 -29z"/>
<path d="M1821 2956 c12 -10 60 -16 54 -6 -3 5 -18 10 -32 10 -15 0 -24 -2
-22 -4z"/>
<path d="M1871 2894 c0 -11 3 -14 6 -6 3 7 2 16 -1 19 -3 4 -6 -2 -5 -13z"/>
<path d="M1872 2730 c0 -14 2 -19 5 -12 2 6 2 18 0 25 -3 6 -5 1 -5 -13z"/>
<path d="M1969 2811 c-9 -9 -24 -21 -35 -28 -18 -11 -18 -11 3 -6 12 3 29 14
39 24 21 23 15 32 -7 10z"/>
<path d="M2824 1810 c0 -118 2 -167 3 -107 2 59 2 155 0 215 -1 59 -3 10 -3
-108z"/>
<path d="M2478 1963 l202 -3 0 -160 0 -160 -202 -2 -203 -3 198 -2 197 -3 1
-33 c1 -31 2 -31 10 8 4 22 8 113 8 203 l1 162 -207 -2 -208 -3 203 -2z"/>
<path d="M2350 1800 l0 -60 124 0 c74 0 126 4 128 10 2 5 1 32 0 60 l-4 50
-124 0 -124 0 0 -60z m238 24 c2 -16 -4 -23 -25 -29 -15 -3 -34 -12 -42 -18
-12 -10 -7 -13 25 -18 21 -4 -10 -6 -71 -5 l-110 1 -3 33 c-6 62 -3 63 115 60
101 -3 108 -4 111 -24z m2 -44 c0 -5 -15 -10 -32 -9 -28 0 -30 2 -13 9 28 12
45 12 45 0z"/>
<path d="M2415 1800 c-3 -5 -1 -10 4 -10 6 0 11 5 11 10 0 6 -2 10 -4 10 -3 0
-8 -4 -11 -10z"/>
<path d="M2271 978 c0 -22 1 -22 9 -3 6 15 9 8 9 -27 1 -27 6 -48 11 -48 6 0
8 11 6 24 -3 15 1 27 10 30 22 8 17 33 -8 40 -35 9 -38 8 -37 -16z"/>
<path d="M2340 976 c0 -9 5 -16 10 -16 6 0 10 4 10 9 0 6 -4 13 -10 16 -5 3
-10 -1 -10 -9z"/>
<path d="M2168 955 c-3 -14 -1 -28 3 -31 5 -3 9 9 9 25 0 38 -6 40 -12 6z"/>
<path d="M2193 965 c0 -8 4 -15 9 -15 4 0 8 7 8 15 0 8 -4 15 -8 15 -5 0 -9
-7 -9 -15z"/>
<path d="M2372 955 c1 -14 6 -25 10 -25 4 0 8 11 8 25 0 14 -4 25 -10 25 -5 0
-9 -11 -8 -25z"/>
<path d="M2080 960 c-13 -9 -13 -10 0 -10 12 0 12 -2 2 -9 -11 -6 -10 -10 4
-15 21 -8 22 -6 15 21 -5 17 -10 20 -21 13z"/>
<path d="M2190 930 c0 -5 5 -10 10 -10 6 0 10 5 10 10 0 6 -4 10 -10 10 -5 0
-10 -4 -10 -10z"/>
<path d="M2370 910 c0 -5 5 -10 10 -10 6 0 10 5 10 10 0 6 -4 10 -10 10 -5 0
-10 -4 -10 -10z"/>
<path d="M2196 895 c-3 -8 -1 -15 4 -15 6 0 10 7 10 15 0 8 -2 15 -4 15 -2 0
-6 -7 -10 -15z"/>
<path d="M2484 767 c-2 -7 -3 -60 -1 -118 l3 -104 2 108 c2 87 5 107 17 107 8
0 15 5 15 10 0 15 -30 12 -36 -3z"/>
<path d="M2184 630 c0 -80 2 -112 3 -72 2 39 2 105 0 145 -1 39 -3 7 -3 -73z"/>
<path d="M2372 734 c3 -50 18 -54 18 -5 0 23 -5 41 -10 41 -6 0 -10 -16 -8
-36z"/>
<path d="M2464 650 c0 -58 1 -81 3 -52 2 28 2 76 0 105 -2 28 -3 5 -3 -53z"/>
<path d="M2682 725 c0 -16 2 -22 5 -12 2 9 2 23 0 30 -3 6 -5 -1 -5 -18z"/>
<path d="M2270 645 c0 -33 4 -45 15 -45 11 0 15 12 15 45 0 33 -4 45 -15 45
-11 0 -15 -12 -15 -45z m17 -17 c-2 -13 -4 -5 -4 17 -1 22 1 32 4 23 2 -10 2
-28 0 -40z"/>
<path d="M2650 650 c0 -33 3 -40 20 -40 17 0 20 7 20 40 0 33 -3 40 -20 40
-17 0 -20 -7 -20 -40z m30 0 c0 -16 -4 -30 -10 -30 -5 0 -10 14 -10 30 0 17 5
30 10 30 6 0 10 -13 10 -30z"/>
<path d="M2682 575 c0 -16 2 -22 5 -12 2 9 2 23 0 30 -3 6 -5 -1 -5 -18z"/>
<path d="M2550 568 c0 -13 5 -30 10 -38 8 -11 10 -7 8 18 -3 38 -18 55 -18 20z"/>
<path d="M2933 360 c0 -36 2 -50 4 -32 2 17 2 47 0 65 -2 17 -4 3 -4 -33z"/>
<path d="M2659 863 l5 -48 6 40 c6 41 4 55 -8 55 -4 0 -5 -21 -3 -47z"/>
<path d="M157 856 c-3 -8 0 -17 8 -20 10 -3 12 0 9 12 -5 14 -4 15 5 2 17 -23
13 -33 -10 -27 -16 4 -19 3 -11 -5 17 -17 44 -1 40 24 -3 26 -33 36 -41 14z"/>
<path d="M150 776 c0 -2 7 -7 16 -10 8 -3 12 -2 9 4 -6 10 -25 14 -25 6z"/>
<path d="M185 759 c-6 -17 -9 -18 -16 -8 -4 7 -11 10 -15 6 -12 -11 13 -30 30
-24 9 4 16 16 16 27 0 26 -7 26 -15 -1z"/>
<path d="M74 855 c-9 -23 3 -45 23 -44 17 1 17 2 1 6 -19 5 -25 43 -7 43 6 0
8 -7 5 -16 -3 -8 -2 -12 4 -9 16 10 12 35 -5 35 -9 0 -18 -7 -21 -15z"/>
<path d="M73 750 c6 -22 37 -25 37 -3 0 15 -2 16 -10 3 -9 -13 -11 -13 -21 0
-9 13 -10 13 -6 0z"/>
<path d="M260 790 c0 -5 7 -6 17 -3 12 5 14 3 8 -7 -5 -9 -4 -11 3 -6 7 4 12
2 12 -3 0 -6 -4 -11 -8 -11 -5 0 -9 -7 -9 -15 0 -9 9 -15 21 -15 12 0 17 4 11
8 -5 4 -10 16 -10 27 0 11 5 23 10 27 6 4 -5 8 -22 8 -18 0 -33 -4 -33 -10z"/>
<path d="M930 784 c0 -6 11 -21 24 -33 l24 -23 17 33 16 34 -20 -25 -21 -25
-20 25 c-11 14 -20 20 -20 14z"/>
<path d="M743 720 c0 -25 2 -35 4 -22 2 12 2 32 0 45 -2 12 -4 2 -4 -23z"/>
<path d="M608 730 c-7 -24 -3 -38 8 -28 3 4 4 17 2 30 l-3 23 -7 -25z"/>
<path d="M602 640 c1 -30 11 -39 23 -21 3 5 0 13 -6 16 -5 4 -8 13 -5 21 3 8
1 14 -4 14 -5 0 -8 -13 -8 -30z"/>
<path d="M721 643 c2 -24 2 -25 6 -5 3 17 11 22 34 22 33 0 39 -23 17 -61 -10
-17 -10 -23 0 -26 6 -3 12 -16 12 -29 0 -20 -5 -24 -30 -24 -27 0 -30 3 -30
33 0 18 5 38 12 45 9 9 4 12 -25 12 -33 0 -37 -3 -37 -25 0 -18 5 -25 20 -25
17 0 20 -7 21 -47 1 -27 4 -38 6 -25 3 17 11 22 34 22 33 0 39 -23 17 -61 -10
-17 -10 -23 0 -26 6 -3 12 -16 12 -29 0 -20 -5 -24 -30 -24 -23 0 -30 4 -30
20 0 11 5 20 10 20 6 0 10 5 10 11 0 5 -4 7 -10 4 -14 -9 -13 8 2 23 9 9 4 12
-25 12 -33 0 -37 -3 -37 -25 0 -18 5 -25 20 -25 15 0 20 -7 20 -25 0 -24 2
-25 75 -25 72 0 75 1 75 24 0 15 7 26 20 29 12 3 20 14 20 26 0 18 -6 21 -37
21 -29 0 -34 -3 -25 -12 7 -7 12 -27 12 -45 0 -30 -3 -33 -30 -33 -25 0 -30 4
-30 24 0 13 6 26 13 29 10 3 10 9 0 26 -23 38 -17 61 16 61 23 0 31 -5 34 -22
2 -13 5 -2 6 23 1 38 5 48 21 52 12 3 20 14 20 26 0 18 -6 21 -37 21 -29 0
-34 -3 -25 -12 7 -7 12 -27 12 -45 0 -30 -3 -33 -30 -33 -25 0 -30 4 -30 24 0
13 6 26 13 29 10 3 10 9 0 26 -23 38 -17 61 16 61 23 0 31 -5 34 -22 4 -20 4
-19 6 5 l1 27 -75 0 -75 0 1 -27z m-1 -58 c0 -8 -7 -15 -15 -15 -8 0 -15 7
-15 15 0 8 7 15 15 15 8 0 15 -7 15 -15z m180 0 c0 -8 -7 -15 -15 -15 -8 0
-15 7 -15 15 0 8 7 15 15 15 8 0 15 -7 15 -15z m-180 -150 c0 -8 -7 -15 -15
-15 -8 0 -15 7 -15 15 0 8 7 15 15 15 8 0 15 -7 15 -15z m180 0 c0 -8 -7 -15
-15 -15 -8 0 -15 7 -15 15 0 8 7 15 15 15 8 0 15 -7 15 -15z"/>
<path d="M1382 719 c1 -16 6 -29 12 -29 17 0 18 47 1 53 -10 4 -13 -2 -13 -24z"/>
<path d="M1140 605 c0 -10 10 -15 30 -15 22 0 28 4 24 15 -4 8 -17 15 -30 15
-15 0 -24 -6 -24 -15z"/>
<path d="M1210 605 c0 -9 9 -15 25 -15 16 0 25 6 25 15 0 9 -9 15 -25 15 -16
0 -25 -6 -25 -15z"/>
<path d="M1277 613 c-15 -14 -6 -23 23 -23 20 0 30 5 30 15 0 15 -40 21 -53 8z"/>
<path d="M1110 575 c0 -14 2 -25 4 -25 2 0 6 11 8 25 3 14 1 25 -3 25 -5 0 -9
-11 -9 -25z"/>
<path d="M1350 593 c5 -2 10 -27 10 -54 0 -35 4 -49 14 -49 20 0 27 27 11 43
-7 8 -15 24 -17 37 -1 13 -9 25 -16 26 -7 1 -8 0 -2 -3z"/>
<path d="M1080 515 c0 -16 6 -25 15 -25 9 0 15 9 15 25 0 16 -6 25 -15 25 -9
0 -15 -9 -15 -25z"/>
<path d="M1112 460 c0 -14 2 -19 5 -12 2 6 2 18 0 25 -3 6 -5 1 -5 -13z"/>
<path d="M1360 466 c0 -8 -6 -17 -12 -19 -8 -3 -6 -6 5 -6 11 -1 17 6 17 19 0
11 -2 20 -5 20 -3 0 -5 -6 -5 -14z"/>
<path d="M1140 424 c0 -11 8 -14 27 -12 39 4 42 28 4 28 -21 0 -31 -5 -31 -16z"/>
<path d="M1210 425 c0 -9 9 -15 25 -15 16 0 25 6 25 15 0 9 -9 15 -25 15 -16
0 -25 -6 -25 -15z"/>
<path d="M1272 428 c7 -20 58 -23 58 -4 0 11 -10 16 -31 16 -20 0 -29 -4 -27
-12z"/>
<path d="M1901 754 c0 -11 3 -14 6 -6 3 7 2 16 -1 19 -3 4 -6 -2 -5 -13z"/>
<path d="M1904 635 c0 -55 1 -76 3 -47 2 29 2 74 0 100 -2 26 -3 2 -3 -53z"/>
<path d="M1980 704 c0 -12 4 -14 13 -7 6 6 19 13 27 16 9 3 3 6 -12 6 -20 1
-28 -4 -28 -15z"/>
<path d="M1997 687 c-7 -20 18 -43 28 -27 4 7 1 19 -7 27 -14 13 -16 13 -21 0z"/>
<path d="M2002 627 c-6 -7 -7 -18 -3 -25 6 -10 11 -10 21 3 9 11 9 15 1 15 -7
0 -9 5 -6 10 9 14 -1 12 -13 -3z"/>
<path d="M1630 605 c0 -9 9 -15 25 -15 16 0 25 6 25 15 0 9 -9 15 -25 15 -16
0 -25 -6 -25 -15z"/>
<path d="M1700 605 c0 -9 9 -15 25 -15 16 0 25 6 25 15 0 9 -9 15 -25 15 -16
0 -25 -6 -25 -15z"/>
<path d="M1760 606 c0 -11 10 -16 31 -16 38 0 35 24 -4 28 -19 2 -27 -1 -27
-12z"/>
<path d="M1594 585 c-3 -8 -4 -20 -2 -27 3 -7 7 -1 10 15 6 29 1 36 -8 12z"/>
<path d="M1838 575 c2 -14 6 -25 8 -25 2 0 4 11 4 25 0 14 -4 25 -9 25 -4 0
-6 -11 -3 -25z"/>
<path d="M1570 515 c0 -16 6 -25 15 -25 9 0 15 9 15 25 0 16 -6 25 -15 25 -9
0 -15 -9 -15 -25z"/>
<path d="M1850 515 c0 -16 6 -25 15 -25 9 0 15 9 15 25 0 16 -6 25 -15 25 -9
0 -15 -9 -15 -25z"/>
<path d="M1902 470 c0 -14 2 -19 5 -12 2 6 2 18 0 25 -3 6 -5 1 -5 -13z"/>
<path d="M1590 460 c0 -11 4 -20 9 -20 5 0 7 9 4 20 -3 11 -7 20 -9 20 -2 0
-4 -9 -4 -20z"/>
<path d="M1842 460 c0 -14 2 -19 5 -12 2 6 2 18 0 25 -3 6 -5 1 -5 -13z"/>
<path d="M1630 425 c0 -9 9 -15 25 -15 16 0 25 6 25 15 0 9 -9 15 -25 15 -16
0 -25 -6 -25 -15z"/>
<path d="M1700 425 c0 -9 9 -15 25 -15 16 0 25 6 25 15 0 9 -9 15 -25 15 -16
0 -25 -6 -25 -15z"/>
<path d="M1760 424 c0 -11 8 -14 27 -12 39 4 42 28 4 28 -21 0 -31 -5 -31 -16z"/>
<path d="M1903 390 c0 -25 2 -35 4 -22 2 12 2 32 0 45 -2 12 -4 2 -4 -23z"/>
<path d="M346 631 c-18 -33 -13 -41 23 -40 26 1 26 1 -2 8 l-29 6 22 28 c12
15 17 27 11 27 -6 0 -17 -13 -25 -29z"/>
<path d="M242 625 c0 -16 2 -22 5 -12 2 9 2 23 0 30 -3 6 -5 -1 -5 -18z"/>
<path d="M2000 556 c0 -2 8 -10 18 -17 15 -13 16 -12 3 4 -13 16 -21 21 -21
13z"/>
<path d="M123 500 c0 -25 2 -35 4 -22 2 12 2 32 0 45 -2 12 -4 2 -4 -23z"/>
<path d="M107 430 c-8 -29 7 -61 16 -36 4 9 3 26 -2 38 l-8 22 -6 -24z"/>
<path d="M123 330 c0 -25 2 -35 4 -22 2 12 2 32 0 45 -2 12 -4 2 -4 -23z"/>
<path d="M241 524 c0 -11 3 -14 6 -6 3 7 2 16 -1 19 -3 4 -6 -2 -5 -13z"/>
<path d="M241 464 c0 -11 3 -14 6 -6 3 7 2 16 -1 19 -3 4 -6 -2 -5 -13z"/>
<path d="M2883 375 c0 -44 2 -61 4 -37 2 23 2 59 0 80 -2 20 -4 1 -4 -43z"/>
<path d="M2328 443 c7 -3 16 -2 19 1 4 3 -2 6 -13 5 -11 0 -14 -3 -6 -6z"/>
<path d="M2000 426 c0 -2 8 -10 18 -17 15 -13 16 -12 3 4 -13 16 -21 21 -21
13z"/>
<path d="M2144 401 c18 -7 66 -3 66 5 0 2 -19 4 -42 3 -31 0 -37 -3 -24 -8z"/>
<path d="M2009 343 c-13 -16 -12 -17 4 -4 9 7 17 15 17 17 0 8 -8 3 -21 -13z"/>
<path d="M2328 303 c7 -3 16 -2 19 1 4 3 -2 6 -13 5 -11 0 -14 -3 -6 -6z"/>
<path d="M2388 303 c7 -3 16 -2 19 1 4 3 -2 6 -13 5 -11 0 -14 -3 -6 -6z"/>
<path d="M103 3120 c0 -25 2 -35 4 -22 2 12 2 32 0 45 -2 12 -4 2 -4 -23z"/>
<path d="M123 3125 c0 -22 2 -30 4 -17 2 12 2 30 0 40 -3 9 -5 -1 -4 -23z"/>
<path d="M243 3115 c0 -27 2 -38 4 -22 2 15 2 37 0 50 -2 12 -4 0 -4 -28z"/>
<path d="M743 3115 c0 -27 2 -38 4 -22 2 15 2 37 0 50 -2 12 -4 0 -4 -28z"/>
<path d="M1023 3115 c0 -27 2 -38 4 -22 2 15 2 37 0 50 -2 12 -4 0 -4 -28z"/>
<path d="M1163 3123 l1 -41 43 35 c24 20 43 37 43 40 0 7 -58 -37 -67 -50 -5
-7 -10 1 -14 23 -7 35 -7 35 -6 -7z"/>
<path d="M1462 3130 c0 -19 2 -27 5 -17 2 9 2 25 0 35 -3 9 -5 1 -5 -18z"/>
<path d="M1901 3128 l-1 -38 -197 -2 -198 -2 200 -6 200 -5 3 23 c2 12 1 32
-1 45 -3 13 -5 7 -6 -15z"/>
<path d="M2090 3145 c7 -8 17 -15 22 -15 6 0 5 7 -2 15 -7 8 -17 15 -22 15 -6
0 -5 -7 2 -15z"/>
<path d="M2183 3115 c0 -27 2 -38 4 -22 2 15 2 37 0 50 -2 12 -4 0 -4 -28z"/>
<path d="M2683 3115 c0 -27 2 -38 4 -22 2 15 2 37 0 50 -2 12 -4 0 -4 -28z"/>
<path d="M2803 3125 c0 -22 2 -30 4 -17 2 12 2 30 0 40 -3 9 -5 -1 -4 -23z"/>
<path d="M2950 3106 c0 -44 -4 -55 -17 -59 -17 -4 -17 -5 0 -6 16 -1 17 -20
17 -245 0 -224 -1 -245 -17 -249 -17 -4 -17 -5 0 -6 16 -1 17 -20 17 -240 0
-220 -1 -240 -17 -244 -17 -4 -17 -5 0 -6 16 -1 17 -20 17 -240 0 -220 -1
-240 -17 -244 -17 -4 -17 -5 -1 -6 16 -1 18 -21 21 -228 1 -126 3 234 5 800 1
565 0 1027 -3 1027 -3 0 -5 -24 -5 -54z"/>
<path d="M310 3078 c0 -14 208 -13 222 0 4 4 -45 7 -108 7 -62 0 -114 -3 -114
-7z"/>
<path d="M550 3080 c0 -5 5 -10 10 -10 6 0 10 5 10 10 0 6 -4 10 -10 10 -5 0
-10 -4 -10 -10z"/>
<path d="M580 3079 c0 -5 9 -9 20 -9 11 0 20 2 20 4 0 2 -9 6 -20 9 -11 3 -20
1 -20 -4z"/>
<path d="M630 3081 c0 -5 11 -11 25 -13 17 -4 25 -1 25 8 0 8 -11 14 -25 14
-14 0 -25 -4 -25 -9z"/>
<path d="M1378 3083 c12 -2 30 -2 40 0 9 3 -1 5 -23 4 -22 0 -30 -2 -17 -4z"/>
<path d="M1938 3083 c12 -2 32 -2 45 0 12 2 2 4 -23 4 -25 0 -35 -2 -22 -4z"/>
<path d="M2260 3078 c0 -4 16 -8 35 -8 19 0 35 2 35 4 0 2 -16 6 -35 8 -19 2
-35 0 -35 -4z"/>
<path d="M2340 3078 c0 -5 15 -8 33 -9 17 0 51 -1 75 -2 23 -1 42 3 42 8 0 6
-32 10 -75 10 -41 0 -75 -3 -75 -7z"/>
<path d="M2500 3078 c0 -5 27 -8 60 -8 33 0 63 0 67 -1 4 0 9 4 11 9 1 5 -29
9 -68 8 -38 -1 -70 -4 -70 -8z"/>
<path d="M1171 2988 c-1 -21 4 -28 17 -28 11 0 13 3 6 8 -7 4 -14 16 -17 27
-4 15 -5 14 -6 -7z"/>
<path d="M1235 3000 c-3 -5 -12 -7 -20 -3 -8 3 -15 0 -15 -5 0 -21 18 -21 35
-2 10 11 15 20 12 20 -3 0 -8 -4 -12 -10z"/>
<path d="M1991 2988 c-1 -36 26 -38 58 -4 l22 23 -26 -5 c-17 -3 -24 -9 -21
-18 3 -8 -1 -14 -9 -14 -7 0 -16 10 -18 23 -4 19 -4 18 -6 -5z"/>
<path d="M1280 2990 c0 -5 7 -10 15 -10 8 0 15 5 15 10 0 6 -7 10 -15 10 -8 0
-15 -4 -15 -10z"/>
<path d="M2183 2920 c0 -47 2 -66 4 -42 2 23 2 61 0 85 -2 23 -4 4 -4 -43z"/>
<path d="M2684 2910 c0 -52 1 -74 3 -47 2 26 2 68 0 95 -2 26 -3 4 -3 -48z"/>
<path d="M2340 2835 c0 -9 9 -15 25 -15 16 0 25 6 25 15 0 9 -9 15 -25 15 -16
0 -25 -6 -25 -15z"/>
<path d="M2407 2844 c-15 -15 -6 -24 24 -24 20 0 29 4 27 13 -5 14 -40 21 -51
11z"/>
<path d="M2470 2835 c0 -9 9 -15 25 -15 16 0 25 6 25 15 0 9 -9 15 -25 15 -16
0 -25 -6 -25 -15z"/>
<path d="M2537 2844 c-15 -15 -6 -24 24 -24 20 0 29 4 27 13 -5 14 -40 21 -51
11z"/>
<path d="M1230 2831 c0 -5 -9 -11 -20 -14 -27 -7 -25 -33 2 -48 l22 -12 -22
-8 c-29 -11 -30 -49 -2 -49 11 0 20 -4 20 -9 0 -5 -9 -11 -20 -14 -11 -3 -20
-13 -20 -22 0 -9 9 -19 20 -22 11 -3 20 -9 20 -13 0 -4 -9 -10 -20 -13 -27 -7
-25 -35 3 -47 26 -10 17 -12 -78 -13 l-70 0 63 -4 c55 -3 62 -6 62 -24 0 -12
8 -23 20 -26 11 -3 20 -9 20 -14 0 -5 25 -9 55 -9 30 0 55 4 55 9 0 5 9 11 20
14 28 7 26 44 -2 53 l-23 7 23 8 c27 10 29 39 2 46 -11 3 -20 9 -20 13 0 4 9
10 20 13 27 7 25 35 -2 47 l-23 9 23 7 c13 4 22 14 22 25 0 11 -10 24 -22 29
l-23 9 23 7 c28 8 30 44 2 51 -11 3 -20 9 -20 14 0 5 -25 9 -55 9 -30 0 -55
-4 -55 -9z m100 -176 l0 -175 -45 0 -45 0 0 175 0 175 45 0 45 0 0 -175z
m-100 140 c0 -8 -4 -15 -10 -15 -5 0 -10 7 -10 15 0 8 5 15 10 15 6 0 10 -7
10 -15z m130 0 c0 -8 -4 -15 -10 -15 -5 0 -10 7 -10 15 0 8 5 15 10 15 6 0 10
-7 10 -15z m-130 -70 c0 -8 -4 -15 -10 -15 -5 0 -10 7 -10 15 0 8 5 15 10 15
6 0 10 -7 10 -15z m130 0 c0 -8 -4 -15 -10 -15 -5 0 -10 7 -10 15 0 8 5 15 10
15 6 0 10 -7 10 -15z m-130 -70 c0 -8 -4 -15 -10 -15 -5 0 -10 7 -10 15 0 8 5
15 10 15 6 0 10 -7 10 -15z m130 0 c0 -8 -4 -15 -10 -15 -5 0 -10 7 -10 15 0
8 5 15 10 15 6 0 10 -7 10 -15z m-130 -70 c0 -8 -4 -15 -10 -15 -5 0 -10 7
-10 15 0 8 5 15 10 15 6 0 10 -7 10 -15z m130 0 c0 -8 -4 -15 -10 -15 -5 0
-10 7 -10 15 0 8 5 15 10 15 6 0 10 -7 10 -15z m-130 -67 c0 -16 -3 -19 -11
-11 -6 6 -8 16 -5 22 11 17 16 13 16 -11z m130 3 c0 -6 -4 -13 -10 -16 -5 -3
-10 1 -10 9 0 9 5 16 10 16 6 0 10 -4 10 -9z"/>
<path d="M2310 2773 c0 -39 5 -52 26 -70 27 -23 54 -21 54 3 0 9 -12 14 -36
14 l-36 0 4 50 c1 28 0 50 -4 50 -5 0 -8 -21 -8 -47z"/>
<path d="M2603 2765 c0 -30 4 -52 8 -49 11 7 12 104 1 104 -5 0 -8 -25 -9 -55z"/>
<path d="M2184 2685 c0 -71 1 -99 3 -62 2 37 2 96 0 130 -2 34 -3 4 -3 -68z"/>
<path d="M2684 2720 c0 -52 1 -74 3 -47 2 26 2 68 0 95 -2 26 -3 4 -3 -48z"/>
<path d="M2342 2768 c6 -18 28 -21 28 -4 0 9 -7 16 -16 16 -9 0 -14 -5 -12
-12z"/>
<path d="M2383 2766 c2 -6 14 -10 27 -10 13 0 25 4 27 10 2 6 -10 11 -27 11
-17 0 -29 -5 -27 -11z"/>
<path d="M2487 2774 c-8 -8 1 -24 14 -24 5 0 9 7 9 15 0 15 -12 20 -23 9z"/>
<path d="M2523 2767 c4 -14 49 -15 54 -1 2 6 -10 11 -27 12 -20 0 -30 -4 -27
-11z"/>
<path d="M2400 2706 c0 -17 24 -28 45 -20 27 11 17 34 -15 34 -19 0 -30 -5
-30 -14z"/>
<path d="M2470 2706 c0 -16 19 -25 38 -19 22 8 13 33 -13 33 -15 0 -25 -6 -25
-14z"/>
<path d="M2530 2710 c0 -13 32 -28 48 -23 25 9 12 33 -18 33 -16 0 -30 -4 -30
-10z"/>
<path d="M2682 2590 c0 -14 2 -19 5 -12 2 6 2 18 0 25 -3 6 -5 1 -5 -13z"/>
<path d="M2873 2550 c0 -16 4 -30 9 -30 4 0 8 14 8 30 0 17 -4 30 -8 30 -5 0
-9 -13 -9 -30z"/>
<path d="M2584 2558 c-11 -17 8 -28 47 -28 33 0 40 3 37 17 -2 12 -14 18 -41
18 -21 1 -40 -2 -43 -7z m53 -14 c-3 -3 -12 -4 -19 -1 -8 3 -5 6 6 6 11 1 17
-2 13 -5z"/>
<path d="M1548 2543 c18 -2 45 -2 60 0 15 2 0 4 -33 4 -33 0 -45 -2 -27 -4z"/>
<path d="M2103 2543 c86 -2 228 -2 315 0 86 1 15 3 -158 3 -173 0 -244 -2
-157 -3z"/>
<path d="M2263 2500 c-7 -11 -13 -29 -13 -40 0 -19 6 -20 212 -17 193 2 213 4
216 19 2 12 -5 21 -21 27 -14 6 -28 15 -32 20 -3 7 -45 11 -101 11 -77 0 -94
-3 -94 -15 0 -8 5 -15 10 -15 6 0 10 -7 10 -15 0 -8 -9 -15 -19 -15 -14 0 -21
8 -23 28 -3 26 -5 27 -68 30 -56 2 -67 0 -77 -18z m77 0 l-65 -7 63 -1 c48 -2
62 -5 62 -17 0 -12 -14 -15 -65 -15 -56 0 -65 2 -65 18 0 29 9 32 74 30 l61
-1 -65 -7z m233 3 c-23 -2 -64 -2 -90 0 -26 2 -7 3 42 3 50 0 71 -1 48 -3z
m58 -30 c0 -11 3 -13 6 -5 7 18 33 15 33 -4 0 -13 -7 -15 -31 -10 -17 3 -65 6
-105 6 -59 0 -74 3 -74 15 0 12 16 15 85 15 74 0 85 -2 86 -17z"/>
<path d="M1464 2305 c0 -104 2 -146 3 -92 2 54 2 139 0 190 -1 51 -3 7 -3 -98z"/>
<path d="M2302 2263 l3 -118 175 0 175 0 3 118 3 117 -181 0 -181 0 3 -117z
m61 100 c-30 -4 -33 -7 -33 -39 0 -33 1 -34 38 -32 36 1 36 1 5 5 -18 2 -33 9
-33 15 0 6 15 8 34 6 19 -2 32 0 30 4 -3 4 -18 8 -35 8 -16 0 -29 5 -29 10 0
6 14 10 30 10 17 0 30 5 30 10 0 6 48 10 125 10 l125 0 0 -110 0 -110 -169 0
-169 0 0 110 1 110 41 -2 c37 -1 38 -2 9 -5z"/>
<path d="M2550 2325 c0 -34 1 -35 39 -35 38 0 39 1 39 35 0 34 -1 35 -39 35
-38 0 -39 -1 -39 -35z m30 15 c0 -5 -4 -10 -10 -10 -5 0 -10 5 -10 10 0 6 5
10 10 10 6 0 10 -4 10 -10z m40 0 c0 -5 -6 -10 -12 -11 -10 0 -10 -2 0 -6 6
-2 10 -9 6 -14 -10 -18 -24 -9 -24 16 0 16 6 25 15 25 8 0 15 -4 15 -10z m-40
-30 c0 -5 -4 -10 -10 -10 -5 0 -10 5 -10 10 0 6 5 10 10 10 6 0 10 -4 10 -10z"/>
<path d="M2450 2325 c0 -20 5 -25 25 -25 20 0 25 5 25 25 0 20 -5 25 -25 25
-20 0 -25 -5 -25 -25z m40 0 c0 -8 -7 -15 -15 -15 -8 0 -15 7 -15 15 0 8 7 15
15 15 8 0 15 -7 15 -15z"/>
<path d="M2330 2200 c0 -39 1 -40 35 -40 19 0 35 4 35 8 0 4 -12 8 -27 8 -23
-1 -28 4 -30 26 -1 23 3 27 30 31 31 4 30 4 -5 5 -38 2 -38 2 -38 -38z"/>
<path d="M2550 2199 l0 -40 38 3 c35 3 37 5 39 41 2 37 2 37 -37 37 l-40 0 0
-41z m70 21 c0 -5 -4 -10 -10 -10 -5 0 -7 -6 -4 -14 3 -8 1 -17 -5 -21 -7 -4
-11 4 -11 19 0 18 -4 24 -15 20 -8 -4 -15 -1 -15 5 0 6 14 11 30 11 17 0 30
-4 30 -10z m-40 -35 c0 -8 -4 -15 -10 -15 -5 0 -10 7 -10 15 0 8 5 15 10 15 6
0 10 -7 10 -15z"/>
<path d="M2450 2205 c0 -20 5 -25 25 -25 20 0 25 5 25 25 0 20 -5 25 -25 25
-20 0 -25 -5 -25 -25z m40 0 c0 -8 -7 -15 -15 -15 -8 0 -15 7 -15 15 0 8 7 15
15 15 8 0 15 -7 15 -15z"/>
<path d="M2360 2206 c0 -2 9 -6 20 -9 11 -3 20 -1 20 4 0 5 -9 9 -20 9 -11 0
-20 -2 -20 -4z"/>
<path d="M2182 2300 c0 -19 2 -27 5 -17 2 9 2 25 0 35 -3 9 -5 1 -5 -18z"/>
<path d="M2683 2260 c0 -41 2 -58 4 -37 2 20 2 54 0 75 -2 20 -4 3 -4 -38z"/>
<path d="M2682 2120 c0 -19 2 -27 5 -17 2 9 2 25 0 35 -3 9 -5 1 -5 -18z"/>
<path d="M1230 2131 c0 -5 -9 -11 -20 -14 -27 -7 -26 -45 2 -56 l22 -8 -22 -5
c-14 -4 -22 -14 -22 -28 0 -14 8 -24 22 -28 l22 -5 -22 -8 c-29 -11 -29 -46 0
-55 l23 -7 -23 -8 c-29 -11 -29 -45 0 -55 l23 -7 -23 -8 c-28 -11 -30 -49 -2
-49 11 0 20 -4 20 -10 0 -5 25 -10 55 -10 30 0 55 4 55 9 0 5 9 11 20 14 11 3
20 13 20 22 0 9 -9 19 -20 22 -14 4 -20 14 -20 35 0 18 4 27 10 23 6 -4 8 -15
5 -26 -5 -14 -3 -17 9 -13 23 9 20 45 -4 51 l-21 6 21 14 c26 18 26 42 -2 52
l-22 8 22 5 c37 10 27 55 -10 49 -17 -2 -7 18 12 24 30 9 24 38 -11 58 -32 18
-119 24 -119 8z m100 -176 l0 -175 -45 0 -45 0 0 175 0 175 45 0 45 0 0 -175z
m-100 129 c0 -8 -4 -12 -10 -9 -5 3 -10 10 -10 16 0 5 5 9 10 9 6 0 10 -7 10
-16z m130 7 c0 -6 -4 -13 -10 -16 -5 -3 -10 1 -10 9 0 9 5 16 10 16 6 0 10 -4
10 -9z m-130 -77 c0 -8 -4 -12 -10 -9 -5 3 -10 10 -10 16 0 5 5 9 10 9 6 0 10
-7 10 -16z m130 7 c0 -6 -4 -13 -10 -16 -5 -3 -10 1 -10 9 0 9 5 16 10 16 6 0
10 -4 10 -9z m-134 -78 c-10 -10 -19 5 -10 18 6 11 8 11 12 0 2 -7 1 -15 -2
-18z m126 -5 c-9 -9 -12 -7 -12 12 0 19 3 21 12 12 9 -9 9 -15 0 -24z m-122
-53 c0 -8 -4 -15 -10 -15 -5 0 -10 7 -10 15 0 8 5 15 10 15 6 0 10 -7 10 -15z
m0 -70 c0 -8 -4 -15 -10 -15 -5 0 -10 7 -10 15 0 8 5 15 10 15 6 0 10 -7 10
-15z m130 0 c0 -8 -4 -15 -10 -15 -5 0 -10 7 -10 15 0 8 5 15 10 15 6 0 10 -7
10 -15z"/>
<path d="M1268 2053 c12 -2 30 -2 40 0 9 3 -1 5 -23 4 -22 0 -30 -2 -17 -4z"/>
<path d="M1440 2080 c-35 -35 7 -83 48 -54 27 19 28 36 4 57 -24 22 -28 21
-52 -3z m50 -25 c0 -18 -5 -25 -19 -25 -11 0 -23 5 -26 10 -11 18 3 40 25 40
15 0 20 -7 20 -25z"/>
<path d="M1644 2061 c-2 -2 -4 -16 -3 -30 l1 -26 8 25 8 25 1 -27 c1 -16 -3
-28 -9 -28 -6 0 -10 -70 -10 -190 l0 -190 150 0 149 0 0 135 c0 128 -1 135
-19 135 -17 0 -20 7 -20 50 0 28 4 50 9 50 5 0 12 10 14 23 4 19 4 18 6 -5 0
-16 -3 -28 -9 -28 -5 0 -10 -7 -10 -15 0 -8 7 -15 15 -15 8 0 15 9 15 20 0 12
10 24 23 30 l22 9 -22 0 c-16 1 -23 8 -25 27 l-3 25 -143 2 c-79 1 -146 0
-148 -2z m67 -33 l2 -23 4 23 c6 29 48 31 56 2 3 -11 10 -20 17 -20 7 0 14 9
17 20 4 13 14 20 30 20 13 0 21 -4 18 -10 -3 -5 0 -10 7 -10 10 0 9 -3 -2 -11
-13 -9 -13 -10 0 -6 8 2 14 11 12 21 -2 11 4 16 20 16 19 0 20 -2 8 -10 -8 -5
-10 -10 -4 -10 6 0 11 -7 11 -15 0 -12 -20 -15 -119 -15 l-118 0 0 25 c0 34
39 36 41 3z m89 7 c0 -8 -4 -15 -10 -15 -5 0 -10 7 -10 15 0 8 5 15 10 15 6 0
10 -7 10 -15z m89 -228 l0 -177 -27 6 c-29 6 -73 6 -160 -1 -46 -3 -52 -1 -48
13 6 20 8 265 3 302 -2 14 -2 27 -1 30 1 3 54 5 118 5 l115 0 0 -178z m32 36
c0 -69 1 -188 0 -200 -1 -7 -5 -13 -11 -13 -6 0 -10 48 -10 125 0 77 4 125 10
125 6 0 10 -17 11 -37z"/>
<path d="M1673 1955 c1 -5 4 -12 7 -15 3 -3 13 -17 23 -32 17 -27 17 -28 -3
-28 -17 0 -20 -6 -20 -49 0 -28 5 -53 10 -56 6 -3 9 -18 9 -33 l-1 -27 -8 30
c-8 29 -8 29 -7 -7 1 -20 5 -34 9 -32 8 5 11 -8 9 -41 -2 -17 0 -17 8 -5 6 8
8 22 6 30 -4 12 7 15 64 15 39 0 68 -4 68 -10 0 -28 4 -45 11 -45 4 0 5 29 4
65 -3 42 0 65 7 65 7 0 11 21 11 50 0 49 -1 50 -31 50 l-30 0 20 29 c26 36 26
36 -1 38 -11 1 -24 6 -27 10 -11 15 -31 13 -31 -2 0 -10 10 -15 30 -15 34 0
36 -6 14 -38 -22 -32 -86 -31 -108 3 -22 33 -21 35 19 35 53 0 42 18 -14 22
-29 2 -49 -1 -48 -7z m99 -130 c3 -41 2 -43 -22 -40 -14 1 -32 3 -40 4 -10 1
-15 12 -15 39 0 36 1 37 37 38 36 2 36 1 40 -41z m98 3 c0 -33 -3 -38 -24 -38
-13 0 -31 -3 -39 -6 -9 -3 -16 3 -20 15 -3 12 -1 19 4 15 5 -3 9 7 9 23 0 22
-2 25 -10 13 -9 -13 -10 -13 -10 0 0 11 12 15 45 15 l45 0 0 -37z m-20 -82 c0
-32 -12 -33 -34 -3 l-17 22 11 -22 c10 -22 9 -23 -44 -23 -50 0 -54 2 -52 23
1 21 6 23 68 25 67 3 68 3 68 -22z"/>
<path d="M1740 1851 c0 -6 4 -13 10 -16 6 -3 7 1 4 9 -7 18 -14 21 -14 7z"/>
<path d="M1726 1743 c-6 -14 -5 -15 5 -6 7 7 10 15 7 18 -3 3 -9 -2 -12 -12z"/>
<path d="M1677 1670 c-3 -11 -3 -20 -1 -20 2 0 8 9 14 20 6 11 7 20 2 20 -6 0
-12 -9 -15 -20z"/>
<path d="M1083 2053 c20 -2 54 -2 75 0 20 2 3 4 -38 4 -41 0 -58 -2 -37 -4z"/>
<path d="M1388 2053 c7 -3 16 -2 19 1 4 3 -2 6 -13 5 -11 0 -14 -3 -6 -6z"/>
<path d="M1553 2053 c15 -2 39 -2 55 0 15 2 2 4 -28 4 -30 0 -43 -2 -27 -4z"/>
<path d="M2023 2053 c42 -2 112 -2 155 0 42 1 7 3 -78 3 -85 0 -120 -2 -77 -3z"/>
<path d="M1464 1805 c0 -104 2 -146 3 -92 2 54 2 139 0 190 -1 51 -3 7 -3 -98z"/>
<path d="M2029 1933 c-1 -39 -1 -222 0 -280 1 -32 2 -33 46 -33 27 0 45 5 45
11 0 7 8 18 18 25 16 13 16 15 0 27 -15 12 -15 14 0 25 16 10 16 12 0 25 -20
16 -24 47 -7 47 6 0 9 -7 5 -15 -3 -8 -1 -15 4 -15 16 0 11 30 -5 36 -17 7
-21 44 -4 44 6 0 9 -7 5 -15 -3 -8 -1 -15 4 -15 15 0 12 26 -4 39 -14 12 -19
94 -4 85 4 -3 6 -10 3 -15 -4 -5 -1 -9 4 -9 17 0 13 27 -4 34 -8 3 -15 12 -15
21 0 11 -11 15 -45 15 l-45 0 -1 -37z m81 -138 l0 -165 -35 0 -35 0 0 165 0
165 35 0 35 0 0 -165z m30 -75 c0 -5 -4 -10 -10 -10 -5 0 -10 5 -10 10 0 6 5
10 10 10 6 0 10 -4 10 -10z m0 -50 c0 -5 -4 -10 -10 -10 -5 0 -10 5 -10 10 0
6 5 10 10 10 6 0 10 -4 10 -10z"/>
<path d="M2064 1790 c0 -85 2 -120 3 -77 2 42 2 112 0 155 -1 42 -3 7 -3 -78z"/>
<path d="M2133 1865 c0 -8 4 -15 9 -15 4 0 8 7 8 15 0 8 -4 15 -8 15 -5 0 -9
-7 -9 -15z"/>
<path d="M1054 1842 c3 -5 0 -13 -6 -15 -8 -3 -6 -6 5 -6 19 -1 23 14 5 25 -6
4 -8 3 -4 -4z"/>
<path d="M2183 1760 c0 -47 2 -66 4 -42 2 23 2 61 0 85 -2 23 -4 4 -4 -43z"/>
<path d="M1052 1790 c0 -14 2 -19 5 -12 2 6 2 18 0 25 -3 6 -5 1 -5 -13z"/>
<path d="M1048 1724 c5 -41 7 -40 15 4 5 22 3 32 -6 32 -9 0 -12 -11 -9 -36z"/>
<path d="M1052 1640 c0 -14 2 -19 5 -12 2 6 2 18 0 25 -3 6 -5 1 -5 -13z"/>
<path d="M2181 1614 c0 -11 3 -14 6 -6 3 7 2 16 -1 19 -3 4 -6 -2 -5 -13z"/>
<path d="M1048 1603 c6 -2 10 -9 6 -14 -3 -5 0 -9 5 -9 6 0 11 7 11 15 0 8 -8
15 -17 14 -11 0 -13 -3 -5 -6z"/>
<path d="M1431 1582 c-7 -14 -6 -25 5 -40 19 -27 36 -28 58 -3 14 15 15 24 6
40 -14 26 -56 28 -69 3z m57 -16 c5 -24 -10 -38 -31 -30 -17 6 -23 35 -10 48
12 12 38 1 41 -18z"/>
<path d="M1142 1563 c48 -2 129 -2 180 0 51 1 12 3 -87 3 -99 0 -141 -2 -93
-3z"/>
<path d="M1612 1563 c48 -2 129 -2 180 0 51 1 12 3 -87 3 -99 0 -141 -2 -93
-3z"/>
<path d="M2280 1430 l0 -111 38 3 37 3 2 61 2 61 -27 -6 c-25 -5 -25 -6 -4 -9
33 -5 29 -34 -4 -30 -21 2 -28 9 -30 31 l-3 27 140 0 140 0 -3 38 -3 37 -142
3 -143 3 0 -111z m70 70 c0 -27 -3 -30 -30 -30 -27 0 -30 3 -30 30 0 27 3 30
30 30 27 0 30 -3 30 -30z m28 -5 c0 -14 -4 -25 -9 -25 -5 0 -9 11 -9 25 0 14
4 25 9 25 5 0 9 -11 9 -25z m32 0 c0 -14 -4 -25 -9 -25 -5 0 -8 11 -8 25 0 14
3 25 8 25 5 0 9 -11 9 -25z m38 0 c0 -14 -4 -25 -9 -25 -5 0 -9 11 -9 25 0 14
4 25 9 25 5 0 9 -11 9 -25z m42 15 c0 -5 -7 -10 -15 -10 -8 0 -15 5 -15 10 0
6 7 10 15 10 8 0 15 -4 15 -10z m70 0 c0 -5 -12 -11 -27 -11 l-28 -2 28 -4
c36 -6 35 -23 -3 -23 -25 0 -30 4 -30 25 0 21 5 25 30 25 17 0 30 -4 30 -10z
m-70 -30 c0 -5 -7 -10 -15 -10 -8 0 -15 5 -15 10 0 6 7 10 15 10 8 0 15 -4 15
-10z m-143 -120 c0 -25 -4 -29 -24 -28 -12 1 -23 8 -23 14 0 7 -3 19 -6 28 -5
12 1 16 23 16 26 0 30 -3 30 -30z"/>
<path d="M2310 1359 c0 -5 5 -7 10 -4 6 3 10 8 10 11 0 2 -4 4 -10 4 -5 0 -10
-5 -10 -11z"/>
<path d="M2607 1523 c4 -11 2 -14 -5 -9 -7 4 -12 2 -12 -3 0 -16 15 -13 33 7
15 16 15 18 -3 19 -13 1 -17 -3 -13 -14z"/>
<path d="M1160 1304 l0 -224 505 0 505 0 0 224 0 225 -337 1 c-185 0 -335 -2
-332 -5 3 -3 149 -5 324 -5 175 0 316 -2 314 -4 -2 -2 -110 -49 -239 -105
l-235 -102 -37 17 c-24 11 -38 24 -38 36 0 15 -8 18 -48 18 -30 0 -67 9 -98
23 -27 13 -95 44 -152 68 l-103 44 118 6 118 5 -132 1 -133 0 0 -223z m165
141 l150 -64 -152 -1 -153 0 0 65 c0 36 1 65 3 65 2 0 70 -29 152 -65z m835
-146 c0 -168 -3 -209 -12 -202 -7 5 -116 54 -242 108 -175 76 -224 101 -210
107 11 5 116 51 234 102 118 52 218 95 223 95 4 1 7 -94 7 -210z m-968 19 l1
-53 7 55 c5 40 7 21 7 -70 0 -91 -2 -110 -7 -70 l-7 55 -1 -52 c-3 -70 -22
-68 -22 2 0 42 3 55 15 55 8 0 15 5 15 11 0 6 -7 9 -15 5 -12 -4 -15 5 -15 54
0 74 19 80 22 8z m48 -68 c0 -73 -4 -120 -10 -120 -6 0 -10 47 -10 120 0 73 4
120 10 120 6 0 10 -47 10 -120z m30 58 c-3 -126 4 -160 10 -48 l6 115 2 -120
c2 -114 1 -121 -18 -122 -19 -2 -20 4 -20 118 0 78 4 119 11 119 6 0 10 -24 9
-62z m49 -58 c0 -66 -5 -120 -10 -120 -5 0 -9 54 -9 120 0 76 4 120 10 120 7
0 10 -43 9 -120z m51 29 c0 -75 -3 -94 -17 -106 -17 -14 -17 -14 0 -9 12 4 17
0 17 -14 0 -13 -7 -20 -20 -20 -19 0 -20 7 -20 120 0 113 1 120 20 120 19 0
20 -7 20 -91z m30 1 c0 -53 -4 -90 -10 -90 -6 0 -10 37 -10 90 0 53 4 90 10
90 6 0 10 -37 10 -90z m50 -30 c0 -113 -1 -120 -20 -120 -16 0 -20 6 -19 33
l1 32 8 -30 8 -30 2 33 c3 43 3 71 -1 140 -3 53 -3 51 -9 -28 l-6 -85 -2 88
c-2 81 -1 87 18 87 19 0 20 -7 20 -120z m30 0 c0 -68 -4 -120 -9 -120 -6 0
-10 53 -10 120 -1 73 3 120 9 120 6 0 10 -47 10 -120z m50 60 c0 -77 -18 -79
-23 -2 -2 31 -3 5 -3 -58 0 -63 1 -95 3 -70 6 69 23 74 23 7 0 -50 -2 -57 -20
-57 -19 0 -20 7 -20 120 0 113 1 120 20 120 18 0 20 -7 20 -60z m47 -17 c-2
-16 -4 -3 -4 27 0 30 2 43 4 28 2 -16 2 -40 0 -55z m-18 -53 c0 -65 -3 -110
-9 -110 -6 0 -10 45 -10 110 0 62 4 110 9 110 6 0 10 -48 10 -110z m306 -28
c138 -60 257 -111 265 -115 8 -3 -197 -6 -457 -6 -259 -1 -478 2 -487 5 -28
11 -17 26 17 23 17 -1 112 -1 210 0 l177 1 0 73 c0 73 0 74 33 91 29 15 20 15
-18 0 -11 -5 -15 1 -15 21 0 18 4 25 13 22 6 -3 125 -55 262 -115z m-288 -49
c-2 -21 -4 -6 -4 32 0 39 2 55 4 38 2 -18 2 -50 0 -70z m-177 -8 c0 -14 -4
-25 -10 -25 -5 0 -10 11 -10 25 0 14 5 25 10 25 6 0 10 -11 10 -25z"/>
<path d="M1903 1275 c0 -33 2 -45 4 -27 2 18 2 45 0 60 -2 15 -4 0 -4 -33z"/>
<path d="M1349 1358 c-5 -22 -2 -118 4 -118 4 0 7 27 7 60 0 33 -2 60 -5 60
-3 0 -5 -1 -6 -2z"/>
<path d="M1352 1210 c0 -14 2 -19 5 -12 2 6 2 18 0 25 -3 6 -5 1 -5 -13z"/>
<path d="M1903 1140 c0 -25 2 -35 4 -22 2 12 2 32 0 45 -2 12 -4 2 -4 -23z"/>
<path d="M1463 1455 c0 -27 2 -38 4 -22 2 15 2 37 0 50 -2 12 -4 0 -4 -28z"/>
<path d="M1903 1465 c0 -22 2 -30 4 -17 2 12 2 30 0 40 -3 9 -5 -1 -4 -23z"/>
<path d="M2616 1484 c-21 -21 -20 -50 2 -59 14 -5 15 -4 5 6 -19 19 -16 37 7
49 31 16 44 3 25 -26 -8 -13 -11 -24 -6 -24 19 0 34 40 20 56 -15 18 -34 18
-53 -2z"/>
<path d="M2395 1430 c-12 -19 5 -46 44 -68 48 -27 47 -28 65 6 13 23 15 24 16
7 0 -15 2 -17 9 -6 7 11 11 9 21 -9 11 -21 11 -22 -14 -18 -15 3 -29 1 -32 -3
-6 -10 49 -12 59 -3 12 12 -14 44 -56 68 -51 29 -102 41 -112 26z m33 -22 c-3
-24 23 -34 28 -10 1 7 0 8 -3 2 -2 -5 -10 -10 -16 -10 -7 0 -5 6 4 16 13 12
20 13 42 3 22 -10 24 -14 15 -35 -14 -30 -17 -30 -59 -1 -37 25 -51 57 -24 57
11 0 15 -7 13 -22z"/>
<path d="M2600 1271 l0 -140 -27 3 c-21 3 -28 9 -28 26 0 13 6 25 14 28 10 3
12 -1 8 -17 -3 -11 -2 -21 3 -21 4 0 10 11 13 26 4 22 1 25 -22 22 -22 -3 -26
-8 -29 -40 l-3 -38 40 0 c40 0 41 1 41 35 0 32 2 35 30 35 27 0 30 -3 30 -29
0 -25 -5 -30 -27 -34 -26 -4 -26 -4 4 -6 l33 -1 -3 143 -2 142 -37 3 -38 3 0
-140z m62 98 c4 -26 2 -29 -24 -29 -24 0 -28 4 -28 29 0 23 4 29 24 29 19 0
25 -7 28 -29z m-2 -54 c0 -7 -11 -12 -25 -12 -14 0 -25 5 -25 12 0 7 11 13 25
13 14 0 25 -6 25 -13z m0 -35 c0 -5 -11 -10 -25 -10 -14 0 -25 5 -25 10 0 6
11 10 25 10 14 0 25 -4 25 -10z m0 -39 c0 -5 -11 -8 -25 -8 -14 0 -25 3 -25 8
0 5 11 9 25 9 14 0 25 -4 25 -9z m0 -32 c0 -5 -11 -9 -25 -9 -14 0 -25 4 -25
9 0 5 11 9 25 9 14 0 25 -4 25 -9z"/>
<path d="M2631 1364 c0 -11 3 -14 6 -6 3 7 2 16 -1 19 -3 4 -6 -2 -5 -13z"/>
<path d="M2335 1260 c-25 -27 -5 -59 32 -52 24 4 25 6 8 12 -17 6 -17 7 4 13
27 7 24 27 -6 38 -15 5 -26 2 -38 -11z m33 -18 c-10 -2 -18 -11 -19 -20 0 -11
-2 -13 -6 -4 -9 22 5 42 24 35 17 -7 17 -8 1 -11z"/>
<path d="M2432 1271 c-8 -4 -12 -19 -10 -32 4 -35 54 -40 67 -7 14 35 -24 60
-57 39z m45 -36 c3 -20 3 -20 -6 0 -10 20 -10 20 -10 0 -1 -17 -3 -17 -11 -5
-8 12 -10 12 -10 1 0 -8 -3 -12 -6 -8 -4 3 -4 13 0 22 8 22 40 15 43 -10z"/>
<path d="M2534 1265 c-4 -9 -2 -21 4 -27 15 -15 44 -1 40 19 -4 23 -36 29 -44
8z m36 -10 c0 -8 -7 -15 -15 -15 -8 0 -15 7 -15 15 0 8 7 15 15 15 8 0 15 -7
15 -15z"/>
<path d="M2460 1161 c0 -27 19 -36 37 -18 18 18 9 37 -18 37 -12 0 -19 -7 -19
-19z m38 -3 c-6 -18 -28 -21 -28 -4 0 9 7 16 16 16 9 0 14 -5 12 -12z"/>
<path d="M1450 1041 c0 -38 18 -49 29 -19 10 28 4 48 -15 48 -9 0 -14 -11 -14
-29z m17 -13 c-3 -7 -5 -2 -5 12 0 14 2 19 5 13 2 -7 2 -19 0 -25z"/>
<path d="M1890 1041 c0 -35 13 -47 30 -26 16 19 9 49 -13 53 -13 3 -17 -3 -17
-27z m17 -13 c-3 -7 -5 -2 -5 12 0 14 2 19 5 13 2 -7 2 -19 0 -25z"/>
<path d="M1153 1043 c54 -2 139 -2 190 0 51 1 7 3 -98 3 -104 0 -146 -2 -92
-3z"/>
<path d="M1593 1043 c54 -2 139 -2 190 0 51 1 7 3 -98 3 -104 0 -146 -2 -92
-3z"/>
<path d="M1963 1043 c15 -2 37 -2 50 0 12 2 0 4 -28 4 -27 0 -38 -2 -22 -4z"/>
<path d="M570 1020 c0 -6 -32 -11 -72 -12 l-73 -2 63 -3 63 -4 -6 -87 c-3 -48
-6 -113 -6 -144 0 -32 -3 -58 -8 -58 -9 0 -14 -94 -6 -120 4 -11 13 -20 22
-20 13 0 14 19 7 145 -6 127 -5 145 9 145 11 0 13 -6 9 -22 -3 -14 -1 -19 6
-14 12 7 5 115 -9 131 -5 5 -9 18 -8 30 1 17 2 16 9 -5 7 -22 8 -20 7 13 0 20
-2 37 -4 37 -1 0 -3 -4 -3 -10z m-3 -132 c-2 -13 -4 -5 -4 17 -1 22 1 32 4 23
2 -10 2 -28 0 -40z m-20 -280 c-2 -18 -4 -6 -4 27 0 33 2 48 4 33 2 -15 2 -42
0 -60z"/>
<path d="M114 1011 c3 -5 15 -7 26 -4 28 7 25 13 -6 13 -14 0 -23 -4 -20 -9z"/>
<path d="M743 970 c0 -30 2 -43 4 -27 2 15 2 39 0 55 -2 15 -4 2 -4 -28z"/>
<path d="M242 965 c0 -16 2 -22 5 -12 2 9 2 23 0 30 -3 6 -5 -1 -5 -18z"/>
<path d="M470 982 c0 -17 45 -62 62 -61 10 0 10 2 0 6 -6 2 -9 10 -5 16 4 6 0
8 -10 4 -12 -4 -21 2 -31 21 -9 15 -15 21 -16 14z"/>
<path d="M1463 910 c0 -47 2 -66 4 -42 2 23 2 61 0 85 -2 23 -4 4 -4 -43z"/>
<path d="M680 969 c0 -4 5 -11 10 -14 8 -5 7 -11 -1 -21 -9 -11 -8 -14 4 -14
11 0 15 9 15 28 -1 17 -6 29 -14 29 -8 0 -14 -4 -14 -8z"/>
<path d="M1023 910 c0 -41 2 -58 4 -37 2 20 2 54 0 75 -2 20 -4 3 -4 -38z"/>
<path d="M1920 960 c0 -5 4 -10 9 -10 6 0 13 5 16 10 3 6 -1 10 -9 10 -9 0
-16 -4 -16 -10z"/>
<path d="M598 943 c7 -3 16 -2 19 1 4 3 -2 6 -13 5 -11 0 -14 -3 -6 -6z"/>
<path d="M2000 910 c0 -5 5 -10 10 -10 6 0 10 5 10 10 0 6 -4 10 -10 10 -5 0
-10 -4 -10 -10z"/>
<path d="M652 888 c2 -13 8 -21 13 -19 6 1 9 8 7 15 -2 7 1 7 9 -1 19 -19 29
-16 29 7 0 16 -7 20 -31 20 -26 0 -30 -3 -27 -22z"/>
<path d="M721 883 c0 -15 3 -22 6 -15 2 6 9 12 14 12 6 0 8 -4 5 -9 -4 -5 2
-8 11 -7 30 5 22 41 -9 44 -25 3 -28 0 -27 -25z m46 0 c0 -10 -4 -10 -16 -1
-9 7 -18 13 -20 15 -2 1 5 1 16 0 11 0 20 -7 20 -14z"/>
<path d="M1903 875 c0 -22 2 -30 4 -17 2 12 2 30 0 40 -3 9 -5 -1 -4 -23z"/>
<path d="M457 885 c-4 -8 -2 -25 3 -37 7 -19 9 -19 9 -5 1 11 6 15 12 11 7 -4
7 2 -1 17 -17 32 -17 32 -23 14z"/>
<path d="M502 795 c0 -30 2 -55 6 -55 8 0 8 97 0 105 -2 2 -5 -20 -6 -50z"/>
<path d="M473 803 c5 -23 -7 -32 -18 -13 -3 6 -11 10 -17 10 -5 0 -1 -8 10
-17 11 -10 23 -29 27 -42 7 -22 5 -23 -21 -17 l-29 6 24 -14 c16 -9 20 -15 11
-18 -11 -3 -11 -6 -2 -12 25 -15 42 109 17 131 -4 5 -5 -2 -2 -14z"/>
<path d="M440 600 c0 -5 5 -10 10 -10 6 0 10 5 10 10 0 6 -4 10 -10 10 -5 0
-10 -4 -10 -10z"/>
<path d="M2183 180 c0 -36 2 -50 4 -32 2 17 2 47 0 65 -2 17 -4 3 -4 -33z"/>
<path d="M122 148 l-2 -47 -62 -4 -63 -3 62 -2 62 -2 4 -47 3 -48 2 48 2 47
54 0 55 0 4 -47 3 -48 2 48 2 47 244 0 245 0 4 -47 3 -48 2 48 2 47 134 0 135
0 4 -47 3 -48 2 48 2 47 214 0 215 0 4 -47 3 -48 2 48 2 47 214 0 215 0 4 -48
3 -47 2 47 c2 40 5 47 25 51 l22 4 -22 2 c-19 1 -22 8 -26 49 l-3 47 -2 -47
-2 -48 -214 0 -215 0 -4 48 -3 47 -2 -47 -2 -48 -214 0 -215 0 -4 48 -3 47 -2
-47 -2 -48 -134 0 -135 0 -4 48 -3 47 -2 -47 -2 -48 -244 0 -245 0 -4 48 -3
47 -2 -47 -2 -48 -54 0 -55 0 -4 48 -3 47 -2 -47z"/>
<path d="M2682 148 l-2 -47 -67 -4 -68 -3 67 -2 67 -2 4 -47 3 -48 2 48 2 47
54 0 55 0 4 -47 3 -48 2 47 2 47 98 4 97 3 -97 2 -97 2 -4 48 -3 47 -2 -47 -2
-48 -54 0 -55 0 -4 48 -3 47 -2 -47z"/>
<path d="M2259 153 c-4 -56 7 -63 91 -61 l65 2 -70 5 -70 6 1 33 c1 33 -15 47
-17 15z"/>
</g>
</svg>
